<mxfile host="app.diagrams.net" modified="2021-03-16T10:24:50.698Z" agent="5.0 (Windows NT 10.0; Win64; x64) AppleWebKit/537.36 (KHTML, like Gecko) Chrome/88.0.4324.190 Safari/537.36" etag="G0SMdL1d8X9Dn1_y3RXU" version="14.4.8" type="github">
  <diagram id="leTUhT-zFQobONTENNMR" name="Page-1">
    <mxGraphModel dx="2249" dy="1963" grid="1" gridSize="10" guides="1" tooltips="1" connect="1" arrows="1" fold="1" page="1" pageScale="1" pageWidth="827" pageHeight="1169" math="0" shadow="0">
      <root>
        <mxCell id="0" />
        <mxCell id="1" parent="0" />
        <mxCell id="EXiGh36RY0hB33X0RfPo-3" value="" style="shape=image;verticalLabelPosition=bottom;labelBackgroundColor=#ffffff;verticalAlign=top;aspect=fixed;imageAspect=0;image=data:image/png,iVBORw0KGgoAAAANSUhEUgAAAPQAAAGjCAYAAAAb0zgFAAAgAElEQVR4Ae2diZcVx3Xw+5+xsnxynO+zT+LPUiQQgz3Hx7KyGDv+jr/gWBKCSAygjIzsbMoiJIIWJBBmfOYQSZ8Wy9oiBAh5sCHREi3YUoABJMBggSQ0YmCYYfaB+51bVbf7VnV1v37v9du67zunTr/Xr7qq+nb96t5a+lYA8hEJiAQKI4GgMHciNyISEAmAAC2VQCRQIAkI0AV6mHIrIgEBWuqASKBAEhCgC/Qw5VZEAgK01AGRQIEkIEAX6GHKrYgEBGipAyKBAklAgC7Qw5RbEQkI0FIHRAIFkoAAXaCHKbciEhCgpQ6IBAokAQG6QA9TbkUk0DSgPxwF2PshwO7jAH17JYgMylMHXvtA131koNGfhgJ9/BzAva8D/NlTANc+AbDkRYC/frk8D1KglWeNdWD5Dl33kQFkYcObAI2CuyFAY2F/sEsX/vF9AAj21MxFGJ+chaGzk1b49OwkfHqOhyn49JwdzpybAiuMTMGZlDA8MgXD5yuHs+enIQyj03DWE86NTkNqGJuGkQzh/NgMhOHCDJxPCKMXZsAbxmdg1BPGxmfAChOzMOaECxOzEAuTs3CBBXw2aWFichZUmJqFiTDMwcRUFCan5sAbpudgMiFMTc+BN8zMwRQL0zMXIS3MzFwEFWYvwkxCmJ29CLEwdxFmWZibuwSxcPESzDnh4sVLkBguXYKLTrh0SetmZOHf3tEKbs0rAGfG89XZuQP98lENMh5n5y7BJ8NT8P5vRmHw1yNw0BMO/XoEDh2PwuHj58EKJ87De274zXl43w0fjML7Jhz5YBSOnIyHoydH4eipKBw7NQZh+HAMfu0Jxz8cg+MfReHERxfACh9fgN844YOPL8AHp+1w8vQ4hOGTcTiVED4cGocoTMCHQzp89OkE+MLHZyaAh9PDk+CGT85OAg+qUT03CUMsWI2op7FUjaTTUIaNITaMKQ2f3eDNwMhYFHwNm2rQnMZrbHwWwuBpoMYnZkEF1jBNTM5BGBIaG7cx8TUavgaCNwJYz3lw4cffCn4DuWEbnhnUrGA3NK9PrkCjeYGaeWr2kqpACObgsREdPDAj4AK0DXcEM4ItQJNVEsKMYHc40KS9UWuPTutuKGrtPD65AY39AgzYGqFGO3DsXAQzQi1Ai4ZWXZNIO6OmLqOG5kATxMgOKsR6P7kAjeY1amaEGU1ahFmAFpObxh7E5LZNbg40amnqXyNDyFI9n7qBfu8MwHf/XZvZ2N8kmAVoAVqAjgbTeB86CejpOYBvPwOw5Pt31cx03UDjNBR26nFg5sBRrZkJ6rD/LCZ3ZG7j4FjCgBgOlEkf2ozyF3hQzAc0DZQhS1f84xvwmc9cBqtX31412HUBjdoZWxQc8TtwbESANqPdMsptT/WVweSenJqCiYkJmJqajk1xuaPcaUAjwcjUb19xnYL6K1/prgrquoDGeTQcekftvB+1s2hoNYUlQJcH6JlZnBqbVDAj0JOTkzAzMxuDupLJTRoa6UWm/uCvn1dAo6b+/Oe/kBnquoDGlS+4iOTQ8fMCNJuLFqDLAfTM7KwCGEHetm0bPPnkk7Bv3z4v1NUAjUxd+dDZEGiEet68+ZmgrhloXPGCy9hwdRFqZ9HQ0QITAbr4QCPMU1NTcPbsWdi5cyf09PTAd7/7Xbj//vvh3XffVVBPT8+EmroaoJEpZOu3/rDbgnrRom9WhLpmoHHBOa5RxRVCAnQEM64aE6CLDfT0jIb5k08+gYGBAbj55psVzH/xF38BN9xwg4J6//79ygyfnplRY0zVAI1MIVu/8+XrLaBRU1f61Aw02vnYh/5keLKDgR6Eu64OIAgw9MATdS/9PAhr51F6K+AptvwzXPYpo9wdvvQT16tPAcK8a9cuWLFiBSxatAg2b94Mjz/+OPzgBz+Av/zLv4R77rkHjhw5AuPj44BQz81d9K7vpnlo3ofGpbnI1v/4xj/EgP76169LZbpmoOlNIhoQq9bk3nXXAgMSAcCOV22An9OabncdN/5213Hj75rWclcL9A5YouBnZVW/V8BTqg/dhkC/sNIr5/kPvidruafiL4akruXGl0WMmY2aGWH+xje+ARs2bFDwnj59Gn72s5/B6tWr4Vvf+hasXbsWTp06BRcuXICZmZnMQKOSRL4uX7whBnQlLV030KeGxmvS0KlAG435KELdLkA/0+MFQ2v3dgT6ZVjmbXx0Y9QcoAdgOZahZ4C9kdaopZ+7YAXmtXJX+NZY+GIGvqSRw8sZExN6NBv7zLfccgt885vfVDCPjo5CX18f3H333fDKK6/Af/3Xf0Fvby989atfhTVr1sAHH3ygze/paQvqUDvjajGmdysBjdo/6dMWQH/vSXrbaj/8y1WR9vvek+0C9A64kcGx5Bn2xtXHqJXbDWgH5ltett+2enElNBzowc2wgGTWaKAP90EX5dUgoCcn9TwzjmbTABia2e+//z78+Mc/hm9/+9tw7bXXwve//3146aWX4M0331Tfr7vuOli3bh0cPnxYj37PzoZQ1wp0mtndZkCPwM/vjkzxtgH6rY1wFVWYeQ/Ba/wVSjZd9RsFNzVIretDP3cLlSGAeevfs2DG1yib8vpkwYDGqSkMODX1wx/+UEH8xhtvwJYtW+DP//zPYfny5bBq1Sq4/vrr4fbbb4cXX3xRQY2a+p/+6Z/UdBZej/3pSgtLKmnoyy//bJKCrn07WepD52FyRxp6G3yPwKF+tGVyb4Pr6f/w2AOPefvQ2+GGMA5V8B54zHof2t+HfmIpxQ8gmLcRXuVABwHYGpqPcLt96JfgJl6GZTv1ElBr6edOWMrjqO8r4Gn1XjS9PnkY7p1PZVoJz3y60zan52+Ct8170aeHuXZeCc8N2+9C+4F+GW6OlWEVvMDeix4eeQ/WL6AyrIIXzr8Mt/BrujbDPvNO9Is9FM85Kk1NJrcxx1kaPS/pt6/wfejtK9i1Kwaid6F33hp1fVbugpdWsngsLTS98zS5J6emFdA4z4xm9e7du+Hhhx+G733ve3DTTTepeWg8/8ADD8CNN96o+tHYn8ZzGD766CM1mDY3N1c30Gn96LbQ0LofGj2YK+8+EDk5IKB/ktaHDeD6p5iDg6fS497wU+3k4NgpD9BPs2sRZuPg4MllUfmovArsRA0dj4/XXX3foWgt9/MrosrJK6P5vvR5H9D+dAMD9el3fwTzKK35P4K9lYB+0T9oRvd48zbtHcYG2l+GBRuPKO8uFYHewaCksprjgoeOao8t40dhYxflsxA2HkIHB7ugh+J39cHBidmmAY1ODqgPfezYMXj00UcVyEuXLoUXXngBPv30UwX8f//3f8P69evVSPdtt90Gr7/+upqrVto5pz50xwGtKpOloblmXgB3vkYeS/j5HnhMjXRzzdwFd75Bnkv4ea2p40DzvrKexoo8lgzC3eGUFFU0PHbB2rdJS3MNjfAe1J5LnmPgztsEbygNzTVzF6z7pXZ08OEQP78SnlZODriGDiC4eafxXmKfX/bCBJzmo9q3vKy8l3BvJbaGfhn+igAJFsL9+4zrpxGusbWmdoGev+E97b5p26qoUWJa+lyiyc00c89A+D70gYcWmnRuhe3ohglfzji0Oeobr9gFg5u+bOJ8GR46zNwqNaEPPTWNLpgm1QDXI488omBetmwZPPvss2pqCvvYuI4bl34eOHBAzUXjSDea3GiaDw8Pw9Q0rvOOpq9q7UO3PdCRyT0Cj97IYLlxmx7lZtr5yrUHrGmrPWujPrfS0kw7X7lu0HJF9B/rusLKh1raBfque6L/b3xauySKgNZuiE589JJn6qrSoBgzvQlopp2vvv9Q6JII37Z68/6oHFpLc3DR5I7cEX3MAJ63/nB1QDPtjINkoRuikSl450ECLADU0jbQaHJPGX9sR+ABZoq/SK6IkoBO0c7aKlgIGw9G/tMGN0XlIKuha9NR20daE4DmfWhcPIKa+bnnnlMAI8TKV9ncJcDVYfgbtTgOhn3ta1+Dv/mbv8m1D91RQB9+dQNcSVoDtTSa3E0BmjUkbJFJHGga4bbBvvreg5A8KNZEoLnJHVToQ7cl0AFgX5pcD41apjc+o1thh+uCqMlA33nnnbB161YYGxtTWhvNce5TDAe+cEEJ9ptxKgunrrDvndegmABtHAZW0tBP8P7z0h3KaWAy0BfgtXsjTdoqoN9eH5VBmdzD78F94QBahVHuFgO9YOPR0OTmroi4k0CfhsYBL8uLaROAxuWe4xMTgItHcF55aGgI0MzGN6s4zPo7eiidUQtKTp48qeKPjIyIyR2QyX3C7is/Gq4Us8/H+9A98Fjo/TNLH3oM+Ag3mt0KaBzlxgGyj8aYx09bQy95FvvRvA/Np608GvoT3ldeAT81I99Z+tDz7j9s+tB8tLsL7n1nQnv8ZGY4mqnzH7CnrobCeWjeh14Fz5P75Ip96CpN7q7NsD90dcz60MFC2HCQ+RU7uBl6wkGxeB96Bxv5XrEzoQ+9sA8OGc+feY5yoxbGfjTNR+OKMXxBQ3v/jHv9xPP4P5nqaIrPshFunLoqbB+a+kb2cQH8y6tsYQkzu+142lTObZT7TTbnHHTB3W+OwXFn2iqWP85Npy799AE9DqdYPzqWZhBANaPc2H/GZbjkwnfv+njfk+cRLixhWpr/T9/9o9wZgB7l4JrujJm22r8xuWz+Ue5bYQd6+zzEFpCYUW6tqc0qMeqq4THnaSty5TuNUE9NA74HHbnyjQONTg0woKZWg2FVrOWuNA/d9iY3VZ7wSCPcsaWfXCNTnzf/eehX2OAYvrTx5EdJI9wBaM3sG+WupKHJfS/X1HRPFeahn7enmghmDrQG2za/Q/mqEW3ul5uPalMZKs1DVxgUw8ExPjCGkPF5aPc/BeOtsE1tNMCnrALAQTBy48u1NDe9x7nZ3UCgCewIZrv/jCY3wcyP1bxt1ZFAk9N98ctNYNO0Ffcr5puHdka5xdG+6k93kqP9eleKtaWGFqBtkGknDb+TwJRpKwFagGYLQVu2UkyAFqDF0b72ya0GxxiUYnJ713LTCrHo2Ll7W4mGpj60Orrz0LSvFR47YG8rMblpPTcdw2krWgJaq4MD2ayONqwLV4nh1BV7KYN2+ZTN6uxdLWVQTPa2ipztW29b2aa3vw8dLfV0d6DEkW0eaNqKH5PXckcj3QK09l6S6rGEbVMrQAvQArRsVhe+Olm4hSUyKGZr5vRRbtHQ0oe+zPIvxsbQrK8yyk2bvns8fuIG8GlrudXG79b70HqBibjxLbYbX/0yBi4ooZC8UowWl8jCkqZ4/ZRBMRkUsz1/Sh+6Rq+fWU3uR5cEECzZBu/RCDceZZTbvJxhD4jFl35OVnBwIINiU9MCtLLZ6/UpFgHN/Iip9by4lrgHlAvf4+dBgNbLP93RbfrNR7gFaJmHbmkfmnxzc48lhxHiG82bVgI0fKhcEMmgmAyKtfug2BPLIQgWwL+8Qj659RGB5kE0tGho9F4iQLc10Pvhn68K4Iq79kOlt63iQLuvUDqvT76+MXJhhCb81Rthj3FycPQN/q6z/u8/ZZRbbYkjC0tkYYnaf6cmv9yvPAhXBAvgn1E7/7o6Df2LtT3M6+d5eAwHza7eAHuMx0/0233DU7R+exDuvImA1h5LyIXvUXThu3QjCNB6YEyAFqBbArQa7eaj3MrLp3Hhq7RzF9z5OgHNjko7d8GaN7RP7qOn0OunTFvJtJWMctc/yl2Hhkagf8Fc92ovHOSTexQeu8l43Lhpu+XC98hJ9t/S7SBAR1NWCLVoaNHQtWvoX+upqur70Kb/jCY2aWmuoc2Wskc+GIQ7ad9nBrZ+fXIQ1tB/S3dEWlpWikVQy9tWwBeYkNshfoxWiYkLIsA56IeVQ/3l8Eg1fWjlKLAHIq+f5+F9L9DG1P4pbmsT7Z5hvQ9t/rvrDWN2C9AC9PScBTJBzUGm7wJ07G0rPdKtpq5ejQbGUuehX9NO+K9/it6DphHvqA99/b8OwpEPONDGle8bG+GGdYPK1EZz+6gCugcep360AC1AC9AANY1yM7h/fle0lU3olRL9cZv5aHfayu4/98BjXEO7U1YB88vtTlkFDGaEWoAWoAXo+oGuNG11mK/hpu/Uf+ZH039+H7UzaejQyb7W2JbJLaPcav5ZRrlllLv+UW6moQVo+71o8VgyY7aT5ftbyUoxdN3Lg/USNPvR0rXcODgmQAvQfF8r/M73tqJN62TppwAdm4cWk3sS7P2ho7lomYeWeeg65qFH1NSVaGhbO6MbIjG5RUOLX24cHJNBMWuzOvH6OQt57z5Jc9B4lHloNhBGzg1EQ4uGdvvP0ocGEA0tGjr0zc01M30Xv9xzMDE1B5OeIC6IzBB5fi6IolVih46PhAtKaGGJzEOLgwNxcGCPcMvuk+Tg4GT06qS8bRWNcMvbVtHiElq/zY+870zfpQ8tfWjZOUN2zpCdM8TkFpNbTO4ONLnfOXQannz2Z/B3/7gOHn96J+x7b0itIssTaOX8wDg3EJNbTG4cJJNBsQYNir29/yTc80A/XD3/y/Dd62+GJ55+Gd4Z/BgqAb0n5r2kgseSzEDvgBtDP+EmzaAHfvLRBVBb4NBRtsKBs+en4eyovf3NOfZ7RJna06CPM4AbvVOQaSuz6Ttbj12IaSsE+l/v74Pf+9z/gs9/4Q/g1tv+Dl546TX41eBHcPj4SOLOGQro0EngqFpgEnksiZwbhC6IMgD9yj1dgK9y3vi0vbfVk8u6YO1bOQP9/AoIghXwU7PFbN0rxV5YCUGwEp4b1rtm4NSVTFvJtBVrL/xf65m2QvP6Vwd1eOfgacDfr779Pty1bhPMv2YhLF/eA3euWQu33f4P8NN//znsf3+oSqD165LKxGZufDOZ3E9rLyd3vTkGTdmsToAGV0vLyxmTaln15Ys3WG9Yte3bVnfcuR5W/+0aFW7/2zWAYdVtfw9/8o3/A9dc0wV9fX0wMLBLQX3HP6+Dp57fVRPQR97QPrrRda+loZW3EjKju0C5IVIODgbhrnkBXHXPoIK5ItDPoHaldPC4Ap76+ALQ7pNPLQsgWPYSvH6f1vg6bqSNf/pX/Fp9/dNDej33m/fzawJY9rzePeMtdb4L7v2V/o3b37y9HuOuhGU3u+lpTS0aWjS0Xy2zs/Vo6K9d9024at6XozD/y3DFH10Dl//e/4QvfekKeOSRR+DgwYPw/x57HFbeuhru27ClNqBPal/cV64bjIBGAI3ZjW58/3MdwtAFSiO/iY74zXfjwSRpO9nX7tXXrX1bbyH7m48vgAKYoD5NvwO4+r6DZsrqEKybF0DwVzuB9oM+5dHQGuYV8LTZBufDX26CeUEE9TMI7s071YZ1H7+D/3XBve/ojetOi8kN45N6jytZy82ArfS1HqCfeOZn8MiT21V49Mnt8OhPtkPfvz0NN69YDV/p/iqsX78eHn/iCbj1r1fD+o1b4Bev7q8RaO390wL66o3wH+hTLPRYMgh3XW20cmagX4IlQQBLnrkAJ6xBMX3+6nsPwgcE9LyH4PXTF6I56OfsPnMc6J2wNOiCe36JmlpPWeGRQ/zRrwzEvzoM984PYN76w9HSTwFagK4Er+//eoDef2QY9h85o8KBI2fgwNEz8Oa7J2DtfX3wxf99JfzJn/wprP7B38Hae38EO3f/Eg4eO1sj0NFuGZbJbQE9Bo8vRa29A36dFei3HoKrAzNAZgFttPKylyKgzfeTp8c11JWANtrYNuWNKT1/E7z1KTe9Awjmb4K3z0TbyoqGjnagFA3tIzfhXD1A+962wlHutff3wed+/wvwh1+8Ev72jn+FX7x6AAaPDtswO/tD+0e5jddP1YeORrqTBsVCoD/UU1UV+9ANBzquoWn72PD4PI5mC9AXJmYBwzgFY26j2S1AJ8DrO5030HsPnIIHNj0KX//jb8EP//5u+Nmed9Xikkzz0LFpKwTaONtnjvb9QNsQP4HaOuiBJ1L70Okm903PXqhdQw+hyR3A0udtkzsEWWnonbAM+81iciuYBeiI0LbxKbbv/SFlXvc/8hzs2PU2oCmu3rgiT5/8yLx9ejU0ufNlU1ahyR0EcJXxz42DYko7o0vf0I2vHummgTI+KMbnoRMHxbDPjCPd1IeuZHL/cpMy39f9Ur8bjfPQT6vRb9TSUR/6rftXmpFt3W8OB8VUn5kNir37I5gXLIT73pV5aNHQEegVv+WtofHVSexL45LPwaNno9coOcj03QXamjpCDRuZ2QgyBdLQjyktTFM8xj93CLSef6bFJVZfdtkOa5WYhprSCSCY9xC85pm2QrgT+9CfjEM0fYUj23raSkPN0jaj2mpwLFgJz5i+NE5bPaumq1bCs2cmABeSPHcLXSfTViHUnnehZeknw7wRQMv70BrmaLVYpKFtk1sPjOE5BJoHcmrAjzIPLfPQDF3/VwHaLAF1RrlxPpoWlqBmphBqaBztNss8w7lo9juCOa0PLUDTYBgdZVBMc9o2fWjUzqKhRUOLTzHxKQbvi0+x0OzmpjZ9F5NbTG6/nc3OisktJrd6bRJfnZTXJ2F27lIY5i5eAjdcvHjJ8lZy8dIluHTJvDqJR8ZWIV6fFJM7mraK+tEyKCZb4cS9lYiTQHESaL0TPXTW9lYiTgIjzyXcOSB9J8eA/ChOAsVJYDQXzUa13ZHuSDvLKDdpZ/EpFtfSzEK3vsooN272Lhu+R5u9n5uCT0em4IwThkemQIXzUzBsgvShaUucqP+MfWm3/4y/pQ99/HympZ9qhFtGuWWUW17OUJpaNLRoaJA+tPShlc8jnLo6NTQO+4+eU+HA0XNw4FgUBo+NQBikDy19aHG0b01dybSV5+UMMbllLbe8PhmNi4nJLSa3mNzTYnKLyS2O9vUKMVkpFq4Qo9ViMsptXsyQlzPk5Qx5OUNezpCXM9g70fRCBj/KyxnyckbUy074Ji9nyMsZsrBEFpYA9/iJ3w9hEJM7dLwvSz9nQLbC6bCtcDjUArR+y4rWdAvQArS8PilLP2Xppyz9lKWf6qUMmYeWeWiZhwaZh5Z5aJmHnpNBMRkUE6+fMDI2EwZ3b2iZh5Z5aJmHlnlo2dvKTC/XvZb75MmTsG/fPgkiA6kDOdWB06dPqy7t5Ys3APoP84WE5SFQN9BjFyZgdGxSgshA6kBOdWBysoXz0Lh30MjotASRgdSBnOoAal9cidkSDS1AS2MmDXq+dUCAzqlllIqZb8UUedYmTwFagBZzt0B1QIAu0MMUrVabViuS3ARoAVo0dIHqgABdoIdZJE0j91KbtSFAC9CioQtUBwToAj1M0Wq1abUiyU2AFqBFQxeoDhQW6NGxqbaqqPs3LoQgWAXbKlWe7asgCBbCg4OibYqkOZt1L4UEGmEeHx+vDWgFVABB4IYIxsxwMngzXyNA1/bcmKybBU875lM4oAnmiYmJ2ipGBqAyw8kqWeZrMuTfjhVJytQeFlWhgCaYh4eHoZFA11J5Bej2qPC1PLtOuqYwQONrmGhmDwwMwJYtWwRoZh10UoWUstbX8BUC6LELUwpghHnhwoXQ39/fUKD92nYAllv97qjPjZU08zVek/sIPNhl9+kXbDxSW5dCQC+03DoeaBfma665pvlAD26GBQhzz0BYWbb1IIAR1DGgPdeM0DlrlNvA3LUZ9hOMg5thuQAdylq0eqTVOxpoH8z5AG1rQzXizWB14VTwcuAUeFpjkybNdg1pcj5tpdNZvj16aFKBRRZJdaBjgU6COR+gOVDxymPDaYMbCdpoVtMQZLtmGkZiJjeZ2+llivKNl1f+K49MOhLoNJibDnRoJnu0OjPDLaDNNV6tGwNaV0Ztwus8SOsLqOUBNeuz7jigK8HcdKBHs5nEFtDmGi+YCUCHD1T9b/fXw/+ojy3H0vavOwroLDA3H2jbtE6CywY6+RqtidPNa5VWrM8u2ipJ9mU63zFAE8y4YCRrqOlBVtKQvikoozVdjbutJwLTBpr6ygFY15D2tUa5B2A5G5AbGU1uDGq6X9HmhdLmHQT0JIxdqC7UVMFrARqh8PWlGYgxoPGaEGDT/8b4sfy1SW+tLWfp1nSPAnGhIOZ1oGOA5oWW72JeSx3w1wEBWrRVYbVVGaEXoAVoAbpAdUCALtDDLKNGknu2TW8BWoAWDV2gOiBAF+hhiraytVUZ5SFAC9CioQtUBwToAj3MMmokuWfbKhGgBWjR0AWqAwJ0gR6maCtbW5VRHgK0AC0aukB1oKVAz81dglkJIgOpA7nVgZYCjZnLRyQgEshXAn17AS5fvAE+85nLvCEptyDpj0rnMUMMrf6cP38eagmtLrfkLxJIk0ApgUaQT548CX19fVUFvAavlY9IoF0lUDqgCebFixcDejipJuA1AnW7VmUpF0qglECjZkaQh4aGMpvdGBevwWtFSws87SqBUgONYFYTBOh2rcZSLpKAAF0F1GUE+kR/NwTd/XCCaowc21oCArQBOljSB77ANXjDgd7d69mbWvsc693dmnrUlkCTnFIamt29QSkbIgHaAP3EWyPgC80Huhv6XXV4oh+61WZ4vVAb17uhNwiglkahrYEOAuiOCUs3fAJ0SeahEVAaFOOwZvneHA3tAVrV0RPQ312r1iki0N3Q29sNQeCXlwBdcqB95jae46C3FmgAMKZm9Zq2mED3n0hu5ATokgPtM7fxXFsBDRrMwCLaVGq+PzXrW6qKzf/D7+H16deiYRCZ3CbvMC2f+V85PYB4nLjZXCEv1bAZzZzQyPmBjuftDviF9xt2c/QYBpVR/R/KIKkbU6H8DRwOkT50O41y84rqfeimQjJgUWtTZdOX+KDX50KOKe0M1+oK3g3dAQeYwODntAWRXhZP+U/0Qy/vBxNIrLC6UWJ5OXKK/a+K4umeZL1fBJbJmCDu7u5mjaFp7FyTP0v5Sf4NOArQVQC9aNEi2LNnj6W1SYPn8khDFMEAACAASURBVGycihpP0wNEPBLTqvRnAtD0NzuGGsqc05XZ10/VadoAs4T49SEclcvh16xOXjE56f8jywN7JzaU8ZLpM9nuN6EBMxYTa3sS8nXKn1SYHM6XEuitW7eqVV8PP/yYAhQhrRTwGlr2eejQIcDfeM2xY8dCwOt+HrGK6qZoKhavQSaK1lJmWx1lEjKN5ql4POW0azXQPC26spayEBi+BgLTTar4Tl4+OalzkQmcBnTF+w0boEr36pbX/V3pevo/v2MpgUatumnTpqrWcSO8uPxzyZIlseswrVw0ta+iWs86XmE0cLxfTKYgh1Bf57YDWa51NVhUHAcy6m9jY8Iy8jUIHChLw5O5yvqo1r5elK5XTqY8BkYf0LXfb/xetRyc55G1/JEQc/9WOqBRggRftUdqBPCImhk19R133KEAx++YXl0fb0VlKbr/mwpE9ZxixiHyAJ3x2sxAZ0yPyqiO6n54A+App3WB+eHKgeKYMmAjEQM6Y/n895sR6AqWEBWzkcdSAo0CrRZmjI/aGd+44tci2DidhSZ4Q4FmlTWsEN5KaiqfNYjlASXjtbpx8JjI7vXub1VIX1nC0usY1tLSJHDsa/T0nadMoZXQDd3unH3G8tUHdMbyO7eT58/SAl2NEAlgNLv37t1rAY3/IcyN1NAaKt+qKA1q3MTFvjQ3uX0VLdu1lLednrnW6mtmSW839FrmhKdcRmtbprgatWYAJ2lo9VBNms5INfXPK8mqPqD1SD92E1LLX03lqzKuAJ1BYAQ0auKkkMtrlWSCun1ICxynwEbzUF8TK5KGkAMdVTQVj6DKcG1Ywd2yURq8OBXTM9Dz+8uQjlVmzC8VaPrfM8pdsXx83t26Mb1KL1ZWfT8uvODkEys/Tzrn7wJ0BoH6gEZtvWbNmhDwXIDOUBaJIhJIk4AAnSYd858PaDyHUJPGFqAzCFKiNFwCAnQGEfuAJpDpKEBnEKREabgEBOgMIiagEdqkQINlGZKTKCKBhklAgM4gWgI6yzFDchJFJNAwCQjQDROtJCwSaL4EBOjmy1xyFAk0TAICdMNEKwmLBJovgZYBPTN7ESan5iSIDKQO5FQHsPloGdATk3OylWmBtjIt437M7XbPArQAJY1qgeqAAF2gh9lu2kLKM930xlKAFqCbXukE9MaBLkAL0AJ0geqAAF2ghymar3Gar1NkK0AL0KKhC1QHBOgCPcxO0SJSzsZZEgK0AC0aukB1QIAu0MMUzdc4zdcpsi0s0KNjU6J5pLEqXR0oJNAI8/j4eG0Pc/sq74brCzYeqS29NoZq/8aFEASrYFsbl7FTNGO7lLNwQBPMExMTtQGogF4IDw4y821wMyxAL5U9A7Wl2XJgBmB5EMDy7eyeRqdBgLbl0S5Q1lOOQgFNMA8PD0OuQIeV3wG95aBmrZB+oOupOHJtVtk3N15hgB4dm1Rm9sDAAGzZsiV3oEeMlna1XGdUbAG6M55T/fAXAuixC1MKYIR54cKF0N/f33CglbnatRn2kzkecO19BB7s4rtA+s31MI1RDRw5yk/u16bHC9NjZVrgloN1Hfwmd3oeI6Pxeyvi+EKnNgAdD7QLM7rUbQTQbuXX8CyEBQg1N70JJqu/bSBx4oZpWANTBIwzWOVJd1sPNhpRvDA9J58R02C41oV7T2SF8LECOw9TNp7+4GZYXsABQwEam4aMH/SogKFeBwc+mBsCtBn55ppIw8C1sjaXFAC8whPsBkgOVVIaBCDPz5+ubigoXqX0eN5YYV2gK+eh83PT6dTKX8RyI4Id6bEkCeZ8gHbMZcuc1uC6MOjKYQNmVxij3Zjm9qeB6btxk9K14yWn5wfRjp8lD5OfRx72vdbfF5T0apNhRwKdBnM+QMc1r1vBFAyuJvZo4eg6Gz48701DaXQnLpnbfIM3/t00EsnpZQA6Yx5Ybm2G60aPrIPoPmuriHJ9PnLrOKArwdxSoE1f1V/JHUirATqhD+xCUBfQGfOw8qRFOMzqsP6n7oYcm7Z+oaOAzgJza4E20LqaGyu0R3srAH3mayxuvDHwgVMf0NnycPNNzjMfjePmJ7/T5doxQBPMuGAka6jp4ftWink0TGJFJtPV0lra5OWjx1g2DbQ9Uk0DYoHbKHgG5jCNbT1R9yCxTLE+ua4UOv9olHykYh4DsNy6r9oagZqei+cZSDpxuDsI6EkYu1BdqOmB1wu0qngGYNbP9ZnhIYDUCFB8Cxr20Nx4GJ/FDdPzVX4Dq5rrNtfEgMbrUvOI3xfPvyZ5+8oq52o20TsG6CJWllQApVLXXKmLWFey3pMA3UJwBGhmfbTwOWSFpRPiCdAtrEgCtACddyMhQAvQYtq2sA4I0AUSft4PU9ITjS8aWhoI0dAFqgMCdIEepmho0dACtAAtGrpAdUCALtDDFA0tGlqAFqBFQxeoDgjQBXqYoqFFQ7cU6Lm5SzArQWQgdSC3OtBSoDFz+YgERAL5SqBlLojyvQ1JTSQgEkAJCNAZ6sH58+eBQoboEkUk0DIJCNAJoieAk44Jl8lpkUBLJSBAe8RPEO/ZswfWrFkDS5YsgcWLF6tjX18fDA0Nicb2yE1OtV4CArTzDBBmBBZBRh9lbti0aVMIM4HvJCE/RQItk4AAzURPgK5evToGMoLtgxmvKcrnRH83BN39cKIoN1TC+xCg2UNHOB9++LGqYKZGgCVT+9fdvd79qXt3155kNVdWDXSLy1vNveURV8kn6IUmPY6aiixAG7ERmK6JnaaZEX4MuWlpBUg39DMVqStRAM2AOjvQu6FXOTWMV25Mo7qy6rSqu6amul73RQK0R4TYgmBotw9CeejQoZh2TjKzSZOjeU6NQd335AEa4AT0dwcQNKHGZwM67/J0DtB1P98mJCAa2ggZody6dWsMaNLABC0eCWbU3tdee21zgG5C3zYL0PlrKQE6T84FaAY0TlP5TG4ONYe5OUDrCt/N7XBVZqMpyZ83HhO1eLa4PqB39+p9rHT+1WpnT76sYaK0o72x3XvQ9x79HzfxATxxvJYOCs1THo/MQjmc6IduJV/dDfI3Zp78LULjecafpXVBXT8EaCM+1LzHjh3zAo3gIsguzHi+0Sa3rvRORaaKZlVGU7EYMOrWqogbVmQjE50369ObtDJXyN29YMc1ZfSU2zqF+XvKHZOFJw6EA3Ws3AnphY2BIzMth27o9p3ng2Ke/O0yGph5Oif6oTfWOBuB53AQoAFCk/mOO+5IBNqnufEcLjTBxiCXT1gZ7S1t3cquKg2vJJS5qWA8fjVxOdBaG/mh4OlT1lmPPA99jYbcTdNfbh2XGgl/HGwLuiEI7LInxaWGg+fvux7Lqs9Hjas/TV5G/71llVUt8UoPNPWNa4EZV4/R9bUIP3aN11TUlSKaH+YVxk3BaISwdlYT11TY7n7Y7QFC5eRpMNwS+H6ris+7BlzLGZM5LLJKIKnc/P6S4gBoLc2BTolLZjgrgAsu3ZN9PilNXkbz3WlcKL1GHEsNNMFYC8w4GIaj4rlpZ3y6XqDpvJm6SoWKV6bIbGV1ldUhJ26ogXifmUVXX5MqsRtP/9YA2P1iGwqMp9O0ykimrNUIMKsFI6fJwZVjWtwkoD0WkFX2LGU0YuENGlkXfonVf7a0QNcDM/abT548ma92VnUbF5ZwzWIesKk8ujKkQeVCWk3cSEOfMKa/r/LpyhmZnYlVMAEiCwp1sQdoH+RuRpZMnD9doE16vvsJB8pYi6LKWAnoLGV0ihX271lebpR6f5cS6Kww40sZOPKN01nYV8bvOHBG19cr/Nj1sYpoYhjAdD0w0HoqXFxrVROXAY3ZJkFNmqlSpfQCbcpT0eR2G6aYpNCeSJyf140ObxjrkAPL2m6MkvNnl8S+JjUWsYg1nigd0ARj0ssXNPiFMPO3qug6OtYo7/TLvEBrDWZNSXmh8sTD3KqI61Y2XYEDZ6Q6gj3q10e3hTBp1uPlofQCC+gEMBIalN29DFRfHHMuZunUIQe6O11+Zp348lfioTLuhl6r4Uu4V8ogh2MpgfatCCOQ8chhzkHG2ZMIKyPrLwYeoFSKBhjWz/SblBg5W1wXaLwyhDBmEZjKyfLX88WswhNEJg6WLwaFKh5bw84BcK5X6fP/3WsxH/xfyZGgwkj0qV0OmIK37KlljOdnNcxUrByPpQTatyKMgG4ZzDk+1NInpYBmDUuJBFJKoPfu3eudbxaYi1HzVR86ZlEU494q3UUpgcZ+sNuHxpFr6jNXEpr83x4SQBPYtcC1Wewzt9ujzI0uRemARoHSwBaOWtPoNZ1rtMAl/Rwl4B1zKKepTVItJdB48wQwP5JQ5CgS6FQJlBboTn1gUm6RQJoEBOg06ch/IoEOk4AA3WEPTIorEkiTgACdJh35TyTQYRIQoDM8MBk4yyAkidIWEhCgEx4Dh9j3PeEyOS0SaKkEBGiP+AlgnKeWrXA8ApJTbSsBAdp5NAizbIXjCEV+dowEBGj2qEgz4zJQelmDH5N8dLMk5KtIoKUSEKCZ+BFon2dPhDoJZmoEWDId+1Wtgy7pSw0d+9CcggvQRiAEJtfI9D0JZnLti9fm8vGuTSaHAbnkkJqIAJ0qno74U4A2jwmh9Dk+SIMZgW+0X2799lBzoBagO4LZ1EIK0Axon+MD1MKkvenIzfKmbYXjvieY+lhr+1OArk1u7XSVAG2eBsKK01RkZvMjh5rDjHGaBnQT+rYCdDuhWVtZBGgGdDtuhUP+wOL+wjw+vRK1eLa4PqC1B03u1yyeVrxstVVGuap+CQjQ7N3oWhzu578Vju1tQwPlvLRPjuksgI1DOleTVxHXBVrnzctjYOZ5NHivpvqreLlSKD3Q1C+uBebGbIVje/xET5cWt8pNbAA+F7rkspfHT/SvZUDncTnQ6nvM6b9uNPg15cKl/e+21EDXA3PztsJxNa/+7TdzjQYNiasmbuRoP3FvK3JuHwO9/St6WUpYWqDrgbnpW+GY+WnFqUezRpXVAbqauKHf6bS9rXRO1K9G68HfsEQlkm/NlUApgc4KM7r1xZHvlm+FY8DU8FSjdauJG2notL2trOpJC2FCi8D6V360QAKlA5pgdt348mkq/M59dNM1/NiQZ6UA4YNQJheuocns5QNTVJiYRvYMYiXGZUBjHJNnJQ3M+92UtBxbJ4FSAu1bEcaB5jA39dF4gdZa1tpCxYBrnaPtblxtWUVcF049MMbN6ubv1dRU+Rcgs1IC7VsRRkC3DGasTEYr6j2iotFuv5Y0oLO9pfzxVMLQy+Il9X1doPFKglqPqsfztBuVAhDR4bdQSqBlK5wOr7VS/EQJlBJo7Au7fWjZCiexjsgfHSSB0gGNz4YGt2QrnA6qqVLUTBIoJdAcaoIbj/IRCXS6BEoLdKc/OCm/SMAnAQHaJxU5JxLoUAkI0B364KTYIgGfBARon1TknEigQyUgQHfog5NiiwR8EhCgfVJxzslIuCMQ+dm2EhCgEx4Nh9j3PeEyOS0SaKkEBGiP+Alg2dvKIxw51dYSEKCdx4Mwy95WjlDkZ8dIQIBmj4o0s+xtxYQiXztKAgI0e1wItOt3m16rTNpBgxoBlkxbfdWvPzpeQ30l9L6L7YvYvHO+1zmbl3tn5iRAm+dGYBLA/JgEM8JPTvjze/yed47rcMpXF9AJ72e7PhTyu3c7JQHalkeWXwK0kRIC7fNkkgYzQp//3lbcQ4gu3In+Xug/keVxxuPUD7TtEkmnF3ctHM+5/jMCdPUyFKCNzBBonycT0sCkwfHIzfL8tsJxPHZW/yy9V+QNNJBPsyaoaQHa+0hTTwrQRjwIamv3tvL4Dkt9dNn+bBjQPieF2YqUOZYAnVlUYUQB2ogCgW713lbxrWfC5+T5YjQ69xXm0Zp+oN1+ei/s9g2K+c4ZZ4Rx/2XZyqNvJFtcH9DkEzzKP55W9J9HbAU/JUAzDya1bIeT695W5LkTIfXAGdbFNE+ejuaMAe27ls65g28eoDVQzqg5XW+V2TQaTnloux77/vxxXaDjDZ6BmedR8r22Sg809Y1rgTn3va0MsaSFkrxzqv95JSbSDVicKxfopGt1PHsALMkLKU8fs05Kk+Dl8auJy4H2ls80gDx9EkVZj6UGuh6YG7K3lVMLVeVHbW3Bq7WZ36w0GovVcBvolGs92lgD7UBOVkRYppQ0YwNo1cSNHP/LXltOxUj5WVqg64G5YXtb+R6UAo1NZXm0cHRZBaDTrs0MdOQ/XLUbaWm6QFcTl/sEr7CHVtjwVYgXyam430oJdFaYm763lbeeuZDWoOUC6vOmXFsN0AZMbSWkpOkCnTighjfu3mekoWWvLW/F8J4sHdAEs+uXm68Mw+98Bw26hh+90mzISbeim9+hycsy9WhA2+R204qu1VrOMa99kOMlxmrQln015akmLgOa5envakT3wfvd0dnyfCsl0L4VYRxoDnPzqgJqOtKkUa5e0Ay43pFi1n/GVGygIxgtMAygQYZRbqA+NM+nivLQQFnmsrOGS98L635gWXg5PFo+kmQ5vpUSaN+KMAK6NTBjZdOmq7uvlT0gxitlPL4FqYkaA1pl1QtWPgiFTxuHoEf7bCWNvPvK7yuPLlYVZWdA47UEtey1ZR6wcygl0LK3lVML5GdhJFBKoLEv7PahZW+rwtTpUt9I6YDGp02DW7K3VanrfiFvvpRAc6gJbjzKRyTQ6RIoLdCd/uCk/CIBnwQEaJ9U5JxIoEMlIEB36IOTYosEfBIQoH1SkXMigQ6VgADdoQ9Oii0S8ElAgPZJxTknI+GOQORn20pAgE54NBxi3/eEy+S0SKClEhCgPeIngGVvK49w5FRbS0CAdh4Pwix7WzlCkZ8dIwEBmj0q0syytxUTinztKAkI0OxxIdDciT69UonHpB00qBFgydT81fuqI0ut0v8sqnwtqQQEaPPgCUwOMX1Pghnhp5018qg/lYCt9H8eZZA0OlsCArR5fgi0z5NJGswIfJ57W1UCttL/nV0VpfR5SECAZkD7PJmQBiYNjkdulue3txV544i7IaIHLUCTJOSYJAEB2kgGQW3t3la1AG2c7rHtcOJuf1x3P3aDoRoJdPNDfsFCv2JZ0k6qVnK+VRIQoBnQrd7bqpIGtv/3eNB0t4EhSJkjPe10MIJaA90N3Zbvrgxpt6rGSr6pEhCgmQeTWrbDyXNvKxvY+HOz/9eal7Eau0DBa4GKUfR1pMl1mo77XhMnLe1YZnKiLSRQeqCpb1wLzHnvbWUDG68f9v9kErsw0nU2uHTWdWhvp0mxKqVN8eTYbhIoNdD1wNyIva38cEVVRv3vaFxtQms3u6R11RVkbrP+dcx1L7nFddKkHBPTpghybDsJlBboemBu2N5WPt/YrMoowJLsYPKhHf5f2STHpH2NBMtSf42lHYshJ9pEAqUEOivMzd/bKslMxtqS9p+uTTacxmwOAffXOPsafxw8mzVecgryTzMkUDqgCWbXLzetCqMj30GDruHHRj0cBU4QgM2hZ9QZAbcieQA2mtUyxdVuOFG/2w9qhrQbJQBJty4JlBJo34owAhmPHOa6pFvrxWTi8v6vBS8mrDW2r19sZevrS7O0EoHmeeN3do2VvvxoKwmUEmjfijACuuUwt1X1kMJ0mgRKCbTsbdVp1VTKm1UCpQQa+8JuH1r2tspaZSReO0ugdEDjw6DBLdnbqp2rppStFgmUEmgONcGNR/mIBDpdAqUFutMfnJRfJOCTgADtk4qcEwl0qAQE6A59cFJskYBPAgK0TypyTiTQoRJoGdATk3MwMjotQWQgdSCnOoBtkACdkzClcZLGudV1QIAWmEU7FqgOCNAFepit1g6Sf+stFAFagBYNXaA6IEAX6GGKhmy9hmz1MxCgBWjR0AWqAwJ0gR5mq7WD5N96C0GAFqBFQxeoDgjQBXqYoiFbryFb/QwKC/To2FTHaZ79GxdC0LUZ9jejkdm+CoJgITw4KBC0GsI88y8k0Ajz+Ph4bUCrih5kAksBGASwYOOR2vJywBWgpXGpF+7CAU0wT0xM1AYZAR0EsHx7WgUbgOXGK2b1QOtr3fQF6DR5y39ZYC8U0ATz8PAw1Af0QljQFUDQM5DcKBiTFeMJ0AJbFtiaEacwQI+OTSoze2BgALZs2VI30A9uTOtjHoEHFciblZYWoAXoZsCaJY9CAD12YUoBjDAvXLgQ+vv76wd6UJvFXljDAaWkOJE5rp3gr4Jtpr+8rUdvKmc5xzeWQGRyO9d7LQXdqPjSiT94J71gFWwL74HDGE/Te/9O3z+eH09TvjdTPh0PtAszOsvPB+hp0INeEYz0YBSUCjIP0IObYQH2rRmEGmKejr7O24dW/XIW16RngeXJY2TUQOuOkvvi0jlrlNvAzK8f3AzLcxrwI9nJsbENXEcD7YM5T6AJEgs8A4M+FwdawcuhUNrMjZcGdHwqyU3T/R1CYpVNV5ykuLqx4nn5yxSmLVo5eTyljWTTsUAnwZwv0NPgAhGZxQiMH1RLm6qHbbRfqLX98NhpRy25bSm4eUbxRkb9+cTLMw0jMZObzG0OOU9bvndC49aRQKfBnDfQI5bWc0F04ApNWU8/2TLD3XQ0LJmAtsrjQuYAnRY3BrROSzVgNU/HueWR381uBDoO6Eow5w4003q2psTK6gBtflsmutccqwPoWJ4cGgfotLgJQIcVUP1vjwWE/3nviZdDvrdKVh0FdBaY8wc6Mk/jc84u0C5QSRW7HqBNHrF++jTY1gTmnVwerYnTzeski6FVlVXyTapP0fmOAZpgxgUjWUNNFcCruQwY1qgwCtEFmuCPLzbZ1sPh8YOWBFDMMiDTPuyTR2Xho+vq/o2mtfrRpH2t+xmA5VZ6/jLWJFPR6E0bUOsgoCdh7EJ1oabK5wXaTGFZFT6CyIIFKy8BZ/qiaq7YvTaEKjJrMwOtANGNCZ+HjpWDQOJ5UV8+dp/x9GKNA6Unx6YBWm0d7higq70xiR+ZYSKL8shCgBZt07baRhqi6hsiAVqAFqALVAcE6AI9TNFo1Wu0oslMgBagRUMXqA4I0AV6mEXTNnI/1VscArQALRq6QHVAgC7QwxSNVr1GK5rMBGgBWjR0geqAAF2gh1k0bSP3U73FIUAL0KKhC1QHWgr03NwlmJUgMpA6kFsdaCnQmLl8RAIigXwl0LcX4PLFG+Azn7nMG5JyC5L+qHQeM8TQjp/z58+3Y7GkTCKBzBIQoAEAQXZDZglKRJFAG0mg1EBziE+ePAl9fXth7969Ftxt9KykKCKBihIoJdAxkJfshSWf74O9fXuhb0kf9C3ZC8eOHROwK1YfidBuEigd0ASz0sgM5KGhIQUwHvfs2ROCjfHomnZ7eFIekYArgVICfejQIaWRURNzYAlcPCLYqLFRcxPsrvDkd20S2N1Lro57YXdtSchVCRIoJdDYTybTGqFGwJNgRqAJ+gQZNuR0VOmp8gfQ3X8iv7x29wL3SUbfextMmLqv7n7gd3KivxuCoDVwtzLv/B5mlFKJgd6rNG9oXvdpbR3B3qcGyFBLNxVoAs2p9AC7oRed/MXORw8z2zeTjgcgrNyNBVrn7TZMrYSqlXlne17VxSo10KSVybxGrU2DY2RmNxXoE/3QjdAmUmVgTPy/0sM/Af3daelXur7e//1A15uqXB9JQIBmc9AILwYCHY/NBFqb2RVMT6XBu6EW67v12kiAjtBrzDcBum2Azqp941AoUJUpbtIgn+CWJq9FO5trKL0E6yFL/roxicYDsM9Opre/oXHuBbsIscYs+Z7cvnpYRrKCAt0ounmH8aiLQ/duyZJgzFJGitucY2mBRtP67bffjmljrqGx78xHwhv6SExF89YbK+N4JdaVEmFh2t2kR9CA+9tK0/ODKr5VIFOBnX58pvxVFvr6sEwmWxcqKqvV9aCxBQOivjQuC7oTP9Dd0O0teyS3zPfik4+3jFSi5hxLCTSa0ggzQo2rw2jQi5vcNDiGg2Zkgjf0kZgKYvHjzTBeiXUljJvhVqXOnL7O1LqWl8OTTqb8VRrZgE7KO55PXBZUVDeN+LU6pj7vAl1BlgDgpk/5JuVD/zf6WDqgUaAEKB4RaBwMQ8ARaLX805zjq8XcB0FpuOdr/u0BxZ9WvBKrSuRoHrzWqqyZ08cr/eDp8tSYv7rYn65VzrS86zW5uQWjb8aWEcmskiyrKqPJqEmHUgJNsiUoaaEJamyltZfYA2MUn450HR3pfH1HXdktM9ObYByKTECnVUI3n1T4Gwx0Wt71Al0RVNMIVopXVRld4Tb2d6mBRtESlHhEDZ3FxFZx2UsceT0iZcZ5tIiVfqxSZ6yEZCZWSl9lFm80ojI0B2i3n62LhYthbHNYyczTT3FN4myNXkZZGqCzljGSXeO/lR5oEjEHG7/zj/sf/l6zZk3szSz3Op5Gpu9pFUUl4NfiWSurd7DJWzADrUdTURqcocz5J1gJ6vqwoYk3GFRE3eB5gI6V08iJnc9axmzxqisjlb8ZRwGaSZnAZafUVzrPj4sWLYK+vj5Lw9cNNOZGI6WcGDxvYPetFMtWCc1dUfqsspt/1EBPmC3lF55QhdOr1axzGbWaysSv+W2gIxlYGpDK7WhokhePq8G3V9VllVHWeL586ZxrRZB8m3EUoDNImUDeunUrXHPNNbGwZMmS8HXLDMlliGI0AM2BmqPDUZhO5koYXaFXjDnpW9NeKq7RdCweB4eSy55/RqAx4RBgM3eNN6/O2Roao6r8WRl11AYDXWUZSVaNPgrQGSVMUOMA2uLFi0Oo0fSmZaK5aOiM5SllNAV0NMXUljJocRkF6CpqBUGNGpk09cMPP6bM7iqSkag1SsAd6KoxmYZe1uoyCtBVPF4EGuemycRGE3z16tVhP7qKpCRqigTQhHa7F9qsjpvbKck09K92LaMAXcVjJ6BJU+ORv0tdRVISNU0Cbv9Z9Y/bzNRu0zIK0GkVi/3HQsIRFAAAAvVJREFUIcbv+PGdY5fIV5FA0yUgQDdd5JKhSKBxEhCgGydbSVkk0HQJCNBNF7lkKBJonASaDvTWwwB37GncDUnKIoEySwDZ+t0/vt27rxXud5X0qXlvq70fAix5MSlZOS8SEAnUIwFk63eu+U7zgP5wFODaJ+opslwrEhAJJEkA2brs8/ObBzQW5NvPALx3JqlIcl4kIBKoRQLI1B+tP5kIc0NMbiwodtwxyEckIBLITwLI1O9fv6n5QJ8Z12b39Fx+NyMpiQTKLAFkaf6Px+C3fv9LzQcaBX/v6wCP7yvzI5B7FwnkJwFk6Q9W/CQV5ssv/2xihjWPclOKqKW/++8AOEgmH5GASKB2CSBD1zx0Gi777BdSgf76169LzKRuoDHlfaf1FJaY3olylj9EAqkSQHb++OFz8NtXXJcKc9qAGGaQC9CY0MtHAZbvABCoU5+b/CkSiElgdFqz87k/va0izE0DGku5+7iY37GnJSdEAikSOH4O4Gv9n8LvfX1FJpjTzG3MJjcNTWXGObQ/e0oPlmHLIx+RgEggLgEce8IB5T/a8An81h92Z4K5knbGXHIHGhNFsxtH63C1yw92AeC6b4E7/lDlTLkkgAwgC8jEVT8agc99Z21mkBHmlStXVRRYQ4CmXPEGsG+NC82/+KNJ+HyfXl2G61QliAzKUgdwRSXWfWTgi7e/BL977Sq47Hc+WxXMX/lKN2GVemwo0Dzn1av1myM4ioeLziWIDMpSB7KMXKMGTgrz5s3nKKV+bxrQVIqkQsv55AcqsimvbBYt+iahk+nYdKCxVGg+SCUtbyWVZ1/52aetBksjuyVAU4FwCF4ebuWHKzIqj4y+9KUvER41HVsKtFtiHMX7znf+rwSRQanqgMtBPb/bCuh6bkSuFQmIBBo0Dy2CFQmIBFojAdHQrZG75CoSaIgEBOiGiFUSFQm0RgICdGvkLrmKBBoiAQG6IWKVREUCrZGAAN0auUuuIoGGSECAbohYJVGRQGsk8P8BvcK9aO2/gAMAAAAASUVORK5CYII=;" vertex="1" parent="1">
          <mxGeometry x="-500" y="-624" width="252.74" height="434" as="geometry" />
        </mxCell>
        <mxCell id="EXiGh36RY0hB33X0RfPo-4" value="" style="shape=image;verticalLabelPosition=bottom;labelBackgroundColor=#ffffff;verticalAlign=top;aspect=fixed;imageAspect=0;image=data:image/png,iVBORw0KGgoAAAANSUhEUgAAAPQAAAC7CAYAAABSIbNHAAAcaklEQVR4Ae2d+3MUZbrH559R11r2nK1yaz0lHlGJa46lUnVWvFR5vAEB1iUsJYqXH9Z1BUR0vYB7iJXjKoWilpcVAS94Fs+yIq7ZWgUiCAZCEiD3TGaSzCUh31PP2/12v93Tc58kMz3fqXqqe3p6+vL0++nneZ/3fZ83An6oAWogNBqIhOZOeCPUADUAAs1CQA2ESAMEOkQPk7dCDRBolgFqIEQaINAhepi8FWqAQLMMUAMh0gCBDtHD5K1QAwSaZYAaCJEGCHSIHiZvhRog0CwD1ECINECgQ/QweSvUAIFmGaAGQqQBAh2ih8lboQZmDeizMaDtLLD/NNDSRqEO6qcMfNFllX1hYKY/Mwr06RHg2YPAL98CbnoDaPoQeOCT+nmQhJbPWsrAqr1W2RcGhIUtXwEzBfeMAC0X+8hn1sW/fhgQsJPpCxhPTKJ/OOGRgeEEBkZMSWJgxCuDI0l4JJrEYA4ZiiYxNJpfhkdTcCSWwnCAjMRSyCnxFKIFyGg8DUfG0hjNIrGxNAJlPI1YgMTH0/DIxCTiPhmbmESGJCYxZog8m1wykZiEkuQkJhyZwkTSlURyCoGSmkIiiyRTUwiU9BSShqTSF5BL0ukLUDJ5AeksMjl5ARkydQGThkxNTSNDLkxjyicXLkwjq0xP44JPpqct2yws/OmfloHbcAAYHK+sza440J/8YIEsy8mpafQNJXHiTAztp6L4LkCOnYri2GlXjp8ehUc6R/G9X86M4oRfumI4YcvJrhhOdmfKD90x/NDjSkdPHI6cjeNUgJw+G8fpc650nhuDR86P4YxPus6PoavXK92943Ckbxw9WeRs/zhcmcDZfkvODUwgSM4PTsCU3qEE/NI3nIAp6qU6kkC/IZ6XaMDLUr0kfS9K52UoL8YcLz7vCy+NaNyVoBebeqH5Xl7x8Uk4EvCCGp+YhBLjxTSRmIIjWV42/pdJ0Esj6AVhvgSknJvih1++K/htyG228U67xYpUQyv1qSjQ4l6IZU5OTqsCJGC2d0QtCYBZACfQXrhdmAVsAq29EgdmAbvGgdbWW6x2LGVVQ8VqV+JTMaClXiAibyOxaEc7RlyYBWoCTQutqiaudRZLXY8W2gRaQyzsiEEs91MRoMW9FsssMItLKzATaLrcOvZAl9vrcptAi5XW9WthSFgq51M20N8PAvf82XKzpb6pYSbQBJpAu8E0sw6dDejUFHDHO0DTQxtLZrpsoKUZSir1Epg5+oNlmTXUTv2ZLrfrbktwLEtATAJlrEPbUf4QB8WCgNaBMmFp/u8O4aKLLsa6dQ8XDXZZQIt1ljeKRPyOdkQJtB3tZpTb29RXDy53IpnExMQEkslURhOXP8qdC2ghWJj60fxFCurrr28sCuqygJZ2NAm9i3U+ItaZFlo1YRHo+gE6PSlNYwkFswCdSCSQTk9mQJ3P5dYWWugVpn7+wPsKaLHUl132s4KhLgto6fkinUiOnR4l0EZbNIGuD6DTk5MKYAF59+7d2LlzJw4fPhwIdTFAC1NXvjTsAC1QX331NQVBXTLQ0uNFurFJ7yKxzrTQbgcTAh1+oAXmZDKJ4eFhfPzxx2hubsY999yD5557Dt98842COpVKO5a6GKCFKWHrkssbPVAvXnxrXqhLBlo6nEsfVekhRKBdmKXXGIEON9CptAVzX18f9u3bh/vvv1/BfNddd2Hp0qUK6iNHjig3PJVOqxhTMUALU8LWpb9Y4gFaLHW+T8lAi58vdei+oQSBNtxtAu2FWZquwhUUk/7qSQjMn332GVavXo3Fixdj27ZteP311/HII4/g3nvvxTPPPIOTJ09ifHwcAvXU1IXA/t26HdqsQ0vXXGHrx7f8NgPom29elJPpkoHWI4l0QKxYl/uzjQsRiUSCZdlutz+3vx+3fPf345bv7MutgpP+ftzy3ezHLevsy+0OIimqL7cMFrHdbLHMAvMtt9yCLVu2KHh7e3vx6aefYt26dbjtttuwadMm9PT0YGxsDOl0umCgxUgKX/Pu3pIBdD4rXTbQPf3jJVnonEAr0JuxXQZqEGjVpztoYIZsMwdmyDqBdkeNOQMzZJBGBQZnTExY0WypM//617/GrbfeqmCOxWJoaWnBU089hQMHDuDLL7/E2rVrccMNN2DDhg3o6uqy3O9UygO1Y52lt5hhd/MBLdY/26cqgL5vpx5tdQRPXuVa7SufOkqgOdpKDRud68EZiYTVzizRbB0AEzf7xIkTePnll3HHHXfgpptuwkMPPYSPPvoIX331lVpftGgRNm/ejOPHj1vR78lJB+pSgc7ldlcZ0FEc39nsuuHietNC00KrMd9zO3xSmqZEpGnq0UcfVRAfOnQIr7zyCm6//XasWrUKa9aswZIlS/Dwww/jww8/VFCLpX7iiSdUc5b8X+rT+TqW5LPQ8+b9JJuBLn06WV2HroTL7VroIKCPYv0CbbWbsf1NDXwzdjh16d1YklEfb8YO35hoNR76bf1/65hXbd6Ljcbx31Bjotux8Wr3nDvf0f9pxpvnxvDFsw3uS8c5bwM2fW1Fu60o93d42jnGarzd+zGWO/tGEPnVx2pM9KHnzGM14Jl/mN0/OXyyWoZPJpIpBbS0M4tbvX//frz66qu47777sHz5ctUOLdtfeOEFLFu2TNWjpT4t20TOnTungmlTU1NlA52rHl1lFtrrct+3U+rQJtAaMlnaQL+lYTN/c9eXvu0mOvi/zSY87j5ucK4ZmUCb+1lAv7nS3GauW1BnAm3u464vuCbgeq75I75ykhwQ6GoBWpIc6Dp0R0cHtm/frkBesWIFPvjgAwwMDCjgv/32Wzz//PMq0v3ggw/i4MGDqq1aWecK1aGrHmgXKLewR3Sk2w90024jym1a5gasP2hlLTnZtQdLHWuoLbW5rQEbDsWsbCUei50F6JV7nawlnmwlkr1Emqy+fgkL7PMtePY7ux3atNARLPjDMTVA49AfTIgbsPkfkuDgGDZfo+/dtNIEulqATqYkBVNCBbhee+01BfPKlSvx7rvvqqYpqWNLP27p+nn06FHVFi2RbnG5xTUfGhpCMiX9vN3mq1Lr0DUHtLLMOhWRB+iFWP+F0WxlWOcrn253mq4kBdHnhjVWVtoA96rN7WrctpV+qD2Py92Ap/4enIIo0FKv/CgAaHG57RREbX904Ndut4yycl1vAl2NKYjMOrR0HhHL/N577ymABWKVq2xqGtI7TL6LFZdg2I033ojHHnusonXoqgfaU4fWIOulB+hmbDfboWcF6Gbs9OQU+w6bnLqxtqrGsmygI1jxvq5H00JXi4U2gV6/fj127dqFeDyurLa442ZOMQl8SYcSqTdLU5Y0XUndu1JBMQIt9eiSLbQP6HdWuwGxlR9ZLvf5j9CkXXwCnZElNQw9xaS75/jEBKTziLQr9/f3Q9xsGVllwmytS4bStOpQ0t3drfaPRqP143KXbKHPmHXoZuxwsn6a9WW7Dn1oK67S0ElArceqQ//VcM0l0JYZFPMC7Ua4G7Dp73Yd+l0v5JlBsWJcblroanS5xQpLPVq3R0uPMRmgYWX/zMz6Kdvld23ZxRWfNCLc0nQV2jp06UCP4oThdgcF18wo947lhmvswG1uyw90p2mhg45BCx1KC61T+aYE6mQKMg7aTeWbCbQkNRARS62CYUX05c7XDh1el7uEdugdK0yAI1j2dr6gmNdCS5TbtdJyrNV4iy4383Ibubk1zOaymNFWNQm0Tro/93m592KZtrRXb8UBX7J9Jtq3Zilhon3vjByudfYGxKQObYKs1wm0E+Wu3MwZ0rFEXHA9e0ZHj2mdI7jqmfaM2TMINIHW7ra5JNBVkGg/Z0+xFXszYJapcQg0gTZB1usEumqBbsDGQ3F0+FxtPc8VgSbQGmJzSaCrAGhOVmclO2CCgxITHBizWhJoAu0m22eifWcGynqf28ppizYGRDLKzRRETuYSZiyZuYwldLn1VLKcCse1zpwKx7HOnH3SmqhOWWlaaN+k70wSyCSBMul7DUz4Xm7GkqrsKVY9HUvi1rhoRrkxMJK0JGpFtgeNJTuWsGNJRSZ8394UQUSSGpi5xZwun4aVpoWmhaaFnrucYq6F3o37dNdLZ2mn8D09CgJtjYlmGt+5TRJoBsRknc1WAc1WOje3f7TV9mUL8eTfRlWyfQJNoCXJwVyn8SXQHSO5Xe43ViESWYgnD+ic3NbyuO7DbS8JNIEm0BdnzKBhBMU9q3OU9fMIfn9VBPM3HkG+0VaZQJtJDWT4op39U9ehD27FlY7rHkFkwVZ8bqfz/cGT5MD67a89DIr1jyTcgJgExoxgmA6MMSjGoFh2C33gRcyPLMTvxTqfKs5C/2VTs0oUeMIOjO2QoNmCLfhcAb1H5ede+pZO3duO9cs10FYWE3e0VTs2rtgKAp0AgZ6CnuMqlZb0QV7xu9usQ/s7lpQBtIp2m1FulbHETj+krLOVzvekL8n+SWWdrfS97vBJ2zqLlWazlWulaaE9UBPojhEczVWHLhPov2zyz1zp5hNz0gwt3wM/1M5vK/YYaXzpctNC00Kr6S5lOpzSpsKxmqqKr0Pb9WdxsbWVNi20XY8+2dXuTp9jgG2NtmrHBj31zYq9VqcSWmjXOrMO7bHO4n7TQuez0KeieHWZBLRW4bVi6tBqXqtmbNcwyzIQaLsOrVL3NmD9Ieu7Z/ik/ZsaC02gCXTKstL++jOBtmHO6XKrNmkr0q2arv7mBsak2SprO/QXW1QEe8lbuoeYjni7deglT7dDZs5Q7raC1k3ju9SeMUPVoe3fXmeUm0ExG2YJjBHoEid81z3F/nejvz4cgTOvVUBPMW/9uRk7TAvtb7KSJi0dHPM3WUWa4cBMC00LTQsNVY8urQ4dhQY6X7MV54dmxxJ2LKn6jiUEWiaoC5KzzlSyMr+VBbMs2Zebfbll2KQWT/cw48sc9RQj0EEwyzYCnUa1ToVjRrs5OCNgcIa43XS5vZaaQBNo5hST5ivdl1si3DrKrQNiui93t5tkXyLd1vzQ7FjCjiXsWFJmxxK63HS50yq3GLN+2nnFjHowLTQtNLN+SrYSZiyphowlbqeSY6ejKqmBZ0y0mXpIr5s9xfQ6XW6mICLQBNqpR3O0ldu5hKOtPD3GzOi2XmeUm1FuNzd3ljZoNlulIXVqNlslVIxq3t1bnHZn3f6sl0aV27PKdmj25WZfbvbltrp9lj58klFuRrkZ5XbmtZoGpg07yyg3o9yMcjPKrV4JdLnpctPlpstNl7vz3BiUnB/DGZ90nR9DV69XumWSOi0MijkT1rFjCTuW4Hvd9mwu2Q7Ndmi2Q7Mdmu3QTOOrU/gyY0nJSQIZ5WaUm1FuRrnZ9TMj0cH5wQknwi3rvUOJDOkbTsCU/mHLKssoKy3OVLLM+unpJcYkgQUnCbSsNMdDczy0PzDGnmLsKcbx0LalpoWexHjCkonEFBxJTiERIGb9mXVo1qHR6WuykiYsNlulMBJzJRpPwRWr7hyNsw7NOjTr0KxDj08iPjGJMZ+osdBstmKzFZut2Gxlut1MtF9mon0GxRgUY1CMgzOg54d2luwpxp5idLnpctPlpstNlxscnMHBGUkMj6ZcMaLaZoRb1t0It6wzyn1hehoijHIzys0oN6PcKi2RkQ/Bs8rx0BwPzfHQHA/tutzn+6M41TXoSvcgTtlyunsQ+aSzexCdPaYMobPHK2d6huCRs0M4k0O6zg6h61x+6T43DEfOD6M7QHrODyOn9A7jbAFyrncEjvSN4FwWOd83gkDpH8H5AOntH4FHBqLo9UnfQBQZMhhFnyH9g1HkkoHBKJQMRTHgyCgGhlwZHBpFoAyPYjCLDA2PIlBGRjFkyPBIDLlkZCQGJdEYRrJINBpDhozGEDVkdDSODInFMeqTWCyOrBKPI+aTeDyOTBlDPG7L2BjGbBkcjs9dksDu7m4cPnyYQh2wDFSoDPT29s4d0NJXNiqBDwp1wDJQkTIglWJJwDknaXwJNF9mfJlXtgwQaFqGilgGgllZMEvVJ4Em0AQ6RGWAQIfoYZb6Vuf/qsO6VuI5EGgCTQsdojJAoEP0MCvxhucxattaE2gCTQsdojJAoEP0MGlda9u6VuL5EWgCTQsdojIQWqBj8WTNFdQjW69DpGEbjsxGAduzBpHIdXixnVatEpaxWo4RSqAF5vHx8dKAVgU9UhBYCsBIBAu3niztXD5wCTRfLuW+GEIHtIZ5YmKiNMg00JEIVu3JVcD2YVUkgkhJQFv/9R+fQOfSN38rBPZQAa1hHhoaQnlAX4eFDRFEmvdlfynYLqvsV7yFJtCFFE7uU/xLLDRAx+IJ5Wbv27cPr7zyStlAv7g1Vx3zJF5UIG9TVppAF1/wCOvM6CwUQMfHkgpggfm6665Da2tr+UC3W1Y0EFYnoJRtH2u7uOOWrMFuu768u1lvM5a2J+C63L7/B3oK1kvFPUcuj8J3vMga7HbuwSxYmccMvH9f3Z9wmjqc2/WaB9oP87XXXlshoFOwgl4ujLrgKigVZAFAt2/DQgHZgNCC2DyO9b/AOrR6CRj72sfzgBVwjmjMhtYfJQ/aV2/zRLltmM3/t2/DqgoF/LTuuJxZ4Gsa6CCYKwm0hsQDng2DtS0TaAWvCYWyZv79cgGd2ZTkP6b/uwOJ59qsgpNtX+tlZZ4r+JqcY9MqZ4+nVJFuahbobDBXFugU/EC4brEAEwyqx5qqh21bP8dqB8PjPbb7Jvd6Cv5zuvtFY8HnybyeFKIZLrd2t03IzWNzvRZebjUJdC6YKw101GP1/CD64HJcWaN+7NSjTTfcfxwLloKA9lyPHzIf0Ln2zQDaOpZ6gdnXHPgiqCJrVAuAzfY11hzQ+WCuONCG1fNaSgHAB7T93eOiBwJQBtAZ5zSh9gGda98sQDsFUP1uvoTM83Dd0VPg8507/dQU0IXAXHmgXfc0s83ZD7QfqGwPthyg7XNk1NNT8HoTcu7s12NZ4tzudTaPoVoLM68rJTzXRpJADbN0GClUSnrAgZbLBsMTFRZg/EBr+DM7m+xuNuEJBi0bQBmegXbtnTq5ey1mdF3dv21pPe6ztr6e+9mHVZ7jBV9jSTqtMisW5nuoIaATiI8VJyU9uECg7SYsT4F3IfLAIoVXAxdYf5b/ueCrdmT7uAUDrQCxXiZmO3TGdWiQHIDtur2cL+M+M4+X8XLQx+OyaiPeNQN0SXCy4FVtwePztF/sFS6jBLrCCmVBnZmCSr0WplcCTaBpxUNUBgh0iB4mrVhhVizMeiLQBJoWOkRlgECH6GGG2fLw3grzPgg0gaaFDlEZINAhepi0YoVZsTDriUATaFroEJUBAh2ihxlmy8N7K8z7INAEmhY6RGVgToFOpaaQSFKoA5aBSpWBOQVaTs4PNUANVFYDLW3AvLu34KKLLg6UbGeLZPsh33Y5oUg1fkZHR6vxsnhN1EDBGiDQAARkvxSsQe5IDVSRBuoaaBPi7u5utLS0oa2tzQN3FT0rXgo1kFcDdQl0BshNbWi6rAVtLW1oaWpBS1MbOjo6CHbe4sMdqk0DdQe0hllZZAPk/v5+BbAsP//8cwds2U//p9oeHq+HGvBroC6BPnbsmLLIYolNYDW4shSwxWKL5daw+5XH79RAtWmgLoGWerJ2rQVqATwbzAK0hr7aHh6vhxrwa6COgW5Tltdxr1ssa+3C3qICZGKlZw3o/WutCe4aW9Hpf1K+752tjWrfxtZ8e3r/aP1vLfZ7N/NbSDRQ10Brq6zda7HaOjim3ew5AToSwdqcxO3HWjurKIEOCYkVug0CbbRBC7wiGnRZzj7QjWhsjCCSi2hlya39igW6QuWGh6lSDRDoKgS6tVVc70YEe9OdaG2MoLG1VVlpAl2lZM3RZdUt0OJaf/311xnW2LTQUnc2I+Ez/oxsy9vaabnUgbDm3MeC3UzAH/HVx/11aPVd7eO68er/uTyEGVcET1CqBuoSaHGlBWaBWnqH6aCX6XLr4JgEzbQLLkrW6+ayVOVn/M+BFfCDp/fdv1a74wHQ718L70vAhtSA039c67vMqmEEyjpb0RgRL6C4gJu+Ri7nTgN1B7So2oRRgJZgmAAuQKvun/Y2s7eY+T95AQjoIjp4Jscs+2MADVgwGiwK5Qo0a1sA0AEX4Fpg68dgoDPde/Xi8Fn3gMNzU5VpoC6B1s9Ag607mojFVla7yRsYk/1lX4F33bp1kFkuTWlpaVG/6+OWvPQADfih8sKZHWj1P3NuLcP6BgIdAK5/v5LviX+cVQ3UNdCiaQ21LMVC+11s/TTkdwFXQN6wYYPqjCJu+eOPP662aWuu9y9p6QM6yCK7FjsTaAtC7ZJbV+AHM/A7gS7pcVXjn+oeaP1QTLBl3fzo35qamrB48WLPS0BAFsh37dpVvpX2Aw07yLV2f0Cd2ge0xx13rz4QYL/FJtCuwmp8jUAbD1CDa2xSq3q7WG+xyvq7XgrMuvuo/79Ffc8AGuJ3qyYsaZv2BqkKAVpHvd2AVyDgBLqox1TNOxPoAp6OBtesN/vXK1KPDgJaW+mMdmkf0HYQzeyQYsHrjWAT6AIeeA3vQqALeHhBQIu1lrq0BnvmgLabsNzKs33FfqDhRMF1O7RY9ECA6XIX8NRrcxcCXcBzCwJatgnUFQW6gGvhLtRALg0Q6FzasX8LAlqDrJcVsdAFXAt3oQZyaYBA59KO/ZsGWqDNJjpYVsDhuAs1MGMaINAFqFYDXciygMNxF2pgxjRAoGdMtTwwNTD7GiDQs69znpEamDENEOgZUy0PTA3MvgZmHeh32oENB2b/RnlGaqAeNCBs/fiW3wbOayXzXWX7lDy31RddwKq92Q7L7dQANVCOBoStS3+xZPaAPj0C/PKtci6Z/6UGqIFsGhC2Lrm8cfaAlgu56Q3gbCzbJXE7NUANlKIBYerKl4azwjwjLrdcqPj5UpfmhxqgBiqnAWHq5w+8P/tAfz8I3PFO5W6ER6IGqAGLqR/NXzT7QIvyH/gE2H+aj4EaoAYqoQFhaf7vDuWEecZcbrkBsdL3/BlITVXidngMaqB+NSAM3fA/0ZzBMIH5+usbsyqp5GYr84if/AA88pm5hevUADVQrAaEoX/9zwdLts5yvooALQfa8pUlxd4E96cGqAGLnStWvZoX5lzutuixYkDLwaS7mrxl6H6ziFIDhWkglrLiUJcv/++CYL7iiityHriiQMuZxP2WRnFZ8kMNUAPZNSDNUwtbRvAvN68uCOZ81lnOVHGg5aDSMC6WWsB+/TAgvcr4oQaoAYuFP/0TWNg6jn97cBcu+ekVBcO8ePGteVU4I0DrswrIzx4EGl6Oql5lTR9a7oW45hTqoF7KgPTLlrIvEP/7lj78tKkVF192TcEgi2W+7LKfaaxyLmcUaPPMN9y2DJdeeycu/Y9fYd7dWyjUQd2UARlkIWW/WIgFZJF5835iopRzfdaAlqu4887/KuqtpG+IS+vBUg/1p4dCLbOmfFaB1ieVNw4LZ/0VTj7z4p65GMBiP3MCtFzkb36zhlDbLhULenEFPez6uvnmRcVy7Ow/Z0A7VwBg3bqHlTsubWxhf1i8P8LrLwNiiZcsWWIiUfJ6VQBd8tXzj9QANeDRAIH2qINfqIHa1gCBru3nx6unBjwaINAedfALNVDbGiDQtf38ePXUgEcDBNqjDn6hBmpbAwS6tp8fr54a8GiAQHvUwS/UQG1r4P8B2RhVfSP+3GYAAAAASUVORK5CYII=;" vertex="1" parent="1">
          <mxGeometry x="-140" y="430" width="244" height="187" as="geometry" />
        </mxCell>
        <mxCell id="EXiGh36RY0hB33X0RfPo-5" value="" style="shape=image;verticalLabelPosition=bottom;labelBackgroundColor=#ffffff;verticalAlign=top;aspect=fixed;imageAspect=0;image=data:image/png,iVBORw0KGgoAAAANSUhEUgAAAPQAAAC7CAYAAABSIbNHAAAdGUlEQVR4Ae2d/ZMU1bnH55/RxAq5N1WmklvqFRGIe60oVTeisSo3Gnn1ZRcoUTT5IZUXQIMEdUnCWnuNUhqCQYmKCmKCNyjBuIkG2IDA8rK7sO+7szO787Jv31vP6T7dp3t63md3dnq+U/VU98z0dJ95+nzO85znnPN0BHxRA9RAaDQQCc0/4R+hBqgBEGhWAmogRBog0CG6mfwr1ACBZh2gBkKkAQIdopvJv0INEGjWAWogRBog0CG6mfwr1ACBZh2gBkKkAQIdopvJv0INEGjWAWogRBog0CG6mfwr1ACBZh2gBkKkAQIdopvJv0INzBnQV2JA2xXgyEWgpY1CHdRPHfi406r7wsBsv2YV6IsjwPZjwHf2Anf8Dlj9NvDoofq5kYSW91rqQOO7Vt0XBoSF5k+A2YJ7VoCWwj75gVX4V08AAnZqYhrjyUn0Dyc9MjCcxMCIKSkMjHhlcCQFj0RTGMwhQ9EUhkbzy/BoGo7E0hgOkJFYGjklnka0ABmNT8CRsQmMZpHY2AQCZXwCsQCJj0/AI4lJxH0ylphEhiQnMWaI3JtckkhOQklqEglHppBIuZJMTSFQ0lNIZpFUegqBMjGFlCHpiWnkkomJaSiZnMZEFpmcnEaGTE1j0pCpqRlkyPQMpnwyPT2DrDIzg2mfzMxYtllY+O1nloHbchQYHK+sza440IfOWyDLdnJqBn1DKZy9HEP7hSj+FSCnL0Rx+qIrZy6OwiOXRvGFXy6P4qxfOmM4a8u5zhjOdWXK+a4Yzne70tEdhyNX4rgQIBevxHHxqiuXro7BIz1juOyTzp4xdPZ6pat3HI70jaM7i1zpH4crCVzpt+TqQAJB0jOYgCm9Q0n4pW84CVNUozqSRL8hnkY0oLFUjaSvoXQaQ2kYczR83gZvAtG4K0ENm2rQfI1XfHwSjgQ0UOOJSSgxGqZEcgqOZGls/I1JUKMR1ECYjYDUc1P88Mt7Bb8Nuc029rVbrEg3tFKvigIt7oVY5tTkjKpAAmZ7R9SSAJgFcALthduFWcAm0NorcWAWsGscaG29xWrH0lY3VKx2JV4VA1r6BSLSGolFO9Ux4sIsUBNoWmjVNXGts1jqerTQJtAaYmFHDGK5r4oALe61WGaBWVxagZlA0+XWsQe63F6X2wRarLTuXwtDwlI5r7KB/mIQuP+Plpst/U0NM4Em0ATaDaaZfehsQKengHv3Aasf31oy02UDLcNQ0qmXwMyp85Zl1lA7/We63K67LcGxLAExCZSxD21H+UMcFAsCWgfKhKUbf3Ic11xzLTZteqJosMsCWqyztCgS8TvVESXQdrSbUW7vUF89uNzJVAqJRAKpVDpjiMsf5c4FtBAsTH35xmUK6ttuaygK6rKAlnE0Cb2LdT4p1pkWWg1hEej6AXpiUobGkgpmATqZTGJiYjID6nwut7bQQq8w9Y1H9yugxVJff/3XC4a6LKBl5otMIjl9cZRAG2PRBLo+gJ6YnFQAC8gHDhzAnj17cOLEiUCoiwFamLrpV8MO0AL1LbcsKgjqkoGWGS8yjU1mF4l1poV2J5gQ6PADLTCnUikMDw/j4MGDaGpqwv33348dO3bg888/V1Cn0xOOpS4GaGFK2PrSNxs8UC9ffndeqEsGWiacyxxVmSFEoF2YZdYYgQ430OkJC+a+vj4cPnwYDz/8sIL5+9//PlauXKmgPnnypHLD0xMTKsZUDNDClLB13bdWeIAWS53vVTLQ4udLH7pvKEmgDXebQHthlqGrcAXFZL56CgLzBx98gHXr1mH58uXYtWsXXn31VTz55JP4wQ9+gGeeeQbnzp3D+Pg4BOqpqenA+d16HNrsQ8vUXGHrK3f9OAPoO+9clpPpkoHWK4l0QKxYl/uDrYsRiUSC5eZm/EnP6fbP45b3/nnc8r7Eudx/2bYkuAxStrXvgnO5rYUwnMstiz+mHDdbLLPAfNddd6G5uVnB29vbi/fffx+bNm3CPffcg6effhrd3d0YGxvDxMREwUCLkRS+FtzXnAF0PitdNtDd/eMlWeicQCvQm7BboK4m0HY59nBxBgj0NBIJK5otfeZHHnkEd999t4I5FouhpaUFTz31FI4ePYq//vWv2LhxI26//XZs2bIFnZ2dlvudTnugdqyzzBYz7G4+oMX6Z3vNC6Af2KNXW53Ez292rfZNT52aU6BX/UGvuGrH1lvccty8vd1ZceVZaSUrr3zuNl3ucLrcyaQ1zizRbB0AEzf77NmzeOGFF3DvvffijjvuwOOPP4733nsPn3zyidpftmwZtm3bhjNnzljR78lJB+pSgc7lds8zoKP401OuK149oOO48Icm1xV/8F0CLUsn63j5pAxNicjQ1A9/+EMF8fHjx/Hiiy/iu9/9LhobG7FhwwasWLECTzzxBN5++20FtVjqn/70p2o4S34v/el8E0vyWegFC76azUCX/jhZ3YeuhMvtWuhsQB/ACt3fXtiMPzt9aPPznfhQ9aPbsXmhtq5NeKXrHazUv5Xtwp34P3tNtKyFNvvQroUOArodTzlWex1+v2+dDfw67HWs9HtYbV5L7a/D3t6xzKmf+/XvrbIu3HEQ2xbpcq/DH9S66DN4xvlsPfbtX29fcz32DSTwtx1B/f+l+OXn5proL7BjsT7veuwfPoSHzDI2HlLrov/x/FK3AYssxbMnvUkk6t3lTqbSCmgZZxa3+siRI3jppZfwwAMPYM2aNWocWj5/7rnnsGrVKtWPlv60fCZy9epVFUybmpoqG+hc/ej5ZaE/eh43OZXN7EOb4BYDtK7I3u3N29rVqrDsQHtd7lX7JMGBCbR5Phvo172A+gN+a95wExwcDwTRe85MoM3vLaD3PWx+Zu6bUJtAm8e4+4sWmzDbny/+DT4zEh3UO9CS5ED3oTs6OrB7924F8tq1a/Hmm29iYGBAAf/Pf/4Tzz77rIp0P/bYYzh27Jgaq1bWuUJ96HkPtL/yRyI2zE5QrHSgb9rWbmUvec1woW0r7Qc6sxx2pFsFxXxAP/ielblEWWfTMi/BLz7VK63ewxqngVqH11TWkoPGZ0uw7e92ggOPxQ6y0BFEHj6YkbXEzFbS89mvcYt9vVue/cLOXOIFetFzX6gUUH/3WeQdJyTtk3ms10rXO9CptKRgSqoA18svv6xgfvDBB/H666+roSnpY8s8bpn6eerUKTUWLZFucbnFNR8aGkIqLfO83eGrUvvQNQf0A3uMNEQqyl0q0OJy61RE7dhiuuLdMZV+yHS5/UCLC+4OW5lAL8HTf7NTEQnQhnVeuP1fnoklx37pusXKSr/hWvKFO04bqYhO53G5l2D7PzLTEAnQrwdZ6kcOBQAtLred0+3Eb7BINzaNh5w8bq7rTaB1OiLLOrt9aJk8Ipb5jTfeUAALxCpX2dQMZHaYvBcrLsGwb3/72/jRj35U0T70vAfa6kMfwAO6gkUW4+cf2VDPIdCePrSdXywY6HX4vc4tNmdAW262m1fsDLY7/WvXfXYapbKBjuDhA24/ut4ttBkU27x5M9566y3E43FltQV4M6eYBL5kQon0m2UoS4aupO9dqaBYjQAdxek9jW5gRk8uyQX0x81un3thtqBY4Ra6poB2AmSWK2653gfxoG4UCbSbIFCSBZaZJFCme44nEpDJIzKu3N/fD3GzZWWVCbO1LxlKJ9SEkq6uLnV8NBqtH5fbjHLvXuVaG3fY6pQRuV6MzR9bWT8/fNod4pLodXCUew6A7jH70FaQzMr6GdCHbvs1FmroIuvwmp3swBsoC+pDey20G+Fegu2f2Zk/39RR8AgiBLqiQIsVln60Ho+WhRmyQMPK/pmZ9VM+l++1ZRdXfNKIcMvQVWj70CbQZz4yrK643h9baXz/bMLrAOHCX12gvf1ox+01ymlGuV97yCi3cYz7u/xAXzUtdNA5CHTFgRao0wJ1Kg1ZB+2m8s0EWpIaiIilVsGwIuZy5xuHrh2X+2JU5eQ2J5dEZNzZnv65e7UJQhNeuWwGy6ppofVqK9NS67IGj0P7oV67P19QzGuhpS/tWmm51nq8PkiX23xYgJOTuwIut8Bsiguzt/8sLreG2dwWs9qqJoHWSfeZl1vn5T6ItdrSLvo1PlETS5iXO+x5uR2325j7RaDLWG1VjSdnSH957X4NsmxN6xzBLTtO28kCCTSBvraoFVdVmylWzxbaGwDTrrm9feigkfmTQBNoAo35/myrYKCtWWNM41vfaXzF86bLXWMuN/Nyu4/DqfdH4bAPLRFvZ7WV8RTKEjOWVKMPTaAJdOjGoeu5D02gCTSBtsei1bOiaaGdVVee1VaDiYxnQ8uzos1nQ8s+nw/tPpi+Gs+HLjfBwbycWEILbQ5bufsMijEoxqAYg2LqcURircUi+4UWuvzFGeYsMdnnTLESH/iupnuuPgDlamu3my43Xe7EJMYMGU/IaqhJ9SQXPf2TUz+N6Wf5dsvNKea63OY6aD3Jws1YQqCtySXuOmhvkgP2oS2wCbRFbFVniunc3J7VVhdHsXuVm+CAQBNomS0WH590xbDM2koT6GoD/TtJZrAYPz+qc3Jb2zP6iRn2lkATaAKdOf0zmwddJQt9Ej+7OYIbt55EvtVWmUAbSybV6iRZRmk8CufYTjeLiXwviQ/svGLnj+/EzXpFk/3dX7rjKrdYh51y6IJv66YgksyfcSsxoE4/xET7GB5NWxLLTLAvz7UK37OtrGWUDIqZQbGjz+PGyGL8TKzzheIs9J+fbnIylpy9PIpXZI30wmY7W8k7Kn/3yr1ulpLNazTQVn7ula/FVArf893t2Lp2Jwh0UuXlHhiRrJ+2GOl7B+39es8pxih3xwjaO6KuVAjojIkleyU9bxNekamfyjovweZjGmhjq6zzEmw5roG2sn5y6ieBNieX6Eyf5tYPM4etBOwKAp2ZjsgGujOGV9bYkfI171j5uJ00vsZ3a99xEu0TaAJNoAH1uEsZuirtUTjWUFXxfWi7/ywuth6LNi20vUDjXKfxOBwD7PNdYp2N/Nxr37X6z9KP9vWddV+afWg+TpYWumMEp3K53BeieEll92zEy8X0oX9vude7NcyyDQTadrXV0zKWYPNx670FtO1y299tPc6gWP9I0u0/Sz+afWjQ5T4/glMiNsz5gP7XBSvSrYauPnIDYzJslXUc2s7DvWKvXjapI95uH3rFL9rdBAcKWvvpGcd3YqX9TKvz8rA6+7tXGeVmUCw9Be12myDrfVroAiy0nin2p61Gbm09pLTqgMr+qeCWKLYx9dPbf27CK6aF9g9ZSbBM96H9Q1aRJjgw0+Wmhbah1hCbWwJdBND5hq3O6Pnb5tZ0ufU+ExyoBRr+hRlcPjll5ecu88kZfqg5Dm1GuY19Au0unezuGzcSBMo+kwQySWDmLDGuh9YzxVSUm+PQTHDABAcZU0crt9rKDYidtp+c4ZnPbbrael+72eaWLjddbi6fRJXmckehg2J0uely+zN/xsYmoF1tveVqK6/rnWFh7Q8INIetOGzFYatyZ4rRQksALEiYU4w5xZhTTPrS7EOzD80+NPvQXJzBxRl6lphszQklet8/Bi3vOQ5tjD3rgJhsGRTzut50uely0+Wmy800vsz6qeLcjHIzys0oN6PcjHJf0nnFesZw2SedPWPo7PVKV+84HMkS4ebUzwnImDTHoZMq38CC+5oDH/bOqZ+c+ul5vhWnfnLqZ8bEFE79HLMygPqss1hrWmhvBtBoPA1X3CdPRuOWReZMMWDGIIxBMQbFGBRjUIxBMWcMmgkOmOCACQ6swFhpSQI59TNo2ieDYgyKiZmly02Xmy43XW663HS5rWmfzPrJJIFl5uWmy02X24p2+yPcHIemyw15xhVXWyW42oqrrbjaynG7+eQMN9LNRPueVVdcbcU0vpz6aTxe1p1UIhNMOLFkemYGIjMzcIUTS/TTM+wtExzQ5abLTZebLjcTHDDBQdlPn2SUm1FuRrnpcjMvN64OJDzSM2hFt/WWj8KZxHjSkkTSfgyObPkoHKOXHrDL1VZcbTU8moYjRhBsxLfPoNgMpqetQJgOiDEopq2zbGXc2S8MijEoxqBY+UGxnv4oLnQOutI1iAu2XOwaRD651DWIS92mDOFSt1cudw/BI1eGcDmHdF4ZQufV/NJ1dRiO9AyjK0C6e4aRU3qHcaUAudo7Akf6RnA1i/T0jSBQ+kfQEyC9/SPwyEAUvT7pG4giQwaj6DOkfzCKXDIwGIWSoSgGHBnFwJArg0OjCJThUQxmkaHhUQTKyCiGDBkeiSGXjIzEoCQaw0gWiUZjyJDRGKKGjI7GkSGxOEZ9EovFkVXiccR8Eo/HkSljiMdtGRvDmC2Dw/HqZSzp6urCiRMnKNQB60CF6kBvb2/1gJbAQzSWplAHrAMVqgMSspIYVVVyihFoNmZs0CtbBwh0hVpGVszKVkzqszR9EmgCTXc3RHWAQIfoZtKqlWbVwqQ3Ak2gaaFDVAcIdIhuZpgsDf9Lad4GgSbQtNAhqgMEOkQ3k1atNKsWJr0RaAJNCx2iOhBaoGPxVM1V1JM7lyKyZBdOzkUFe2cDIpGleL6dVo0WWpoBlL84Y7ZmignM4+PjpQGtKnqkILAUgJEIFu88V9q1fOASaDYu5TYuobPQGuZEIlEaZBroSASN7+SqYIfRGIkgUhLQ1m/95yfQufTN7wqBPVRAa5iHhoZQHtBLsXhJBJGmw9kbBdtlleOKt9AEupDKyWOKb8RCA3QsnlRu9uHDh/Hiiy+WDfTzO3P1Mc/heQXyLmWlCXTxFY+wzo7OQgF0fCylABaYly5ditbW1vKBbresaCCsTkAp2zHW5+KOW7IBB+z+8oEm/ZmxtT0B1+X2/T7QU7AaFfcauTwK3/kiG3DA+Q9mxco8Z+D/9/X9Caepw+ru1zzQfphvvfXWCgGdhhX0cmHUFVdBqSALALp9FxYLyAaEFsTmeazfBfahVSNgHGufzwNWwDWiMRtaf5Q86Fj9mSfKbcNs/r59FxorFPDTuuN2doGvaaCDYK4k0BoSD3g2DNZnmUAreE0olDXzH5cL6MyhJP85/e8dSDxlsypOtmOtxsq8VnCZnHPTKmePp8wj3dQs0NlgrizQafiBcN1iASYYVI81VTfbtn6O1Q6Gx3tutyX3egr+a7rHRWPB18ksTxrRDJdbu9sm5Oa5uV8LjVtNAp0L5koDHfVYPT+IPrgcV9boHzv9aNMN95/HgqUgoD3l8UPmAzrXsRlAW+dSDZhd5sCGYB5Zo1oAbK7LWHNA54O54kAbVs9rKQUAH9D2e4+LHghAGUBnXNOE2gd0rmOzAO1UQPW92QiZ1+G+o6fA+1s9/dQU0IXAXHmgXfc0c8zZD7QfqGw3thyg7Wtk9NPT8HoTcu3s5bEscW73OpvHMF8rM8uVFp5rI0mghlkmjBQqJd3gQMtlg+GJCgswfqA1/JmTTQ40mfAEg5YNoAzPQLv2Tp/cLYsZXVf/37a0HvdZW1/P/zmMRs/5gstYkk7nmRUL83+oIaCTiI8VJyXduECg7SEsT4V3IfLAIpVXAxfYf5bfueCrcWT7vAUDrQCxGhNzHDqjHBokB2C7by/Xy/ifmefLaBz0+bidtxHvmgG6JDhZ8eZtxeP9tBv2CtdRAl1hhbKizk5FpV4L0yuBJtC04iGqAwQ6RDeTVqwwKxZmPRFoAk0LHaI6QKBDdDPDbHn43wrzPgg0gaaFDlEdINAhupm0YoVZsTDriUATaFroENUBAh2imxlmy8P/Vpj3QaAJNC10iOpAVYFOp6eQTFGoA9aBStWBqgItF+eLGqAGKquBljZgwX3NuOaaawMl29Ui2b7I97lcUIQvaoAaqLwGCHTldcozUgNV0wCBrprqeWFqoPIaINCGTkdHR4133KUGak8DBBqAgOyX2ruVLDE1UMWcYvNB+SbEXV1daGlpQ1tbmwfu+VBOloEaKFQDdWmhM0Be3YbV17egraUNLatb0LK6DR0dHQS70FrE4+aNBuoOaA2zssgGyP39/Qpg2X744YcO2HKc/s2s37UjG60H3DW04lKei11qbVDHNrTmOzLPifh1qDRQl0CfPn1aWWSxxCawGlzZCthiscVya9hn/c5roCMRbDyS62pHsNHOKkqgc+mp/r6rS6Cln6xda4FaAM8GswCtoZ/16qGAbkBDQwSRXEQbxxHoWb8rNXWBOga6TVlex71usay1C3uLCpCJlZ5roFtbxfVuQLA3fQmtDRE0tLYqK02ga4q3WS9sXQOtrbJ2r8Vq6+CYdrOrAvQly6UOhNW2zq1Zj3HdcSsR/0aY3rvqe6s+uu84j0dgNRpBXsKRjRFECujjz3rN5QUCNUCgjTFogVdEgy7b6gANWEEvL4xyBxVQCr4A6C+1okH61gac6viIex4dTIsYn8H+nduAEOhAWmrgQwI9T4EGLGANNoVyBaz1WSbQwdbTe5wFdKY77/0tga4BdgOLWLdAi2v96aefZlhj00JL39mMhAdqsJIfOu60dVIvZLbVdtxdL6i6AXCtrC6YF07X5dbfW1uvR+D9jXmkv0zmd9yvvgbqEmhxpQVmgVpmh+mgl+ly6+CYBM20Cz7rt8sHdJBFdi22D2jtbpsPyTP37R8S6Fm/i1W9QN0BLdrWgMpWgJZgmAAuQKvpn/Zn5myxOblLfqDhWkqvBZXS+IAOctEDCl0Y0GZf3XsSWmivPubbu7oEWt8EDbaeaCIWW1nt1d7AmD5+1rcZQKsomBrCkrFprzvtB9qFP1c5iwLace/1Ga1rMsqt9TH/tnUNtNwODbVsxULPqYvtrw9BQGsrnTEu7Qdaw+8HX6ytGwQrFGiosnjPpayzuPEZoPv/CN9XSwN1D7RWvAm27FflFQi0HQxzO8920QKAlm+C+tLGbwsGWp3Kmi+uHywvp6HLXZWaUfBFCbShKg218RF3qYGa0gCBrqnbxcJSA7k1QKBz64ffUgM1pQECXVO3i4WlBnJrgEDn1g+/pQZqSgMEuqZuFwtLDeTWAIHOrR9+Sw3UlAbmHOh97cCWozWlIxaWGqgZDQhbX7nrx4HPtZLnXWV7lfxsq487gcZ3s52Wn1MD1EA5GhC2rvvWirkD+uII8J295RSZv6UGqIFsGhC2vvTNhrkDWgpyx++AK7FsReLn1AA1UIoGhKmbfjWcFeZZcbmloOLnS1+aL2qAGqicBoSpbzy6f+6B/mIQuHdf5f4Iz0QNUAMWU1++cdncAy3Kf/QQcOQibwM1QA1UQgPC0o0/OZ4T5llzueUPiJW+/49AeqoSf4fnoAbqVwPC0O3/G80ZDBOYb7utIauSSh62Ms946Dzw5AfmJ9ynBqiBYjUgDP37fz9WsnWW61UEaDlR8yeWFPsneDw1QA1Y7NzQ+FJemHO526LHigEtJ5PpatLK0P1mFaUGCtNALG3Fob655jcFwXzDDTfkPHFFgZYrifstg+Ky5YsaoAaya0CGpxa3jODf7lxXEMz5rLNcqeJAy0llYFwstYD96glAZpXxRQ1QAxYLv/0MWNw6jv947C186Ws3FAzz8uV351XhrACtryogbz8GLHkhqmaVrX7bci/ENadQB/VSB2RettR9gfg/m/vwtdWtuPb6RQWDLJb5+uu/rrHKuZ1VoM0r337PKlx36/dw3X89hAX3NVOog7qpA7LIQup+sRALyCILFnzVRCnn/pwBLaX43vf+p6hWSf8hbq0bSz3Unx4Ktcya8jkFWl9UWhxWzvqrnLznxd1zMYDFvqoCtBRy/foNhNp2qVjRi6voYdfXnXcuK5Zj5/iqAe2UAMCmTU8od1zG2MJ+s/j/CK+/DoglXrFihYlEyfvzAuiSS88fUgPUgEcDBNqjDr6hBmpbAwS6tu8fS08NeDRAoD3q4BtqoLY1QKBr+/6x9NSARwME2qMOvqEGalsDBLq27x9LTw14NECgPergG2qgtjXw/2Fvl/9lXS6sAAAAAElFTkSuQmCC;" vertex="1" parent="1">
          <mxGeometry x="-120" y="-130" width="244" height="187" as="geometry" />
        </mxCell>
        <mxCell id="EXiGh36RY0hB33X0RfPo-11" value="" style="shape=image;verticalLabelPosition=bottom;labelBackgroundColor=#ffffff;verticalAlign=top;aspect=fixed;imageAspect=0;image=data:image/png,iVBORw0KGgoAAAANSUhEUgAAAPQAAAFGCAYAAABdWrI0AAAgAElEQVR4Ae2d/bMdRZnHzz+TqGuotQrLXQEBCay3LCNVu4BQ5RokJMTSXIoyENAfZJUEECyVRCRUCoEKIL6tQkAxaNgNYNhKFZoXiXknN++5L+ee+3ruvcmz9fTMM/NMT895nfMyM99b1XfmzOnT0/N0f/p5uqf76RLhDxKABHIjgVJungQPAglAAgSgUQkggRxJAEDnqDDxKJAAgEYdgARyJAEAnaPCxKNAAgAadQASyJEEAHSOChOPAgkAaNQBSCBHEgDQOSpMPAokAKBRByCBHEkAQOeoMPEokACARh2ABHIkAQCdo8LEo0ACXQP6VIVo9ymiHceINu9GgAyKUwfeOeHVfWag038dBfrYGNEP3iX6j5eJlr1ItOpVom++UZyCBLQoa64Da1736j4zwCxsfI+oU3B3BGjO7ANvepl/YQ8Rgz07d5GmZubp/OhMJFwYnaELYzrM0oWxaBgem6VIKM/ScI0wUp6lkfH6YXS8SkGoVGnUEcYqVaoZJqpUbiCMT8xRECbnaDwhVCbnyBmm5qjiCBNTcxQJ0/M0YYXJ6XmKhZl5mlSBy6ZWmJ6ZJxNm52k6CAs0PRuGmdkFcobqAs0khNnqAjnD3ALNqlCdu0i1wtzcRTJh/iLNJYT5+YsUCwsXaV6FhYVLFAsXL9GCFS5evESJ4dIlumiFS5c83cws/Ox9T8Ft2Ek0PJWuzk4d6DcOeyDzcX7hEp0bmaWDH1Zo/9Ey/d0RPjhapg+OheHAsXGKhOPj9A87fDhOB+1wokIH/XDoRIUODcXD4aEKHT4ZhiMnJygIpyboqCMcOzVBx06H4fjpSYqEM5P0oRVOnJmkE2ejYejsFAXh3BSdTAinzk9RGKbp1HkvnL4wTa5wZniadDg7MkN2ODc6QzqYRnVshs6rEGlEHY2laSSthjJoDLlhrNHwRRu8OSpPhMHVsJkGzWq8JqbmKQiOBmpqep5MUA3T9MwCBSGhsbEbE1ej4WogdCPA9VwHG37+bOD3IffZpl/t91jhbmhaf6kCzeYFa+bZ+UumAjGY+4+UveCAmQEH0FG4Q5gZbAAtVkkAM4OdcaBFe7PWrlS9bihr7TT+UgOa+wUcuDVijbbvyFgIM0MNoKGhTdck1M6sqYuooTXQAjGzwwqx3b9UgGbzmjUzw8wmLcMMoGFyy9gDTO6oya2BZi0t/WtmiFlq569toP8xTHT7bz0zm/ubAjOABtAAOhxM033oJKCrC0S3/Ypo1X0Pt8x020Dzayju1PPAzL7DnmYWqIP+M0zu0NzmwbGEATEeKEMf2h/lz/GgmAtoGShjlq78r120aNFiWrfu/qbBbgto1s7covCI374jZQDtj3ZjlDv6qq8IJvfM7CxNT0/T7Gw19orLHuWuBTQTzEx99MobDdSf+9xAU1C3BTS/R+Ohd9bOe1k7Q0ObV1gAujhAz83zq7EZAzMDPTMzQ3Nz8zGo65ncoqGZXmbqU9/8bwM0a+rLL/9kw1C3BTTPfOFJJB8cGwfQ6l00gC4G0HPz8wZgBnnbtm300ksv0Z49e5xQNwM0M3XVT0YDoBnqa6/9bENQtww0z3jhaWw8u4i1MzR0OMEEQOcfaIZ5dnaWRkdH6Q9/+AMNDg7S7bffTj/84Q/pr3/9q4G6Wp0LNHUzQDNTzNZH/mUgAvXNN99SF+qWgeYJ5zxHlWcIAegQZp41BqDzDXR1zoP53LlztH37dvr6179uYP7KV75Cd955p4F67969xgyvzs2ZMaZmgGammK2P/duKCNCsqev9tQw02/nchz43MpNhoPfTw9eUqFTiMEgvYuqnN48eUz8j88ajUz95vvosMcxvvvkm3X333XTzzTfTU089RS+88AI98MAD9NWvfpUef/xxOnToEE1NTRFDvbBw0Tm/W95D6z40T81ltj5+03diQH/xizfWZLploGUlkQyINWtyv/nwUh8kAUodr95If5I53fY8bv5sz+Pmzy3N5QbQMp8bc7m9RSI153LzYhHfzGbNzDDfdNNNtHHjRgPv2bNn6Y9//COtW7eOvvSlL9Gjjz5KJ0+epMnJSZqbm2sYaFaSzNeS5RtjQNfT0m0DffL8VEsauibQvsZ8nqEG0GZOt2thBl/TCzP43F6YwZ/1wgw+x+KMcFVYM4szpqe90WzuM3/jG9+gW265xcBcqVRo8+bN9Mgjj9DOnTvpL3/5C61du5Y+//nP04YNG+jEiROe+V2tRqAOtDPPFlN6tx7QrP2T/voC6DtektVWe+mhq0NNfcdLAFoWaADo3q62mpnx3jPzaLYMgLGZffDgQXr66afptttuo2XLltF9991Hv//97+m9994z5zfeeCM99thjdODAAW/0e34+gLpVoGuZ3X0GdJn+9EhoigNorLbql9VW/GqKA7+a+ta3vmUg3rVrFz3zzDN066230po1a+iee+6hFStW0P3330+vvvqqgZo19Xe/+13zOot/z/3pehNL6mnoJUsuS1LQrW8nK33oNEzuUENvozuMuV2ikvSjIyb3Nloh3wfHQdrq7EO/RncGcUTrD9LWyHpodx/6xdUSv0SlazfR21gPTUVfDz0zWzVA83tmNqt37NhBzz77LN1xxx101113mffQfP3HP/4xrVy50vSjuT/N1zicPn3aDKYtLCy0DXStfnRfaGhvlDmE6KpH9oVODgTonw8mD6KVSrTiZeXg4OXace/8hefk4MhJB9C/VL9lmOHgwHiHKTrQPNItfegjR47Q888/b0BevXo1/e53v6MLFy4Y4P/2t7/Rj370IzPSfe+999K7775r3lUb7ZxSHzpzQBvAIxpaa+altP4d8Viirw/SVjPSrTXz9bR+l3gu0dc9TR0H+nVaGWh17zUWPJZ47p6KDvRslV0wzZgBrueee87A/LWvfY1+/etfm1dT3Mfmedw89XPfvn3mXTSPdLPJzab5yMgIzVZ5nnf4+qrVPnTfAx2a3GV6fmWoqUsrt3mj3Eo7X/Xovshrq7ceDfvcRksr7XzVY/sjroj+57HrAy3PWtoG+uHHw+9X/tJzSQSgAbSnncM+NE8eYc38m9/8xgDMEBtfZQuXiGeH8WfW4jwY9oUvfIG+/e1vp9qHzhTQB97eSFeJlmQtzSZ3V4BWDYmaZAKgAbQN9Pr16+mVV16hiYkJo7X5e+1TjAe+eEIJ95v5VRa/uuK+d1qDYgDadxhYT0O/qPvPq183TgMBNIBmYHm659T0NPHkEX6vfP78eWIzm1dWaZi9c44/ZyaUDA0Nmfjlchkmd2ByH4/2lZ8PZopFr8f70IO0NfD+2UgfeoL0CDeb3QAaQDPQHLgfLe+jecYYL9DwvH/GvX7ydf6etbI3IMZzusMRbn51lds+tD3K7X1eSg+9rSaWKLPbFT+1Ue73NtHVYvKXrqdH3gtd+LLzw4gLX3bpq5ZNijtfLM7I7+KMKkM9WyVeBx268o0DzU4NOLCmNoNhTczlrvceuu9N7higMsIdm/qpNbL0edN/D71TDY7xoo2X8B668O+hRUvLMYQ52n9mk1tg1sdmVltlEmhxug+/3PDLbbvyzbuj/XZnivWlhgbQUZBlJw04CSy2k0Ce0wkN7Zz6KRNKwiO2wvFWXmG1VWurrcTc5iNMbuycEbryhRvfYH8r29zmzzC5a6+Hhsntv7qChoaGtnfHbGY9NDS0bFQHR/uhdoaj/UA7Y28rbxsc8z5aLYhEHxp96MBzCTyWhPtcB1vJ8rayfbSdLEa5ZQmlHIOZYrLqqlWfYtgfGj7FohvO1/QppjaSx6AYBsVCsxuDYoHZjUEx3+yGya20M0xumNzTvHgiNLfZWT1MbtVK1Dtt1wVRoxNLnl9VotKqbfQPMbf5CJObxGkgvH7O06TADKB751MsBFr5EQsWRQySceF7bJwAtOcoUAC2jwAaQGvl2zOfYgy0+ObWHksOMMQr/ZVWANr45GZXvjbI8hlAA+j+APrFNVQqLaWHdopPbu/IQOsADQ0Nza58J6Z665dbTyrB1M/YxJK99L2rS3Tlw3up3mqrOND2Ekpr+eS7m0IXRmzCX7OJ3pKZYrv0Wmfvu/896b+6cuxrdZQ9fsLrJ7x+qtdVAjZeW+nXVjufoCtLS+l7rJ2PNqeh//zooPL6OU5bedDsmo30lu/xk/123/myLMjYT+vvEqA9jyXiwvcwu/BdvYkA9Azxu2jsbdXA3lYKbACdEtBmtFuPchsvn74LX6Odr6f17wrQ6mi08/W0YZfnk/vwSfb6iYklmFiCiSWmD97Wa6s2NDQD/WflutfzdiI+uSu09S7fk8ldr0Vc+B4aUt+tfo0AtKeZATSAbh/oo96rqub70H7/mU1s0dJaQ/tbyh46sZ/Wy77PCmxvtdV+2iDfrX491NLoQ4dmN/aHrrE/tOcwECa3NrmPlulZ41B/DT3XTB/aOAocpNDr5zgddALtm9q/4G1twt0zIssn/e8e3oVBMfShQy2Nudwt7g/996PeSLd5dfV2ODBW8z30O54T/hUvy7RPGfEO+9Arvr+fDp3QQPuufHdtojsf229MbTa3DxugB+kF6UdDQ0NDVxcimlnglpFtfYSGtjS0zBT708PhVjaB90/eAsd/H22/tor2nwdpq9bQ9iurkvLLbb+yKimYGWoADaABNFGr28kK0PVeWx3Qc7jlXPrP+uj3nw+ydhYNHTjZ9zR2xOTGKLd5XYVBsdDcZu8lopX1UWtmOYeGTtDQADrq/RNeP+FTDB5LWFNDQ5sllPBYEi6hxPJJPcu7znlb76GVtoaGhoa2nRzA6ye8fkJDD09DQ2M9dD+shw5fWX1wrByMbssoNwbFsNoKq60WE/vi1iHJgO7pemge6YbJDZMbJjfRJUUoBsUwKAafYuKGaAaDYqptaPwUg2KT3l7R2B+aRserNFqJ7gk9pj6XJ6oUhrnA4ycc7cPRvucsUE8okXO8tsKgGAbFMCgWrInG1E9M/cRMMUz9PA6TGyb3wiWaV2Hh4iWyw8WLl0i2wJGj2dPqEhztwy/3hdALKLx+wuunHvnCayssn4RPsWq4QEMvypBzWZChj1icoaZ7ykorvIeOvoM+eW6KsDgDizPwHhrvofEeGu+hjeUNkxsmN0xumNxEmFiCiSVmQglPKsHEEoxySz8ac7mj/Wj0odGHRh8afWj0odGHRh86mCUGJ4HhLLGxWboAv9wR32L6dZWc47UVXlvR0NkpL5yLmtn8ukoCTG6Y3DC5YXLD5IbJDZMbJne4vxV2n/Rmi8nsMH0UM1sfYXLD5IbJbdZFYz00FmeIg305yhpofcR6aKyHxnporIcOzG6shw5HujHKjVHuvYfHaB+HI2HYf6RMQYDJDZMbJndkTTTWQ8PkptNqLTSfYz001kNjPTRvJ4vN6rBZ3Wy4Dpo3qsNmdbuJzpwv09ETw2EYGqajfjg2NEz1wvGhYTp+UocROn4yGj48OUKRcGqEPqwRTpwaoROn64eh06MUhDOjNOQIJ8+MUs1wdpRONRBOnx2jIJwbo9MJ4cy5MXKG82N0xhHOnh+jSLhQprNWOHehTLEwXKZzKpwfLlOtcGG4TCaMlOlCEMbpwkgYhkfGyRlGx2k4IYyMjpMzjI3TiAqjYxWqFcbGKmRCuUJjCaFcrlAsjFeorML4+ATFQmWCxq1QqUxQYpiYoIoVJiYmKB4maWLCD5OTNOmH4dEJs/hpyfKNEef6XXG0PzQ0RHv27EGADFAHUqoDZ8+e7R3QvMNfuVJFgAxQB1KqA9wn5uXJPdHQABqNGRr0dOsAgE6pZUTFTLdiQp6tyRNAA2iYuzmqAwA6R4UJrdaaVsuT3AA0gIaGzlEdANA5Ksw8aRo8S2vWBoAG0NDQOaoDADpHhQmt1ppWy5PcADSAhobOUR3ILdCViVlU1BxV1Dxp0U4+Sy6BZpinpqZaA/q1e6hUKsXC0k2HWkuvj6Hau+kGKpXuoW19nMdOVv48pp07oAXm6enp1gA0QN9AT+xX/bH9T9FShnxwe2tp9hyY7bSmVKI1r6lnqlQJQEflkQfAcwW0wDwyMkKpAh1Ufgv0noPaaIV0A52HCoxniNaB3ABdmZgxZvb27dvpmWeeSR3osq+lbS2XjQoFoLNRTlE4W8lzLoCemJw1ADPMN9xwA23ZsqXjQBtz9fqnaK+Y4yWtvQ/RE9db/XCHuR6kUfGAC/vuSf3a2vGC9FSeltr5UF0Ht8ld+x7lSvzZ8ji+0ApM/fCbzANtw3zdddd1BGi78nvw3EBLGWptegtMEYB9SKy4QRqRgSkBxoLake62QW40wnhBetZ9yn6DYVsX9jOJFaLHCqL38POm09//FK3J4YBhP8DZSh4yDbQL5o4A7Y98a03kwaC1smcuGQB0hRfYfSA1VElpCID6fu50vYZC4tVLT9+bK4sNdP17ePez02ml4uE37ZvXLhlmFugkmNMB2jKXI+a0VxA2DJ5wo4BFBe5rN6W53Wlw+nbcpHSj8ZLTc4MYjd/IPfz7OeQRfdbOVFbco75cMwl0LZjTATquee3KZGCwNbFDC4e/i8LH151pGI1uxRVz2/F+3PS7/UYiOb0GgG7wHpxvzwz3Gj2xDsLnrF/pELdzMsoc0PVg7inQfl/VXcktSJsBOqEPbIPRFtAN3iNyT5mEo6yOyPfS3cCxa/MXMgV0IzD3FmgfWltzc4V2aG8DoMt8jcWNNwYucNoDurF72PdNvmfntJCdB3wOZZ0ZoAVmnjDSaGipoF0zxRwaJrEii+ka0VqeyatHjzlvHtDRkWoZECvZjYJjYI7T2DYYdg8S8xTrk3sVwLt/OEpernuP7bQm8lytNQItlYujDJBOCLLIIkNAz9DEZHNBHrKpY7tAm4rnA6z6vC4zPABQGgGJH4FGFZodT71T5mcM0nNVfh/WWJ9bvfYycqp5j/hz2Y1UU7J25RPX2jLPMwN0HitKTQBRsduq2HmsL408E4DuITgAWlkfPSyHRkDJShwA3cOKBKABdNoNBYAG0DBte1gHAHSOhJ92YSI9aHxoaDQQ0NA5qgMAOkeFCQ0NDQ2gATQ0dI7qAIDOUWFCQ0NDA2gADQ2dozoAoHNUmNDQ0NA9BbpaXaCZWQTIAHUgrTrQU6D55viDBCCBdCWweTfRkuUbadGixc6QdLdS0hf1rvMNOeAPEoAE0pcAgG5ApuPj4yShgeiIAgn0TAIAOkH0AnDSMeFnuAwJ9FQCANohfoH4rbfeog0bNtCqVato+fLl5rh582Y6f/48NLZDbrjUewkAaKsMGGYGlkFmH2V2ePLJJwOYBXwrCXyEBHomAQCtRC+Arlu3LgYyg+2CmX+DP0igXyQAoFVJMJzPPru1KZilEVDJ4BQS6JkEALQvegHTNrFraWaGn0NHtPTxLTTAjgAHttDxnlUP3DhrEgDQCugPPvggpp2TzGzR5GyeS2OQZuEf3zJApYEBGigN0JZcEr2D1pZKtHZHmlJDWgBaAf3KK6/EgBYNLNDyUWBm7b1s2bIOAH2ctgxwZfeOA7kkGkB3ovkB0Apofk3lMrk11BrmjgG9Yy2VSmuJlZenqfNodgNoAN0JCSigjxw54gSawWWQbZj5eidM7h1rS1QSW9TvS8tHLYIAdulv+876RaOb78WBf6J561kB4Ybz6t7Bzfw4jkyYvKp+fpAn8oAN0lW/Nb9R+TJx1PfBbXHStASgoYkCk/nBBx9MBNqlufkaTzRJd1DM1lzJMAXA2kCVSjQwMBA2CqLp7f64NAQRmHwQVZpEyXlwAm1g9SwMUyP9+0hD49VS+zmbrrv4gUMChQda+satwMyzx+T3Dtm2dkmZ25KAB64CxP/Cu24PmonGtePHAbJhlPtRzCpoFmg7T0Txe8XzE9wfJy1LoNBAC4ytwMyDYTwqnq52TgAnBphX3qF5q8s/IQ3fBA61pAdU+LlWGklpxkF158kfC/DHBbw7AWgt8bTOCwt0OzBzv3loaCh97SwmsN2/lM8RMzhpwCwJPgvghEbCq1h2GvbnsPrZmhdAh7LpxVkhgW4UZl6UwSPf/DqL+8p8zgNn8vu0C8wzoW1T2buL913UlHXDkwSfBXRMY+uniadhwI30tb34AFrLrffnhQNaYExafCGDXwyzXlUlv5Nj+kUXhyh6DxvINjW0DHRZWt/c06G9bXC9vHl50rPZ3I0MTO5oWXbuUyGBds0IE5D5qGHunOitlM1gWO2ZUzZUbniSGoZ4gyCDX8ErMpMlH1JbG/v5031ukx/uDqhGwZ0nF9BJ+bTkgo9NSaCQQLtmhAnQPYGZ/MGlyKCRoxwt6N3wJIHiANrcwgdY+un8yithZpq5n4rHzDfWyLiANg9NrvfUjifHpQYlUEigd+/e7Xzf3CuYGywrRIME6kqgkEBzP9juQ/PItfSZ60oNESCBPpVA4YDmcpCBLR61ltFrudan5YRsQQINSaCQQLNkBGB9bEhiiAQJ9LEECgt0H5cJsgYJtCwBAN2y6PBDSKD/JACg+69MkCNIoGUJAOiWRYcfQgL9JwEA3X9lghxBAi1LAEA3IDqMhDcgJETpCwkA6IRi0BC7zhN+hsuQQE8lAKAd4heAeeIJ9rZyCAiX+lYCANoqGoYZe1tZQsHHzEgAQKuiEs3M87pl9ZU+JjndV0lk6tS9WitTj4DMWhIA0EogDLTLVS9DnQSzNAIqmXROxR2RWmucTsJhKgA6lEVezgC0X5ICptbIcp4Es/jq5t+m/efBltZWON6aZ9tnAYBOu9R6nx6A9suAoXR5MqkFMwPfCUf74gc7va1wAHTvUetODgC0AtrlyYS1sGhvOWqzvCN7Wynf3OloUQDdHZx6fxcArYDm11RiZuujhlrDzHE6AbRx6yP2scNhn5flJFdDUbdAgd8v5TpIfIiFjYXlhkjuHamf/v0c6ehoQZoyBmDv1qEj4zx1CQBoX6SsfftjbytbmyaBm3Q9CrT3eHaa3lUDnwFUuQ72QYz4FRM4I6D7jYA1aOcBPUAD1vXUay4SdEoAQCtnB63soJH63lbK3JYS88BT0Jkv0gI66uubk7Yd/9mfJV/iNVRz7uU1nmbwG5x0VAKFB1r6xa3AnP7eVgmQOs3uhLgOIMl3qq/B41rladP4VrXRBsTTxBGNHVTJeB6ivw0i4qRLEig00O3A3JG9rcS01f1UfR4xY+MwSZ2Ja9QaJnckTS+FCJTOxkTuFM9DUiMhv8CxsxIoLNDtwNypva0iIFnl7n0XNWUNuLba7QcN7WgkrMfBxw5JoJBANwoz++nmke/u7G0V13bRMo+bvnFNzL9wDVa1oaGb3DIHGjpaat3+VDigBWbbL7d+TcXn2um+/EYfUy8oa1cMV/oxgP3f6P6ticNmekRLuhuLJPhiloJ0BSLWgN9wRK4l98tdz4Nr6UugkEC7ZoRpoDXM6YvcnaIHoj2SbcV1QO/BVwq2lGG+YuBzMv5vzdYzPoQNA22y4QOs+vS6IZGcJqUp3+PYWQkUEmjXjDABuhcwd7aIkXqRJFBIoLG3VZGqeLGetZBAc1/Y7kNjb6tiVfy8Pm3hgOaClMEt7G2V12pd3OcqJNAaaoGbj/iDBLIugcICnfWCQ/4hAZcEALRLKrgGCWRUAgA6owWHbEMCLgkAaJdUcA0SyKgEAHQDBYeBswaEhCh9IQEAnVAMGmLXecLPcBkS6KkEALRD/AIwtsJxCAeX+loCANoqHoYZW+FYQsHHzEgAQKuiEs1clK1w1KPjNCcSANCqIBlo202vrMJKcrgvjYBKBqf9IAGzXDTq4aUfstXpPABoX8ICpgCsj0kwM/ziszv1gtLrl9UaZMufQOq37esEm4G0mbh9/dDNZQ5A+/JioF2OD2rBzNCnvxWOOBKIOztg5wHNAe12PdRcFemj2M1A2kzcPnrEdrMCoH0JMtAuxweigUWD81Gb5enunOF2FdR6IQPoLcdbl14WfwmgFdC93grHcycU18ytVywADaAX06JFYUiqS6WkL+pd5xaEQ7/9sebt7VY4zWpnP77qX2vHgIGzQP19xF4X0178kbkaEkecRFPWkZ/I/bwSD3yOiePBEm+bYzs1lNrh3T/wXZZ472byKWnn8wgNrRwetLJ7Rmpb4fgVPKi89erbjrUUjetX6ghE3rXIJU5XYFJfxJwUOuKEjgat0WNXXKc7YfEKau19lQBqzGJxxXPdW64VcKO8wgMtfeNWYE51Kxy/EirG6iEd+z7QfsE3bqCdXkF9AKWRcMfxgbRASYorDYd+Jg9Sq0EQ3986ouuaA+ike7vvEwgmtyeFBrodmFPfCqdFoE2F1mZ1SZvOLqC9awJuWLO1yZ8UR9wBayBrxHVAGdO6fgZi14089H2avLcD/vBZ83tWWKDbgbkzW+HUAiNeAT0ASiR7PXOMGBSuTeoCc1T6ztaRtWStxsUGpVbcJKAjmwD4z2alY57FjtfMve24cRHm8kohgW4U5u5uheM7yI9o2IQ6Z1V+idUQ0C7IJQE5+unHtXiTWrIZoE3S0kB51kLs/jFIazSCsbjycPk+Fg5ogdl246tnhvG5drgvv9HHjlQLHyStdZ33cQIto8z1TG5tWjtTZ11PW3jkOdKn9eJ6Jr42hf24tjbl6I58OjWvZMNAuJZ2yFGuyzEGaTP5lETyfSwk0K4ZYRpoDXPXi99UWvdrHIbJY8zTTBo4Tzuz+ayBTqjw/j1sDbhjrQLVFUfyZg2KCbg6P8GmeVajUBNoGZgbGHA2Jt4ou8ojF04z+ex6YXb/hoUE2jUjTIDuKcxB+fsgRga7LFhFm/txGM64yR1WeL2nlbmN9fvY9xwpANjvZzOc5poFlUnQb2RUnu0Gg6PVBlrGAaThMgmH/5Lu3VQ+w+TyeFZIoLEVThtV2cCjrYA20nL8tB7wjp/gkpJAIYHmvrDdh8ZWOKpW1DhNeu9b4ydNfFVjkKuJVIoctXBAc2HL4Ba2wkmu+qwprXEkbaUAAApwSURBVO6vb9K7zO3kdJr5xtllaCYBxDXTqpcs3xiZv12IudwCtT6iPigJ2P1S0zfujKntgWyNEais4LRxCRRSQzcuHsSEBLIlAQCdrfJCbiGBmhIA0DXFgy8hgWxJAEBnq7yQW0igpgQAdE3x4EtIIFsSANANlBdGwhsQEqL0hQQAdEIxaIhd5wk/w2VIoKcSANAO8QvA2NvKIRxc6msJAGireBhm7G1lCQUfMyMBAK2KSjQz9rZSQsFppiQAoFVxMdDaib4sqeRj0g4a0gioZLpzmrSUsDt3x136VAIA2i8YAVNDLOdJMDP8srNGKuXbDKTNxE0lc0gkCxIA0H4pMdAuTya1YGbgU93bqhlIm4mbhZqIPKYiAQCtgHZ5MhENLBqcj9osT3Vvq2YgbSZuKlUFiWRBAgBaAd3rva2S3fs4qhKAdggFlwC0Arq3e1uJDy+XAwHbX5d4xnTFRaUusgQAtPJg0sp2OKntbcW10KV1xZmfdh8i12zvm0WuyXh2I4HCAy1941ZgTnVvqwSgk3x4eV4+oKHBcVQChQa6HZhT39vKCXQNp3kubR4tW3wqoAQKC3Q7MHdmbyuHye2b1traDuoogA5EgZNQAoUEulGYu723VbwPDQ0dVlWcNSKBwgEtMNt+uWVWmBz1DhryG31sRLhNx4lp3YStbIwyZy+Z6EM3LeOc/6CQQLtmhAnIfNQwd7X8Y0CLGV6iyLYyJh6A7mrZZORmhQTaNSNMgO4ZzFxhXEAH1/39pdg/ds09pjJS85DNjkigkEBjb6uO1CUk2gcSKCTQ3Be2+9DY26oPaiOy0LYECgc0S0wGt7C3Vdv1Bwn0mQQKCbSGWuDmI/4ggaxLoLBAZ73gkH9IwCUBAO2SCq5BAhmVAIDOaMEh25CASwIA2iUVXIMEMioBAJ3RgkO2IQGXBAC0SyrWNYyEWwLBx76VAIBOKBoNses84We4DAn0VAIA2iF+ARh7WzmEg0t9LQEAbRUPw4y9rSyh4GNmJACgVVGJZsbeVkooOM2UBAC0Ki4GWjvRlyWVfEzaQUMaAZVM66fBOme1VLJkrYWukbrnOHAt7agRB1/lWwIA2i9fAVNDLOdJMDP8srNGKtXEtR5aXPY6HYtF7wqgo/Io4icA7Zc6A+3yZFILZga+G3tbwWVvEdFs7ZkBtALa5clENLBocD5qs7wre1vV8v7ZWrnjVzmVAIBWQPft3lYW0EZjD2yh42KO+84C3Sa372iQXRdJiJjvjm12clrZi/BYAFoB3a97W9mgekAP0ABDrWqpHY/IhzUSbwetFaClQZDPgTdRDKwpsWbqFEArDyatbIfT8b2t/JFv7fXTAzfuwtcGOmkbHamh7u9r+AKXH+LYtxIoPNDSN24F5s7sbaVMY2Mi1wdXalcU6HpgJn2f7Atc7oNj/0qg0EC3A3N39rZyVxwDbsSM9uJFgLb63bGUxNyWfrV9VGZ47Le40LcSKCzQ7cDctb2tEqpNQ0D7/WdtqkeT8zQ0uI1KJeufCgl0ozD3fm8rd/VqDGjfdHZoci9VmNZu6Wb7auGAFphtv9wyK0yOegcN+Y0+dqTYXTPFHDdqDGgiErM6oobVKLdjwI1vt2NtvN/uyAYu9aEECgm0a0aYgMxHDXNXyyxtoE3mPdM6eAddKlGEb4Fe96EjEboqAdysTQkUEmjXjDABumcwt1mQ+DkkwBIoJNDY2wqVP68SKCTQ3Be2+9DY2yqvVbxYz1U4oLl4ZXALe1sVq7IX4WkLCbSGWuDmI/4ggaxLoLBAZ73gkH9IwCUBAO2SCq5BAhmVAIDOaMEh25CASwIA2iUVXIMEMioBAJ3RgkO2IQGXBAC0SyrWNYyEWwLBx76VAIBOKBoNses84We4DAn0VAIA2iF+ARh7WzmEg0t9LQEAbRUPw4y9rSyh4GNmJACgVVGJZs7D3lYRd0TqGXGabwkAaFW+DLR2oi9LKvmYtIOGNAIqmZZOjQdOvSY5du45HWgU1EbjtZRZ/KhvJQCg/aIRMDXEcp4EM8MvO2ukW8JJHjnZCckAlUrab7bbN1g8Xro5RGr9KQEA7ZcLA+3yZFILZgY+1b2tgjqSDHQQJTgB0IEocFI8BwdJZc5AuzyZiAYWDc5HbZanurdVkDkAHYgCJ01JABraFxeD2vO9rYKiSwZam9LOfrfvD0zHC5KVrXGC/rk23cNYOMuuBAC0X3YMdM/3tgrqUWNAe9EbNLnFGaByAOg1CIA6EHsOTgC08mDSynY4qe5tFVSo9IHGPlaBcHN9UnigpW/cCsyp720VVLW0gU5KD872A5Hn5KTQQLcDc0f2tgoqVRKALb62EnM76DtbG+IpMzzIAk4yKYHCAt0OzB3b2yqoQikD7Q+GgdtAwLk9KSTQjcLc9b2tgmqWNtAwrQPR5vykcEALzLZfbpkVJke9g4b8Rh87Wy+aAdoNa+y1Ffax6myR9UnqhQTaNSNMQOajhrk35dQM0GZ3OQr2rqr1HtrVl4Yd3psi7tBdCwm0a0aYAN17mDtU0ki2EBIoJNDY26oQdbuQD1lIoLkvbPehsbdVIet/7h66cEBzCcrgFva2yl19LvwDFRJoDbXAzUf8QQJZl0Bhgc56wSH/kIBLAgDaJRVcgwQyKoGuA/3CHqIfvJtRaSHbkECfS4DZ+vit62nRosXOkJT9UtIX9a6/cZjogTfrxcL3kAAk0IoEmK1/WnaPE2aGPOmvZaB3nyJa9WpSsrgOCUAC7Ujg9t8SffTqW7oHdHWB6NqfEfERf5AAJJCeBJipTz81S4s/dln3gObsr3md6J0T6T0IUoIEIAGPqc9seD8R5o6Y3Cz4X+0n2rATRQAJQAJpSoCZ+vhN3+k+0GwaLHuRaHgqzcdBWpBAcSXALF3903JNc7tjGprFjtHu4lY+PHn6EuDR7X/+93traucrrrgi8cYtj3LrFL/5BtGOY/oKziEBSKBZCTBDVz/0fzVhZu28YsWKxKRTAbpSJeJh9mNjiffBF5AAJFBDAszONU+crmtq1zK3OflUgOaETlWIbvsVEb+fxh8kAAk0LgFm5rqfnKXFl3+2rnbuGtCcfdbU/CrrZ+/j/XTjxYmYRZUA88Jztj/z/b/T4ss+2TbMLMfUNLQUCo98b3zPG/1+5QDAFrngCAmIBBhkXguxdPMYXb7q6YZAZs28ZMllkkTiMXWg5U48/P7gW0Sf3uJpbW6JeBIKmxcIkEHR6gDXfWaALdh//ekMferun9NHPnFFwzDXM7WFu44BLTfgIz/MJ1Y8STz7hc0LBMigcHVgw/u0ZPlG+ti/rWgKYga5UZiZta4ALXCzySAZxNG9LA5ygVzsOiD8NHLsKtCcIX4pbmcYn1GJUQfcdaARiHWcrgMtN4e2dhcgKjbkwnXgy1/+T0GlqWPPgJZc3nxz8ppPVG5U7iLVgWuv/axg0fKx50C3nHP8EBKABGISANAxkeACJJBdCQDo7JYdcg4JxCQAoGMiwQVIILsSANDZLTvkHBKISQBAx0SCC5BAdiUAoLNbdsg5JBCTAICOiQQXIIHsSgBAZ7fskHNIICaB/wfjJt4Rl3svVgAAAABJRU5ErkJggg==;" vertex="1" parent="1">
          <mxGeometry x="436" y="-570" width="244" height="326" as="geometry" />
        </mxCell>
        <mxCell id="EXiGh36RY0hB33X0RfPo-12" value="" style="shape=image;verticalLabelPosition=bottom;labelBackgroundColor=#ffffff;verticalAlign=top;aspect=fixed;imageAspect=0;image=data:image/png,iVBORw0KGgoAAAANSUhEUgAAAPQAAADXCAYAAAAtF3xmAAAgAElEQVR4Ae2d+3Mc1ZXH55+BhF2ylSqym6pAsI3koGLjsFWLSahiA8FPGSzjioMh+WHZJH5hHgY7xqa8BLwGxwmG+AHYMYm9a3DsxCRgS/gp20iyrLdGM5LmIVln63T36b7dc3uePRpN93eqTnVPT08/zr2fPueee/vcGOEDDUADodFALDR3ghuBBqABAtCoBNBAiDQAoENUmLgVaABAow5AAyHSAIAOUWHiVqABAI06AA2ESAMAOkSFiVuBBgA06gA0ECINAOgQFSZuBRoA0KgD0ECINACgQ1SYuBVoAECjDkADIdIAgA5RYeJWoIFpA/p6guj0daKjV4m2n4ZAB9GpA590mHWfGaj2p6pAXx0meuEE0b/vIZr3NtHiA0Q/PhydggS0KGuuA8s/MOs+M8AsbD5FVC24qwI0X+wzH5kX/9YZIgY7nb1JY6kJ6htKuaR/KEX9w6qkqX/YLQPDaXJJPE0DeWQwnqbBkcIyNJIhWxIZGtLIcCJDeSWZoXgRMpLMki2jWRrxkcRolrQylqWERpJjWXLJ+AQlPTI6PkE5kpqgUUW4bPLJeGqCDElP0LgtkzSediSVniStZCYp5SPpzCRpJTtJaUUy2ZuUT7LZm2TIxE3K+sjExE3KkcmbNKHI5OQU5cjNKZr0yM2bU+QrU1N00yNTU6ZtZhZ+/XfTwK09TjQwFqzNDhzow5dNkHk5MTlFvYNpuvhlgtquxOkLjZy7EqdzVx05f3WEXHJthC545csRuuiVjgRdtORSR4IudebK5c4EXe5ypL0rSbZcT9IVjVy9nqSr3Y5c6x4ll9wYpS890nFjlDp63NLZM0a29I5Rl49c7xsjR8bpep8p3f3jpJMbA+OkSs9girzSO5QiVYyH6nCK+hRxPUQ1D0vjIel5UNoPQ34w5nnwuR94WYonHdE92IwHmufhlRybIFs0D6ix8QkyRHkwjacmyRafh433YaJ7aOgeEOpDgOu5Kl74+bsBvwW5xTa902ayws3QoD6BAs3uBVvm9MSUUYEYzLb2uCkamBlwAO2G24GZwQbQ4pXYMDPYdQ60WG+22omM2Qxlqx3EJzCguV3Awk8jtmit7cMOzAw1gIaFNpomjnVmSx1FC60CLRAzO2wQK/0EAjS712yZGWZ2aRlmAA2XW2IPcLndLrcKNFtpaV8zQ8xSJZ+Kgb4wQPTo7003m9ubAjOABtAA2gmmqW1oP6Azk0QPvUO0+Kl1ZTNdMdDcDcWNeg7MtF42LbNAbbef4XI77jYHx3wCYhwoQxvaivKHOCimA1oCZczSnf91km655VZavfrpksGuCGi2zvxE4Yhfa3scQFvRbkS53V19UXC5U+k0jY+PUzqdyeni8ka58wHNBDNTX73zfgPqe+9tKgnqioDmfjQOvbN1PsvWGRba6MIC0NEBOjvBXWMpA2YGOpVKUTY7kQN1IZdbLDTTy0z9y4/fM4BmS33HHd8oGuqKgOaRLzyI5NzVEQCt9EUD6GgAnZ2YMABmkA8ePEi7d++mM2fOaKEuBWhm6q5fDdlAM9SzZ88pCuqygeYRLzyMjUcXsXWGhXYGmADo8APNMKfTaRoaGqJDhw5RS0sLPfroo/TSSy/RZ599ZkCdyWRtS10K0MwUs/WVbza5oJ4//8GCUJcNNA845zGqPEIIQDsw86gxAB1uoDNZE+be3l46cuQIPf744wbMP/zhD2nhwoUG1GfPnjXc8Ew2a8SYSgGamWK2bvvOAhfQbKkLfcoGmv18bkP3DqbqGOg2WjcrRrEYSwu9jaGf5jh6DP10jRt3D/3k8eppYpg/+ugjWrFiBc2fP5+2bdtGb731Fj3zzDP0ox/9iJ5//nm6dOkSjY2NEUM9OXlTO75b+qHVNjQPzWW2/vGB/8wB+nvfuz8v02UDLW8SSUCsVJf7o3UNFkgClLK8ezP9UcZ0e8dx83fvOG7+XtZY7jKBfmeF9tpnvfAFgmKaMd2hiXLzyyKWm82WmWF+4IEHaPPmzQa8PT099Ic//IFWr15N3//+92nDhg3U1dVFo6OjlM1miwaajSTzdfsjm3OALmSlKwa6q2+sLAudF2jLYu5kqGcU0B/QYuPalIeP8r08oA/RUj7GskPGCxvoh565/dDj42Y0m9vMTzzxBD344IMGzIlEgrZv307r16+n48eP05///GdatWoV3XfffbR27Vrq6Ogw3e9MxgW1bZ15tJhidwsBzdbf7zMjgH5st7xtdZZ+ebcDy2O7ZxLQH9AiBd5Y84fmW1cS3d67gkoG+tOtNEuOCaDtcd0z8W2rVMrsZ+ZotgTA2M2+ePEivfbaa/TQQw/RvHnz6KmnnqIPP/yQTp06Zazff//9tHHjRjp//rwZ/Z6YsKEuF+h8bvcMAzpOf1zvuOIzCejdzc6DhsG1X6EUoJVl0UExAG1DrL6kMROB5q4pFu6a+ulPf2pAfPLkSXr99dfpBz/4AS1fvpxWrlxJCxYsoKeffpoOHDhgQM2W+uc//7nRncX/5/Z0oYElhSz07bd/zc9Alz+drLShg3C5HQt9kB4TiyXtaJfLfZAWyO/2soV2advQ79NCex+BsYV2ud6H1reh314q+8coNnsLfdytWucV9Bv1nWgFZHkv+sQLjZo2diNtPG29E907Rr9dppxDvc5lh5Thn5Y7rvze/J77vWjjXeh9T7rON3vTYXpxjhz/SXrP9T70YVqmHM8MCD5J76lJJeIXaFOD/H8l7Tu40jr+XJpjb59LL7cqCSLatlGDHLfliCspRBja0Kl0xgCa+5nZrT569Ci98cYb9Nhjj9GSJUuMfmje/vLLL9OiRYuMdjS3p3kbS3d3txFMm5ycrBjofO3oGWGhzUolFShGd61vdZIcCNC/aXFVWu9/FuxREhzsyb/vwt+aSQ7auzRA/075L8PMCQ7+soXulso6+1f0SQGg9yjW3H2dFtTFAP2ePvDGx5v90nk72cFfN+keHo4uYzEF6ANu8N3XFqPHD1iZYlxAq8daSZs2z7XLoWHzJTvjy+dbZPtceqUtnN1W0oZub2+nnTt3GiAvXbqU9u3bR/39/Qbwn3/+OW3atMmIdP/kJz+hEydOGH3VhnUOqA1dd0AbFc1loVXL3EBrPpGMJer2FtplRLpVy9xIa05K5hJ1u2mpc4FWLbHZjWVkLHlHgVzazgK1xkLnuNynf2W3lWe9eM55OcPX5VYss2GxTav8l5cE3ifpHSODySFqlgdNrJFe+Pu4ma3EZbEFaNUyz6WXzkjGEnX7StNSe4FefpicjCWH6Qk5Z8M2+txI43SJXm60wG/cRmc8ke4wWOh0hlMwpYwA15tvvmnA3NzcTHv37jW6priNzeO4eehna2ur0RfNkW52udk1HxwcpHSGx3k73VfltqFnPNCOyx2nnYsUi7DooBnlVqzzXRtaXd1WxzY4bW7DSivW+a6Nba5URP+7UYCIEVtpL9Drnnd+X/Q7MyVRJUBrLXXzocJA57HOplVtpBf+Nk7d7zkWd/am88aYejP90IVcl1uxznNevuBKP/TpK2JdLSvtAnoubTqbVoBO074WKSPL7W513O3l77utM79CGQag1TY0Dx5hy/zuu+8aADPERq6yySni0WH8na04B8O++93v0s9+9rNA29B1BfT5jzfTXWIB2Eqzyz0tQEsl5aUzyMQAWnW5Y4Xa0F/Qc7PVY3nWAwE6RkZbelqAXkn7OJeYCCdfbH2V5lhlxG7357YbvpIOeKxzGIFes2YN7d+/n5LJpGG1eeCJmlOMA188oITbzdyVxV1X3PYOKigGoK2EgYUs9Ntq+3npB0bSQAPo7jZar0CaN8q9V2n7Nn9oJQv8kJbIQ6pEoLm9zLnFdAkCp8dCa4AeUYJmLUfogFhsTzCMYQ4L0Dzcc2x8nHjwCPcr9/X1EbvZ/GaVCrO5zhlKs8aAks7OTmP/eDwOlzsmLvc1d1t5pz1SzL09tw3dQrvs7J/FtKGTpEa42e02gU7SVbUdHYsZfc5G15W0oa1+6E/sCHcjPXfaylryrgq5j8s9ZyudtBMcKG3oWCM9/6kC9N+2UrMExf62lWbLgyL2JO0dMNvQpzc5LrQTFFPbyhzVLrYNrQM6TYN25Fs8kNxgWJiAZivM7Wjpj+YRY/yChpn9MzfrJ2/n38VVZ1d8Qolwc9dVaNvQ3mir+b2BfvmxMrBEcbt1+wcW5T6lRLRjjbT+lJPC92MbVqnE7qUxsES10DZsyn6qhe5VwbX2WWZ2W52yA2DKf63jqVHuvY/n/u7WjwTFUtSrtKPd+5jH0Ee5fYAeUYJjfF2aYFjYgGaoMwx1OkP8HrSTyjcXaE5qwMKW2giGlTCWu1A/9Ix3uXMql0S4c4Z+qhZZKnLw/dDHleAYt6d3u/Jyf0EbFPfbufZG2vBX860rdz/0CtrT4+NycyoiNdLNYFhAG0NAP1UtsNyvRLhNq8390F6om/dpgmJ2X7RqqZ1j5u2HlvazJy+303aOUcOWS66+Z4GZl2EIirlf0HAn5/e63AKzuizlbau6BFqS7iMvdzXych92urPmvEqf2jCbCfeDSrRvt51j+mCYQA2gC2f9LGUs94y00ADaDbLMpFHqyxk8sKR5nzN7Rs+gap1jNHvTBdesGTyDRiBAt77qGhmGmTMct1u1zLIOCz0tr0/W/1Q4eUeKPXHYGGiiToNTKdCf2V1U4q6vpAOYCscV6RaI1SWABtBFTYWjB3ouvfiZM8dV9YC2YAbQABoudzAut/FyhjJhnXeiOv4eJNDqrJ6YrE6CY467zQEy1TLLOiw0LHRRFhpAm1Pl1tPsk5W+PomgmDW4BNPJBhvlhoWGhc6ZIxrdVm7Xu9QoNyw0LLSa7aBm70OjDe0GudxuKwANoAG0lbWkvav+u60ANICuK6B3Lo5RbPFBuiCZS3hpv5whiQ7KTeMLoPuslzT6XSmI0jTgyc3ten2SX6EcSdvZSoy2tOa1SYwUcyLeEYpyK3nE7JcZWshI4Xt1hAD0uP/rk/3OCDGx1Oi2mjCmZ+LpZMZTPJGcJWlOkJ8r6cwkqZLJ8quPbvGO4+bvzosZvI5uKyM4Jrm51Ywl5xniRdabVgDa7rrSvg8NoGl0HC73zHC5315OsVgD/fK45OQ2lwy0KrDQsNCJsSwlxyYcsSAWmHmJfmgT6xpFuc/SL+6O0Z3rzlKhbqtcoL2vUHpenzyxxUlhxC78rC10TPqhT6rvOpu//Z8ExjTzWl3hjJ8srtcnR52c3JwoUBIcKMucJIE9o9TZY6Xw5SW/Nukj6LaauTNnqK43XO4rcacP+vgrdGesgX7B1vlKaRb6TxtalKyfI7SLg2azNtMxK+Mn5+1euEcyfbbRmiUCtJmxRFL4XuYUvku3EIA2M5cgKGa2pb3tZ/6ugizrADogoI1otxrlNrJ8Wil8DevcSGtOCNDK0rDOjbT2pJmT+3IXZ/1ElBtRbgTFDGe9opkzKrDQDPSflNS9ZsYQycmdoF1LrNf6lrzvSuF7qVP5ben7BKAlpxgsNKLcRMZ0lwx1eVPhmF1VpbehrfYzu9hipVULbU0pe6mjjdbIvM8K2OZY7jZaK78t/cCx0mhDm3NDc3+0pw+a+6TRD+12veFyqy73lTi9YSTUX05vltKGNhIFtpCT9XOELmqBtlzt3/KMF87sGa6XM6zf1p203G4ADaAzkzl90GhDtw9TqyVt7XGyxQP0F1fMSLfRdfWxExjL2w/9iZmEf8EeGSEmEW+nDb3guTa61KECbaXyPbmFFm5sM1xtdrcvG0C30FvSjgbQABpAl+tyOxHvP65zprKxM2hyPm6rP9rbbeVuP7fQLtVCe7usYkpebm+XVUyBmaEG0AAaQFcOdKFuq/PqGG5Zl/azurTazxfZOouFtpPsmxbb5XIjyu2a3wrdVui2MgJj5QXFHAsNoN2DTDCwBANLkJebLTUstDL7pJMgEDnF8HKGOtbbd72ifmglQAYLDQs9MpolVRKjWeLx26pgLPetxLnERPzArNFYbrjcGMudpXjSDbJADaBTRnP29kc22wALyLIE0J0JQlAMSQK970Sro8R4HWO5+8bo7OVhQ1ovO33Q3Bdt90Fzf7TiZks+MV7C5YbLLZZZlrDQsNAIilnJ9pGxBBlL/NzxvNsRFLPei1beg/7SWsf70BnX1LKYfRKzT9ojxTCwBBlLkLHEiW4jKKaMFkNQDEExBMV8HG+43HC5MRWOZP9E1k87HRGi3IhyS3RblohyI8qNKDei3GbmzxSi3D5Odf7NcLnhcsPlhsttu9oyuAQuN1xucbVlCZcbLjdcbrjccLmJCC9nIAWRkegACQ6Q4AAJDjBzhjMDJWaftCetm7zpzDop6xGafdJJEHjuatwZISZzXEnaIXWpph6SdSQ4QIIDnuMKUe780Wy/XxHlRpQbUW5EuRHlxmR1RmIDTm6ABAdEU1OWKJYTOcWQU8xwt3nSd7w+6bjd9mTvPOm7ZrJ3HteNBAfWkwQuN1xuuNxwueFyw+WGyz01RTenphx3m91uuNwyHY61RJQbUW5EuTGwxJ4jGlPhYCocJAnEVDjXkILIHFyCgSUYWIKsn+4XMzhXN6bCwVQ46LZCtxW6rbj9jDZ05W3oG31xutIx4EjnAF2x5GrnABWSa50DdK1LlUG61uWWL7sGySXXB+nLPNJxfZA6ugtLZ/cQ2XJjiDo10nVjiPJKzxBdL0K6e4bJlt5h6vaRG73DpJW+YbqhkZ6+YXJJf5x6PNLbH6ccGYhTryJ9A3HKJ/0DcTJkME79toxQ/6AjA4MjpJWhERrwkcGhEdLK8AgNKjI0nKB8MjycIEPiCRr2kXg8QTkykqC4IiMjScqRRJJGPJJIJMlXkklKeCSZTFKujFIyacnoKI1aMjCUrN3MGZ2dnXTmzBkIdIA6EFAd6OnpqR3QPBonnshAoAPUgYDqAHdJ88CtmsxtBaDxMMMDPdg6AKADejKiYgZbMaHP8vQJoAE03N0Q1QEAHaLChFUrz6qFSW8AGkDDQoeoDgDoEBVmmCwN7qU8bwNAA2hY6BDVAQAdosKEVSvPqoVJbwAaQMNCh6gOhBboRDKNihqiihomK1rNewkl0Azz2NhYeUC/v5JisViONGy5VN7xZjBUZ7fMpVhsJR2cwddYzcofxmOHDmiBeXx8vDwADaDn0ittSnusbRs1MOQtR8o7Zs2BOULLYzFa/r5yT4kMAWi3PsIAeKiAFpgHBwcpUKDtyu8BveagFlsh9UCHoQLjHtx1IDRAJ5Ipw80+cuQIvf7664EDHbestNfK1UeFAtD1UU5uOMu55lAAnRxNGwAzzHPnzqUdO3ZUHWjDXW3cRmfFHY+p1vsSvdLoaYdr3HX7GAkTOKft7teuzb+ffTzlmhq816E0HfQud/5zxBO59xbG+EI5MM2E/9Q90F6Y77nnnqoA7a38JjxzqYGhVl1vgckFsAWJZ1/7GK7AlADjgVpz3IMt/NBw9rOP5zlP3HpgeL0L7z2JF6LGCtznsK5NPX7bNloewoDhTICznGuoa6B1MFcFaCvyrVoiEwbVKpvukgGAWuEFdgtIFSq/YwiA6vn0xzUfFLJfoeOp5+bK4gW68DnM83mPU07Fw38qd691OqxboP1gDgZoj7vscqfNgvDCYCrXDZhb4ZZ1Uyy3/hh8fO++fsd17+d/PD2I7v2LOYd1Po0+3PdancqKcxTWa10CnQ/mYIDOtbzeymTA4LXEGivs/M8NH2/XHsOw6J59xd3W9I8b7W7rIeF/vCKALvIcfN2mG24+9MQ7cO6zcKXDvtXTUd0BXQjmmgJttVX1ldwDaSlA+7SBvWBUBHSR53CdUwbhKF6H63dpbmA5beMX6groYmCuLdAWtF7LzRVaY70NAHXua86+uQ8DHTiVAV3cObzn9T9n9ayQ9xrw3dF13QAtMPOAkWKlrILWjRTTWBjfiiyuq8tqmS6vGj3mazOBdkeqJSAW8z4UNIE5PsbBFqd54HtNOW1yswKY53ei5PGC5zhCy133Vd5DoKxy0ZQBjuOALLqoI6BTlBwtTeQmS1pWCrRR8SyAlTavzg23AZSHgOzvgkYpNO9+Sp8y36N9PF3lt2DNaXMr3V6GnvKeI/e+vA+pknStu05sq8g9rxugw1hR8gKIil1RxQ5jfSnmngB0DcEB0Ir3UcNyKAaUetkHQNewIgFoAB30gwJAA2i4tjWsAwA6RMoPujBxPFh8WGg8IGChQ1QHAHSIChMWGhYaQANoWOgQ1QEAHaLChIWGhQbQABoWOkR1AECHqDBhoWGhawp0JjNJqTQEOkAdCKoO1BRoPjk+0AA0EKwGtp8muv2RzXTLLbdqxe9sMb8fCm3nE7LgAw1AA8FrAEAXodORkRESKWJ37AIN1EwDANpH9QKw39Lnb9gMDdRUAwBao36B+NixY7R27VpavHgxPfLII8Zy+/bt1NfXB4ut0Rs21V4DANpTBgwzA8sgc44yr2zdutWGWcD3HAJfoYGaaQBAK6oXQFevXp0DMoOtg5n/gw80MFM0AKCVkmA433hjV0kwy0NAOcz0rB5dRbFYE+24Nj2nw1nqQwMA2ionAdPrYuezzAw/S2BWuhRIS9m3PuoirjIADQBoBehz587lWGc/N1ssObvn8jCouDxKgbSUfSu+MBygXjQAoK2SYij379+fA7RYYIGWlwIzW+958+YB6Hqp7RG4TgCtAM3dVDqXW4VahRlAR4CQOrtFAK0A3d7ergWawWWQvTDz9ulxuY/SKknEbyxX0VG43HWG2vRcLoAmsl3mZ5991hdoneXmbTzQhN3wQD46SK/toCaGeNVR5xSyDVFuRydYMzQQeaClbVwOzDx6TP4fSH3SAH10VYxiTTvI2zt1bUcTuq0CUXq4DhJpoAXGcmDmYBhHxQOzzlyvcoA2Xe0mXWdzzr7hqpi4m/I0EFmgK4GZ282dnZ3BWmcd0JZrrXrbdjEDaFsVWHE0EEmgi4WZX8rgyDd3Z3Fbmdc5cCb/d9QY0FoOpLDQAWk2MoeJHNACo9/LFxL8YpjVt6rkf7KsSg3JAfoa7WjyBMSsExttawTFqlIM9XzQSAKtGxEmIPNShXlaCzcHaGlXx8jVjjb248niMZZ7WsunDk4WSaB1I8IE6JrBzJVFB7S9nQG2hBvVfvvWQaXDJVZPA5EE+vTp09r+5prCXL0yxpEjpIFIAs3tYG8bmiPX0maOUPnjVkOmgcgBzeUngS2OWkv0WraFrHxxOxHTQCSBVqEWkHmJDzRQ7xqILND1XnC4fmhApwEArdMKtkEDdaoBAF2nBYfLhgZ0GgDQOq1gGzRQpxoA0HVacLhsaECnAQCt04pnGyLhHoXg64zVAID2KRoVYt26z9+wGRqoqQYAtEb9AjAPPMHcVhoFYdOM1QCA9hQNw4y5rTxKwde60QCAVopKLDOP65a3r9SlX9J95RBYhQZqqgEAraifgdal6mWo/WCWh4BymPJX5T1nTVJAOahf0kD5HctoawBAW+UvYKoWWdb9YJZc3fzfQD4CdMyT0EA5OIBWlIHVHA0AaEslDKUuk0k+mBn4aiTaX7XKP0UvgM6pw9igaABAK0DrMpmwFRbrLUvVLa/O3FZWLjGN6w2gldqL1RwNAGgFaO6mEjdbXapQqzDzPtUBWtIRxcibwlcPtPUAkBRFvPQ8DIzE/LzNnnXDTGckucrMxP1OmiPveU01aabkyalS2FBLDQBoS/tsfWfa3FYGvLFVpEyCQ1qgj65yJxEkCzyFShtYBXTZ1tTU5Jpqx9zuSUAoDwLlmLrrq2VlxrmJALSSwaScGTSqO7dVLphaoDU12YAyB14PpCSW3f3QIOuBoLCrf5BY+4mV11wGNk2zBiIPtLSLy4F5Oua2MrN7Oq53PqBNi+m4zTHFunsBN+uZX95vb4J/73eppX7/l9+xnG4NRBroSmCenrmtuDpY0FjWVge0uM7qDJXmNsfyVgS0uNtqG11dV035dNdgnM+lgcgCXQnM0za3lRSVBRS7tjlAW795mQoUaI0LLpeG5czSQCSBLhZmztPNke/azW3lVBYT0CZq4qlxlLYxaYHObRtXZKHFS/A+NZzLw9oM0UDkgBaYvXm51W4qXleT7st/1GVVyi/vbBgCqQfofBHtwNrQTjeaNwB2dJU30FYVzeCgRWogkkDrRoSpQKswF6nHYHbLC7QDlctC85k9bVyGLliX27o9z3mMqXlgtYMp+4COEkmgdSPCBOiawRxQgeIw0dZAJIHG3FbRrvRhvvtIAs1tYW8bGnNbhbmaR+feIgc0F60EtzC3VXQqelTuNJJAq1AL3LzEBxqodw1EFuh6LzhcPzSg0wCA1mkF26CBOtXAtAP9678TbT5Vp9rCZUMDM1wDzNbtDz9Pt9xyq1b8Lj/m90Oh7fvPEz17rNBe+B0agAbK0QCz9Q//9rQWZobc71M20KevEy0+4HdYbIcGoIFKNMBs3XbPw9MH9MAY0Xf+p5JLxn+hAWjATwPf2p6hW7/2jekDmi/k0d8TnenxuyRshwaggXI0wEzd/WK7L8xVcbn5QjkSx4IPNAANBKcBZurrC7ZOP9Dsds97mygzGdzN4EjQQJQ1wCzNeS1JX/n6t6YfaFY8rHSUqx/uPWgNME/fXPbfeWG+445v+J627Ci3HJGfKA+9Q3R1WLZgCQ1AA+VogBma9Uo33Xrb1/ICPX/+g76HrxhoPjJfCAfIEhnf8+AHaAAayKMBZufe1wbp1jvm5IU5X0CMDx8I0HygTzrMfmluV+MDDUADxWuAmeF+53/616UFYZ42oPnyOdyOrqziCxJ7QgM8QKvx1X766t0PFgVzc/OyvEoLzELLWa4nTKh/fJiI1/GBBqCBXA1cGCBa/gHRt5/7omBEm62ySO6R3FsCB1oOf/Sq2aXFFptf5OAnEbq3RDtYRk0DXPeZAWaBg8jf3tRJt31ngV8N1DoAAAD9SURBVA2qAJtvWYzOqga0nJzdcH5zhJ9E/7xtgu7YThDoIHJ1gOs+M/D1xTvoq3feXxLIDHm+yLawxsuqAy0nW7NmTck3ke9phd8cNwy6CLcu7r23STAquJw2oOVKUPnCXflQvsGW74IFCwSdopbTDjRfFbsPKPhgCx76DJc+840Gy0d2TYCWC+KnDypiuCoiyrOy8izFvRaO1GVNgVYvRNYffvg/CAIdRKUOSL0PajnjgA7qxnAcaCCKGgDQUSx13HNoNQCgQ1u0uLEoagBAR7HUcc+h1QCADm3R4saiqAEAHcVSxz2HVgMAOrRFixuLogYAdBRLHfccWg38P7bsAUOPTdfTAAAAAElFTkSuQmCC;" vertex="1" parent="1">
          <mxGeometry x="680" y="330" width="244" height="215" as="geometry" />
        </mxCell>
        <mxCell id="EXiGh36RY0hB33X0RfPo-13" value="" style="shape=image;verticalLabelPosition=bottom;labelBackgroundColor=#ffffff;verticalAlign=top;aspect=fixed;imageAspect=0;image=data:image/png,iVBORw0KGgoAAAANSUhEUgAAAPQAAAFhCAYAAABH84e6AAAgAElEQVR4Ae2d+7MdxZHnzz8jdoiRf2JidsMwIBth33UY88MCNhGswTwEDJaA8LUF9g/j8RgBA6xtxLDgULCYhWGwMR6DMNjCI3YxWHiZXRskwAghoau3dN+67yvlRlZXdmdVV59Hnz6P7v7eiLrdp7u6ujqrPp1Z1VVZDcIfJAAJVEYCjco8CR4EEoAECECjEkACFZIAgK5QYeJRIAEAjToACVRIAgC6QoWJR4EEADTqACRQIQkA6AoVJh4FEgDQqAOQQIUkAKArVJh4FEgAQKMOQAIVkgCArlBh4lEgAQCNOgAJVEgCALpChYlHgQT6BvThGaK3DxPt3E/02NsIkEF96sAbB6O6zwz0+q+nQO+fJHrwTaL/8izRpf9MtOFFom/8uj4FCWhR1lwHNv4qqvvMALOw9S2iXsHdE6A5s3e9GmX+6XeIGOzF5TM0t7BCJyYWnHByYoFOTuqwSCcn3XBqcpGcMLVIp5qE8alFGp9uHSamlygOM0s0EQiTM0vUNMwu0VQbYXp2meJwepmmM8LM6WUKhrllmgmE2bllcsL8Cs164fT8CqXCwgqdVoHLplmYX1ghExZXaD4OqzS/mISFxVUKhqVVWsgIi0urFAzLq7SowtLyGWoWlpfPkAkrZ2g5I6ysnKFUWD1DKyqsrp6lVDhzlla9cObMWcoMZ8/SGS+cPRvpZmbhf/y/SMFteZ3o1FyxOrtwoH/9UQQyb1dWz9Lx8UX68JMZ2vPxFL0XCO9/PEXv70/CB/unyQkHpunPfvhkmj70w8EZ+tCGvQdnaO9YOnw0NkMfHUrCvkOzFIfDs/RxIOw/PEv7jyThwJHT5ISjp+kTLxw8epoOHnPD2LE5isPxOTqUEQ6fmKMkzNPhE1E4cnKeQuHoqXnS4dj4Avnh+MQC6WBeqpMLdEIF5yUaeFmal6T3ooxfhvxibPLic194yzQ1m4TQi8280LyX1+zcCsUh8IKam18hE9SLaX5hleKQ8bLxXyahl0boBaFfAlzPdfDh598Gfgu5ZZue2xOxws3Qov4KBZrNC9bMiytnTQViMPfsm4pCAGYGHEC7cCcwM9gAWqySGGYGu+RAi/ZmrT2zFDVDWWsX8VcY0Nwu4MBvI9Zou/dNJjAz1AAaGto0TRLtzJq6jhpaAy0QMzusELv9KwRoNq9ZMzPMbNIyzAAaJrf0PcDkdk1uDTRraWlfM0PMUjd/XQP951NE1/5rZGZze1NgBtAAGkAnnWm6DZ0F9NIq0VXPEW341j25me4aaP4MxY167pjZ/VGkmQXquP0Mkzsxt7lzLKNDjDvK0Ia2vfwV7hQLAS0dZczS+X+/i9asOYc2b76zY7C7Apq1M79RuMdv974pAG17u9HL7X7qq4PJvbC4SPPz87S4uJT6xOX3cjcDmglmpv7i/MsM1J///EhHUHcFNH9H46531s7vsnaGhjafsAB0fYBeXuFPYwsGZgZ6YWGBlpdXUlC3MrlFQzO9zNRff+MXBmjW1Oed91dtQ90V0DzyhQeRvL9/GkCrb9EAuh5AL6+sGIAZ5O3bt9MzzzxD77zzThDqToBmpi74p4kYaIZ63brPtAV1bqB5xAsPY+PRRaydoaGTASYAuvpAM8yLi4s0MTFBr7zyCm3atImuvfZa+sEPfkB//OMfDdRLS8uxpu4EaGaK2foP/3HEgfqKK65sCXVuoHnAOY9R5RFCADqBmUeNAehqA720HMF8/Phx2rFjB916660G5q9+9at0ww03GKjfffddY4YvLS+bPqZOgGammK1zP3e9AzRr6lZ/uYFmO5/b0MfHF4YE6D1090UNajQ4bKKnmg793ENbVNyneQhoYNgnDwXt/9DP9+mBz8hz3E4/w9BPM4Z9eEaK8Xj1RWKYX331VbrtttvoiiuuoEcffZSefvppuuuuu+hrX/saPfDAA7R3716am5sjhnp19UxwfLd8h9ZtaB6ay2z95eV/lwL6S1+6rCnTuYGWmUTSIZbP5N5O1xkApQLLdhM9KWO6/XHc/Nsfx82/D3YP9OsPrLcvBMmH2q57mH53ZNYdx83julXbWcZ0d6ehAfTQjuXmySLWzGbNzDBffvnltHXrVgPvsWPH6De/+Q1t3ryZvvzlL9N9991Hhw4dotOnT9Py8nLbQLOSZL7WXrM1BXQrLd010IdOzOXT0P+8MRuexhACbTX/v/R8cgaAHlag5+ej3mxuM3/961+nK6+80sA8MzNDjz32GN177730+uuv0+9//3saHR2lL3zhC7RlyxY6ePBgZH4vLTlQx9qZR4spvdsKaNb+WX8DAtrVzNc9o2db7abvXzh4oG/8WTT7av/hPXTvukRTb3iu17OtAPQwAr2wEH1n5t5s6QBjM/vDDz+kH//4x3TVVVfRpZdeSt/61rfo5ZdfprfeesvsX3bZZXT//ffTBx98EPV+r6zEUOcFupnZPRigX3+IzhdT+8KH6LeFTJ8s1uROgJ6l3z2YmOIAOplnXqfpk/xpigN/mvr2t79tIN61axc9/vjj9JWvfIU2btxId9xxB11//fV055130osvvmigZk39ve99z3zO4uu5Pd1qYEkrDb127aeyFHT+5WSlDZ3L5NZANxrkaujQfOjtdL28AOLtJnpKt6WbtaF/uskx7y+8/6Vgp5huQydA/4pulHuue5jeSJncL9MGOR9vb6Nng/OhX6Gb4jii9W+jn6qhoIdPhDX0c7dK/AY1PvMI/cHOj9ZzoXnfnwvNv/VcaN7HfOjEEUO786EXFpcM0Pydmc3qnTt30hNPPEHXXXcd3XTTTeY7NB//0Y9+RDfeeKNpR3N7mo9xOHLkiOlMW11d7RroZu3owWjoj6foiRtVBbWVnMF2nBtwx9i/uDBGvdjJtdc/a50dZAD92v2JdvWvlR5x6eXWQPtxL3xwj5kW6jg3eO4250XhX3PT88kEjbHnm8e9+RfRvOgg0L+4PbmPgpkdHgDoyBtLPxwcSBt637599OSTTxqQb775ZvrlL39JJ0+eNMD/6U9/oh/+8Iemp/ub3/wmvfnmm+ZbtdHOBbWhhxLo9z5+l/7hwgTMBIaL6fu/Ey2t29oX091vWO8ln2iNbTV1EOiX6IZYI66nLbustxJHY2+idoA2+XM0tNbM6+m+/yPfol9WWlg0tT62nu7/d3Fq8ArdHOcv0tRpoHWc2+k5z3MJgO4P0ItL7IJpwXRw/eQnPzEw33LLLfTzn//cfJriNjaP4+ahn7t37zbformnm01uNs3Hx8dpcYnHeSefr/K2oYcU6Mgl0fsfa2gFcNsp9kyinS+4b3fiiuiTaXrtvotjrWW0dAhoBe4F9++hxAVR+Du01tCJyT1Lz9wi+WpQ45aXo09XSjtf9OB7jhuiN1Wb22hppZ0v+m/vO7Otdv0gsSBYS/tAP6DO3/KLtBsiAN0foHUbmgePsGZ+/vnnDcAMsfFVtnqWeHQY/2Ytzp1hX/ziF+k73/lOoW3oIQdaerhdsC+4dzd9MCRA7//Dw3ShaNJ1/xS1o/sCtHqRNNLaGSZ34vyw1ya3Bvruu++mF154gWZnZ43WZp9j2qcYd3zxgBJuN/OnLP50xW3vojrFSgL0FP323kTrAmiG+Xb6mW4/3/pKylEgNHR/NDQP95ybnycePMLflU+cOEFsZvPMKg1ztM8eSpfNgJKxsTETf2pqqsImN/dyX/gQveo4CXQ19HXPcDtaH9tET8qosXbb0LsepgtEs9rhoOwi6X85HWXhNnRLk/uIbkPfRs/GI8Z0eznUhta92rp9nNWGnqef/W2iqX2zG0D3B2jWwtyOlu/RPGKMJ2hE3j/TXj/5OJ8Xzc6m+Irq4eZPV9VpQ3ufrZIOMVtxL9xKv5Whn132cj91UwJD6j4G9jDQ4bjr6b4/qIElyuwOxS+sl/vfH6F18YtpPT34f5O2NIDuH9AM9RJDvbhEPA86ceWbBpqdGnBgTW06wzoYy93qO/QQmtxZPdz8TVp6uO3WaGXdqy2Atv8d2v90dcNPW3eKpQDNHMutNbXkTTSz+mxl/HLn/w79B9U5xqa49HYD6P4CLT66E5jd9jOb3AKz3nYy26qEQCdO9+GXWz5hyXdo7VcMfrmr7pc7NrvV2C8AbWZbYeUM1tYYKZYs6ROvmsEraAzRyhndDv0cQpMbGhpL4UQO9+vuaB8aOnM+NDQ0NHSindmNDzS0suNb7XY1OUMti4M2NNrQvpYexumT0hkmW3SKKYj1KpQAGkAD6M4cHKANbf2LJWO5o0ka8VKyQ+VTDL3c0NDNXRABaADtzInGfOjO50OLqS1bmNwwuZP1rZRDA7+3G2tb1XttK+67wndofIeOHR3gO3TS041e7lZd2+p8v3q5n9zQoMaG7clcaHy2cmZcYegnhn4qLAfkU0yZ300dHOyfJgAdDf/kuc+hAKAB9NAA/eo90fxn30ngkzcmbogANIDm8dzDs3IGT4vkCRk6ZM+2kgka1Z+cYRztX0zff108lkRb30kggAbQAPqc1AoaWivr/QF5/YymT55/z7vUamBJGmh/KqU4CbRDP9/UTg0a1LjoYXpNPlvtUq6EeH7xRQ/T/+Zv0PgOTScnF5MwtUinvDA+tUgmTNfTL7d8rpItNLRqN79nHBxcTP/A2pm9ljRxtO8D/W/3bTLePz+0Prmf4k6zi7bSawcZ6JeM/+4bnp2hvQbiPXT3TQJ05AH0hp9az5+H9tA9NwPoE5MLxAFArxL76F5aZvdBbhCI9RZAFwT0n/1e7mfZM+gmeoqBNtp5Pd39pgCttkY7K1e+h2YizQwNDaCXIpgB9NtE+VfOyKehGeh/Uy58I88iFuiDMxS7HLrpJaulE6jjcze/ROxbDEM/I+0MDQ2gzXKX/C06F9DWF3fnbWjbfmYTW5bB0RramN0ztFf76FZgR2O5lfuhm3+VQD0060NjLDfGcpdwLHe0FM5G+kknbWjjMHATPSkw8zYItNXKxtH+erp7V/TbmZxhz92zC51i0NDQ0F1qaPZYIo4C+Ztz0jHGn60yv0O/sdW45Y3Xs4rd+SZt6Ov/cQ/tPaiB3kRPcQfZrofpBl4945BeDsd6/EQvNzrFbDva7xDj37ozTPbRKaY7xdT+b+3gEsfL5o3b40Xr0r3ciTN+0xmmNbT/ycr64jY93v4nq4aCGUADaABNRkvna0PDp5g/y0p+Y7YVZlththW3pW2HGG9jk9sOKIm+Sc+oxerg4EC+P8sW36HxHRoamhd/j5fAkeVkT9PBo4mD/YN24fcx42h/LpoTjfnQNDULr5+xx8+zcEFEMlIs3kJDmznRmA+N+dB6bHfb+/2aD/2BWQrHLvQu+/qzlewDaAA9n8AMN75toxxFBNB20TqY3DQxvUQTM0s0mRGmZpcoCZGpDZO7SqtPqs9WrSZnQENj+iSmTw799El8tpLPVP4Wn63w2QqfrfDZCk4Cuf2MNvQw+BRLhn3yvGjfYwlMbpjcMLlhcqemTvLgEmdyBqZPmnnQGFiSTMzAfOjc0yfRhvbbzvIbbWi0odGGRhsabWi0oc335AE5CYSGFo3sb6GhoaGhoaGhoaGhoaGh4VMMPsW4I0wHODg4MUfvfjRpwu6PJmn3viTs2TdFcVCjw7Dgu7vIuza7YXLD5IbJDZMbJjdMbpjcMLlhcmtzG9+h8R0aDg54phVmW9HKarJgnSxQp7fVX6zOtqkx28ptT6MNjTY02tBoQ6MNjTY02tBoQ6MNjTa0eQ9ELnzzL4WDkWL6U5Xeh8kNkxsmN0xumNwwuWFyw+SGyQ2TGyY3HWB/3BLgJBCfrdQnK/58pT9XyT4+W+2fjryXiOtevWUT2w9w42vMbvjlTlz5zi+sUhwWV2khEKChoaET7YyVMyLtjIElGFgiEzQwsAQDS6ZPL5MOWPB9gAu+Hz0xRR8fPJWEsVP0sQ37x05Rq3Bg7BQdOKTDOB045IZPDo2TEw6P0ydNwsHD43TwSOswdmSC4nB0gsYC4dDRCWoajk3Q4TbCkWOTFIfjk3QkIxw9PknBcGKSjgbCsROT5ISTU3TMC8dPTlEqnJqi4yqcODVFzcLJU1NkwvgUnYzDNJ0cT8Kp8WkKholpOpURxiemKRgmp2lchYnJGWoWJidnyISpGZrMCFNTM5QK0zM0pcL09CylwswsTXthZmaWMsPsLM14YXZ2ltLhNM3O2nD6NJ224dTErFk3bu01W2nNmrSDQD6W9de1x5KxsTF65513ECAD1IGC6sCxY8cGBzR3OkzNLCFABqgDBdUB1r48aGsgGhpA42WGF3qxdQBAF/RmRMUstmJCnvnkCaABNMzdCtUBAF2hwoRWy6fVqiQ3AA2goaErVAcAdIUKs0qaBs+Sz9oA0AAaGrpCdQBAV6gwodXyabUqyQ1AA2ho6ArVgcoCPTO7iIpaoYpaJS3ay2epJNAM89zcXD6gX7qDGo1GKlz88N586Q0xVO8+fAk1GnfQ9iHOYy8rfxXTrhzQAvP8/Hw+AA3Ql9BDe1R7bM+jdDFDvmlHvjQHDswO2tho0MaX1DPNLBGAduVRBcArBbTAPD4+ToUCHVd+D/SBg9puhQwDXYUKjGdw60BlgJ6ZXTBm9o4dO+jxxx8vHOgpq6V9LVeOCgWgy1FOLpx58lwJoGdPLxqAGeZLLrmEtm3b1nOgjbm6/lF6V8zxhtbee+mh9V47PGCux2nMRMAlbfesdm3zeHF6Kk8X+/lQTYewyd38HlMz6WerYv9CHpiG4ZrSA+3D/NnPfrYnQPuVP4LnErqYodamt8DkAGwh8eLGaTgdUwKMB3Ug3e2b+KWRxIvT8+4zZV8YvnXhP5NYIbqvwL2HzZtOf8+jtLGCHYbDAGeePJQa6BDMPQHa9nxrTRTBoLVyZC4ZAHSFF9gtkBqqrDQEQH2/cLrRi0LitUpP35sriw9063tE9/PTyVPxcE335nVIhqUFOgvmYoD2zGXHnI4KwochEq4LmCtwq92U5g6nwen7cbPSdeNlpxcG0Y3fzj3s/QLycJ+1N5UV92gt11IC3QzmYoBOa16/MhkYfE0c0MLJdS58fDyYhtHoXlwxtwPfx027274kstNrA+g278H5jszw6KUn1kHynK0rHeL2TkalA7oVzAMF2rZVw5Xcg7QToDPawD4YXQHd5j2ce8ogHGV1OOeluYFt38YvlArodmAeLNAWWl9zc4UOaG8DYMh8TcVNvwxC4HQHdHv38O+bfc/eaSE/D/idyLo0QAvMPGCk3ZCroEMjxQIaJrMii+nqaK3I5NW9x5y3CGi3p1o6xBr+SyHQMcdpbN+UNA8y85Rqk0cVILp/0ks+1fIeO2ij81z5XgK5yiVQBkgnAVlkUSKgF2j2dGdBHrKjbbdAm4pnAVZt3pAZHgMoLwGJ70CjCs2Pp74p8zPG6YUqv4U11eZWn72MnJreI/1c/kuqI1mH8oljXZnnpQG6ihWlKYCo2F1V7CrWl3aeCUAPEBwArayPAZZDO6CUJQ6AHmBFAtAAuugXBYAG0DBtB1gHAHSFhF90YSI9aHxoaLwgoKErVAcAdIUKExoaGhpAA2ho6ArVAQBdocKEhoaGBtAAGhq6QnUAQFeoMKGhoaEHCvTS0iotLCJABqgDRdWBgQLNN8cfJAAJFCuBx94mWnvNVlqz5pxgyLpbI+tEq+N8Qw74gwQggeIlAKDbkOn09DRJaCM6okACA5MAgM4QvQCctc24DIchgYFKAEAHxC8Qv/baa7RlyxbasGEDXXPNNWb72GOP0YkTJ6CxA3LDocFLAEB7ZcAwM7AMMvso88MjjzwSwyzge0ngJyQwMAkAaCV6AXTz5s0pkBnsEMx8Df4ggWGRAIBWJcFwPvHEUx3BLC8BlUxpdg9sG6HGyDY6UJocI6OtJACgrYQETN/EbqaZGX4OPdHSB7bRCDsC7CFwALoVHuU7D6AV0O+//35KO2eZ2aLJ2TyXl0GRxR/BNkIjjRHa1rUK3UmjjQaN7nRzCKBdeVThF4C2pchQvvDCCymgRQMLtLwVmFl7X3rppT0A+gBtG2EAo+1I10QD6CrA2s4zAGgFNH+mCpncGmoNc8+A3jlKjcYosUItRosC6HZgqEIcAK2A3rdvXxBoBpdB9mHm470wuXeONqgh9rFtS8vPpNJF2juOl5wgc71te5t9ceIvW5tY8rKIgI8XnU/fjF8txmqI43BagXhxmtIHUEiTQT0cdptKAEATxSbzd7/73UygQ5qbj/FAEzbDi/vztWkWuFnHyQE6ypefZnTUwGcgj6wBc9SC6Jj5AqcDsH0JeJ12EdAjNOIdL04+SKmZBGoPtLSN88DMo8fk+mZC7uicMrflugg8BZ05URTQ6U43reH5Vv5vyRcFrIcor+k042uw01MJ1BpogTEPzNwZxr3ixWrnDEgD4MQmsKM1o7qSBrCJhg5oUvcFEl3raOy4Sqbz614bR8ROnyRQW6C7gZnbzWNjY8VrZzFtpa3rbx340jBJnSkU6ODLRO6UzoMB2smnxMW2HxKoJdDtwsyTMrjnmz9ncVuZ97njTK4vuoCaabfonGvKGnCHUUMD6KKrRtvp1Q5ogTFr8oV0fjHMelaVXCfbtiXcdsS0tnMvTZu+aU3MV4Q6q7oxuW2+QpAGtDc0tFtq/f5VS6BDI8IEZN5qmPtWIKYzLD2aS98/BbC9RrdvTRw21R0Awy+LLPhSloI0BRxrwL44nGNFfTfXT439TiRQS6BDI8IE6IHALD3JdjBJZgEGoI/ga5B8H2a+UuBzgvZaE89C2DbQJkMWYNWu1y8SyXNWmnIe295KoJZAv/3228HvzYOCubdFjNTrJIFaAs3tYL8NzT3X0mauUwXAs1ZLArUDmotPOra411p6r+VYtYoXT1M3CdQSaA21gMxb/EECZZdAbYEue8Eh/5BASAIAOiQVHIMESioBAF3SgkO2IYGQBAB0SCo4BgmUVAIAuqQFh2xDAiEJAOiQVLxj6An3BIKfQysBAJ1RNBri0H7GZTgMCQxUAgA6IH4BmAeeYG2rgIBwaGglAKC9omGYsbaVJxT8LI0EALQqKtHMPK5bZl/pbZbTfZUEdodFAmZ2mesQYliy1st8AGglXQY65KqXoc6CWV4CKplidvV0RzVl0Zt+XMy9ypJKJ5B2Ercsz99GPgG0FZKAqTWy7GfBLL66+dri/mTese/lM3Ie0BnQYU8lxeW1zyl1Amkncfv8GL28HYC20mUoQ55MmsHMwBfraD/sWSR/BQDQXa8ilF/4A7kSQCugQ55MWAuL9patNsuLXNsq5fqn6yoBoAH0ObRmTRKyqlQj60Sr4/wG4TBsfwwrf6YSM1tvNdQaZo5THNCdamcbX7WvtR+x2LeYPu/Y62Lai/uitIkfOxyM0xilnZmmbCA/zv2iEo9dFImfsgavsuH7QJPaEeUxdnWUee/As2TGlbSruYWGtuXKQA90bStbwePK26q+7RwlN66t1A5E0THnEKcrMKkT0QtAQR2Ik/gl83qPQ3GD3kfFiaC3VE4GfCmLJRQvdG85VsN1tQC08mCSZwWNwta2spVQMdYK6dT5WPvFZ8JAB50IWgDlJRGOY4H0QMmKKy8O/UwRpN4LQRbC0xFDxwJAZ907fJ9YMJXdqT3Q0i7OA3Oha1vlBNpU6NgkZvNZaVkLqcOJB25Ss7XJH70IBO4kjngP1UA2iRuAMqV1beKp40Ye+j4d3jsAv/McFf1Ra6C7gbn4ta2agZGufREA7pKuKShCQMfmqLSdvS3T3+zl4oPSLG4W0I7P8JhoGmkkfsnNs/jxOrm3HzctwkoeqS3Q3cDcq7WtIm2rNWxGncuAqC2gQ5D7t7Hp90xD+6Da+5vnN+ZEZC2k7p+CtMlLMBXXf8hq/q4l0O3CzH66uee7X2tbiWYMLaTuVL8g0NLLrF8IUYV3TW5tWjupqh/ZcaKXjjaFbdwQpIF8BjWv3NlAKD3p+jlshBSkneRTblLtbe2AFph9v9z6MxXva6f7co3e9qxamEob/ozDMEVwRqBq8CPt7LehMyq8vYevAXeOKlBDcSRvXqdY+EWUziPLrCnQ0r4fGSH9bLGszf1VHvlEJ/mME6ruTi2BDo0I00BrmAdT9BZEp7PLg9VqP1kCh+FMm9xJhddL4Jhn8q5PnedIMcC2nc1vkxBUJkELsMqz/8LgaM2Bll50eXGZhJN/WffuKJ9JclXcqyXQoRFhAvTgYR7yambgCZjDBWW7FfAF3aayydQSaKxtlb8+mzZ0qL2cP0l1ZaTlQ5pdRcJuEwnUEmhuC/ttaKxt5dYS1pRuZ5qYw14b1r2sq1/BJkNXKdbv4toBzUUsnVtY26pJhffbpaZt3BtTOwLZ6yNokjWcypZALYFmcQjUepstJpyBBMohgdoCXY7iQS4hgc4kAKA7kxdiQwJDLQEAPdTFg8xBAp1JAEB3Ji/EhgSGWgIAuo3iQcdZG0JClKGQAIDOKAYNcWg/4zIchgQGKgEAHRC/AIylcALCwaGhlgCA9oqHYcZSOJ5Q8LM0EgDQqqhEM2MpHCUU7JZKAgBaFRcD7bvplVlYWQ735SWgkunPbtZUwv7cHXcZUgkAaFswAqYArLdZMDP84rO7kPLtBNJO4haSOSRSBgkAaFtKDHTI8UEzmBn6QpfC6QTSTuKWoSYij4VIAEAroEOOD0QDiwbnrTbLi1s5QzyEtDk9EUAXAkDVEgHQCujBLoUDoKsG1yCeB0AroAe6FA7nI1Pr+v66xDNmm9p8EDUL9xyIBAC0mhudZ/WMwpbCyQJanPlp9yFyzPe+OZAqhJsOkwRqD7S0jfPAXOhSOBlAZ/nwirx8QEMPE0zDkJdaA90NzMUvhRMyuZs4zcs0z4ehWiEPg5JAbYHuBuZeLYWTakNb01pb23FFAdCxKLCTSKCWQLcLc9+XwklBCg2dVFXstSOB2gEtMPtufPXIMN7XDvflGr1tR7gdx+7ZOicAABB4SURBVEkBnbGUjbHO2Usm2tAdy7jiF9QS6NCIMA20hrmv5Z8CWtrVDXKcz5t4ALqvZVOSm9US6NCIMAF6YDBzhQkBHR+360uxf+yma0yVpOYhmz2RQC2BxlI4PalLSHQIJFBLoLkt7LehsRTOENRGZKFrCdQOaJaYdG5hKZyu6w8SGDIJ1BJoDbXAzVv8QQJll0BtgS57wSH/kEBIAgA6JBUcgwRKKgEAXdKCQ7YhgZAEAHRIKjgGCZRUAgC6pAWHbEMCIQkA6JBUvGPoCfcEgp9DKwEAnVE0GuLQfsZlOAwJDFQCADogfgEYa1sFhINDQy0BAO0VD8OMta08oeBnaSQAoFVRiWbG2lZKKNgtlQQAtCouBlo70ZcplbzNWkFDXgIqGexCAgOTAIC2ohcwNcSynwUzwy8raxRSgrHjAjX3ueE5N2hyo8gT6CjtbBIHp6otAQBty5eBDnkyaQYzA9/zta3EB3fQU6BbOQG0K486/gLQCuiQJxPRwKLBeavN8n6sbQUf3HVEM98zA2gF9NCubdXMnW++csdVFZUAgFZAD+3aVh7QRmOPbKMDYo5b759hk9t6DmVfZBIc8z2wblZFK3sdHgtAKw8meZbD6fnaVkTkgxoBPUIjDLWqpX48IgurE28njQrQ8kKQ37F7YHSsKbGWarf2QEvbOA/M/VjbKvIE6vZ0R+CmfXL7QGetiyU1NHy+iXN/uRDboZVArYHuBuberW2lTGNjIrcGV2qXC3QrMLPOZzv3l/tgO7wSqC3Q3cDct7WtMuqNAdcxo6OIDtBeuzuVlJjb0q72t8oMT12LA0MrgVoC3S7Mg1/bKlxv2gLatp+dFTec5CINDW4doZT+R+2AFph9v9wyKky2egUNuUZve1LyWStneDdrD2hrOgc0eZQcTGtPrJX4WUugQyPCBGTeapj7WsqFAm26x2mETWlHDatebjvU1NfiO0fT7fa+ygE3yy2BWgIdGhEmQA8MZi7CooE21SIyreNv0I0GOXyH2tJOhNx1CxcOQAK1BBprWw2gpuGWfZFALYHmtrDfhsbaVn2pb7hJjyVQO6BZntK5hbWtely7kHzfJVBLoDXUAjdv8QcJlF0CtQW67AWH/EMCIQkA6JBUcAwSKKkEAHRJCw7ZhgRCEgDQIangGCRQUgkA6JIWHLINCYQkAKBDUvGOoSfcEwh+Dq0EAHRG0WiIQ/sZl+EwJDBQCQDogPgFYKxtFRAODg21BAC0VzwMM9a28oSCn6WRAIBWRSWaue5rW2XNt1aiGo7dNmenDUdm+5MLAK3kzEBrJ/oypZK3WStoyEtAJZN/185P1lMded+fr5z/Bu1dWWqgM2TIcqzDrFAAbeu4gKkhlv0smBl+WVmjPVRaxAppHJmv3MfaWH6gAw4aRI6NvC6Ky+GyCUAroEOeTJrBzMD3fG2r2C93oJK2eD/kPV1JoI0wWrllaiYxAB2UDr9BOAzbH2vokCcT0cCiwXmrzfJ+rG1FVrv0S0lXF2jxCpPH/AbQQWaHGehyrG2V7dzPd5wfgxmbm1rL23S0+177xoivk5U3JE7qjRJII+WUMB0n3Sfgu0kKmcWBOKEmSuiYUxNtOs6zpPPYUM9h5CoykK1zfSBvzj379wMmt5U1a95hXdvKABa3/WzlcypU9BBhoNNL5rRaIie6Hzv8V2DZl4ID485Rr8POh8XmVcHB1sboNrWAj7xs1PNEAKXv7Tg7lOvsul4xMi2BDuSp5XNw6tGzqWxGt5R8qBOp/MeZ6/0OgFYeTPIsh9Pzta1MBdU93R0C7Vd4Wb9KQ+bVswhorc2jCP4Lw7vM/Ey0O//MgEBdGE4zuk5eHuE4suaXl888QKv8yK77HNnPEs6bm39Jsx/b2gMtbeM8MPdmbatWS+F0CrTSdKZGta5s6cocVcUIdD89dlbq51ni2LwGXipRill50c+YFUfawzmBVhpVQMt+Do4R5cO9LCtvOv+Sen+2tQa6G5h7t7aVV0FT9SC7svjaIgimNRHdiuneJHhd3NsusIqGdP1+h6DXoIjWNXcUc1Xapf6WM9ksvyFtHDrmPF4awijPrZ4jAHQ7+Xfu3fsftQW6G5gHvbaVASRAZFtAW03jgOXVs7aAzgAtBHScvG0+JG3hACRxZNlJAyhngn7MWwHtn2/7OUJ5DR2LczeQnVoC3S7Mw7q2lQ9uVHOiyqV7Z8NgWg3fqg0dOO/AGgTBpq0707xq7eYp29pILsuOE2l+z6LxgU0SirW98zJr+zlC8GbnTd+2n/u1A1pg9v1yy6gw2eoVNOQave1JITWrjPqGJp7uKFPtWAWiC49KwFbiRFPyuWSJnKzrHKCtptdpROd173iSZnT3AACBZzG50cvxhOLYYw2/fW6Oe5DHzQVXZlGe7ItQWTzp5+CYgbxHGaXQ8NxBLSdUS6BDI8IEZN5qmKNC79P/jMoYuntS6aIOKa6PvuY2cRTgbjq2Iqt2q9TprOuieyZtaGnfythz1nxunPQ99Asgzo+8YFReUvFigG0HXPTAFAba76RrkLZc4vvKjnf/9HPYiDoPIiw+5V1v5KHPy336sK0l0KERYQL0wGDuQ2HjFtWXQC2BxtpW1a/YdX3CWgLNbWG/DY21reqKQLWeu3ZAc/FJ5xbWtqpWZcbTRBOf1l6zldasOScYsmTUyDrR6ji/QTgM+k+g1ttB5wn3hwS6lUAtNXS3QsP1kMCwSgBAD2vJIF+QQA4JAOgcQsMlkMCwSgBAD2vJIF+QQA4JAOgcQsMlkMCwSgBAt1Ey6AlvQ0iIMhQSANAZxaAhDu1nXIbDkMBAJQCgA+IXgLG2VUA4ODTUEgDQXvEwzFjbyhMKfpZGAgBaFZVo5iqsbeVOY1QPid1KSwBAq+JloLUTfZlSydusFTTkJaCSybUbed8IzOON5whHk/bbBbXdeLkyi4uGVgIA2haNgKkhlv0smBl+WVmj2BKOHAM4rnLsDdKgRnH9+fTpeMXmEKkNpwQAtC0XBjrkyaQZzAx8oWtbxXUkG+g4SrwDoGNRYMdMfKrlbCu/7BnokCcT0cCiwXmrzfJC17aKMwWgY1FgpyMJQENbcTGoA1/bKi66bKC1KR1sd1vbW8eLkxXHfnG7XPkHSyJhr8QSANC28Bjoga9tFVek9oCOordpcosjO9XYjl4IgDoWewV2ALTyYJJnOZxC17aKK1TxQPseQfXLINT5FmcFO6WSQO2BlrZxHpgLX9sqrjpFA52VXoav6Tgf2CmbBGoNdDcw92Rtq7j2ZAEo60lpMzmKqyxpk4rThhZzO247e9+7/YvjfGCnbBKoLdDdwNyzta3i2lMw0LYzDNzGAq7sTi2Bbhfmvq9tFVezooGGaR2LtuI7tQNaYPb9csuoMNnqFTTkGr3tbb3oBOgwrI7JzZm1y7j4HWCDWoOpt/Krb+q1BDo0IkxA5q2GeTBVoxOgE1j1mkopoPlBQm1p2OGDKeIe3bWWQIdGhAnQg4e5RyWNZGshgVoCjbWtalG3a/mQtQSa28J+GxprW9Wy/lfuoWsHNJegdG5hbavK1efaP1AtgdZQC9y8xR8kUHYJ1Bboshcc8g8JhCQAoENSwTFIoKQSANAlLThkGxIISQBAh6SCY5BASSUAoNsoOHSctSEkRBkKCQDojGLQEIf2My7DYUhgoBIA0AHxC8BYCicgHBwaagkAaK94GGYsheMJBT9LIwEArYpKNHMVlsJRj4XdGkkAQKvCZqC1z22ZgcXbLIf78hJQydRv18y1jpbqqd/DD9cTA2hbHgKmhlj2s2Bm+MURfxHFGpzDrBJudV5F7X63E0g7idt9zpBCEwkAaCscBjrk+KAZzAx8kUvhtAK21fkm5dz5qU4g7SRu5znBFR1IAEBbYTHQIccHooFFg/NWm+VFLoXTCthW5zso99ZRO4G0k7it74wYXUgAQFvhMaiDXgqnFbCtzndRD9KXdgJpJ3HTd8KRAiUAoK0wGehBL4XTCtj0eesgUPnb9p0AUov1rEyaI9voQOxvzHZuZUIa+Tsz/svMfUdpZ2bcAmsqkmpLAgBaOTzIs3pGkUvhpIF1y9A9b2FmGCXagW00ui3+lTgFVI4A/fWsIqBHaESnw+mFIBXoVXqJ40H0cksxDHJbe6ClbZwH5qKXwnGBTVcL93ykKTVb/hXtrGcVpRmAMQB0OD1ZzSOQhp8h/O65BGoNdDcw92IpHBfYdNm758XczgIpyxWw68fbTVPdMwV0VnoZ2lwlhd3+SaC2QHcDc6+WwsmEy9YHc94zjSMTOlqrymk/i3ms2tdJu7dBDavaQ2ma2/lA2/SCFoEft3/1F3fyJFBLoNuFue9L4bQAw8AbJEq0ZAKqdIZlRZd60DbQtnPNeWlIIi3yLdGw7b0Eage0wOy78ZVRYbLVDvflGr3tTdE0MWubAWUz48LpmtZZ+XWvUbFSkGanF1kJWaa/ShO7PZdALYEOjQgTkHmrYe55CXg3MIA1GuRqVguTY27vpFEnUgA4A2WDfK2q17NqH+jECnDSs/doNAC0V5QD+VlLoEMjwgToQcIc14AYErWOswMvx4y0eahdHKfDO6G2tEqrI6DNbUcpdc+UNndygB99lEAtgcZSOH2sYbhVXyVQS6C5Ley3obEUTl/rHW7WIwnUDmiWo3RuYSmcHtUqJDswCdQSaA21wM1b/EECZZdAbYEue8Eh/5BASAIAOiQVHIMESioBAF3SgkO2IYGQBPoO9HN7iLa8HsoKjkECkEC3EmC2/vLyv6M1a84Jhqz0G1knWh3fuZ/oG79uFQvnIQFIII8EmK1z//PfBmFmyLP+cgP951NEVz2XlSyOQwKQQDcSYLb+4vzL+gc0Z/Zz/5Po1Fw32ca1kAAk4EuAmfr0f5/NhLknGpoz8d3XiF74wM8OfkMCkEA3EmCm/tOdL/cf6DcOEm38VTdZx7WQACTgS4CZOvdz1/cfaM4I35zBxh8kAAl0LwHubD7/73c1hblnJjdnH51j3RciUoAERAKtOsMY5s9/fkSip7a5e7l1Sk+/Q/Tgm/oI9iEBSKBTCTBD5137YEvtvHnznZlJFwI0p84dZDzYBH+QACTQuQRYKZ5/5/aWMDczt/muhQG9tEp016vQ1J0XJa6oswSYGx4V1i7Mn/70p5uKqzCg5S78ptnwItE7x+QItpAAJBCSwNuHia79V6Lzrr6nLc3cSjvzPQoHmhOVjLLGRg94qChxrM4SkGHTf/OP7zUdDcYA69BKO7NMewK0FNavP4o+a/31Y6tGa299i4hnkSBABnWrA1z32XJlFvizVLNx2hpi2V+79lOCVdNtT4GWO3M74W+uvIPWXv0Arb1mKwJkUL86cPUDdO5nr6Zzzv2Uo3UF2FZbYanVti9ASya+9KXsweatHgjnXfML8qiHPNrVzMJYX4Hmm95++x253lCowPWowCjnpJzXrfuMcNr2tu9AS86uvvq/Amyv0wOVOanMdZZFO51fwpG/HRjQOiMM93nn/RUAB+C1rQNXXHGlRiL3/lAAnTv3uBASgAQcCQBoRxz4AQmUWwIAutzlh9xDAo4EALQjDvyABMotAQBd7vJD7iEBRwIA2hEHfkAC5ZYAgC53+SH3kIAjAQDtiAM/IIFyS+D/A+cLyAl/WPIqAAAAAElFTkSuQmCC;" vertex="1" parent="1">
          <mxGeometry x="580" y="-210" width="244" height="353" as="geometry" />
        </mxCell>
        <mxCell id="EXiGh36RY0hB33X0RfPo-14" value="" style="shape=image;verticalLabelPosition=bottom;labelBackgroundColor=#ffffff;verticalAlign=top;aspect=fixed;imageAspect=0;image=data:image/png,iVBORw0KGgoAAAANSUhEUgAAAPQAAAEOCAYAAAC+UTo1AAAgAElEQVR4Ae2d/a8cxZnv55+B3Sis9gdWe3UDMiSYzVEUgu4ukCDlJgRjAzexERsnhOSH1WZjwEtQEkwknGtxEwRhySXZTTDkxbBml4WYxNJNsA8QjLE5x6/H52XOnPcX+7l6qurprqqu7umemTMz3f0dqdQ93dVV1U/Xp56nqqufahB+kAAkUBkJNCpzJ7gRSAASIACNSgAJVEgCALpCDxO3AgkAaNQBSKBCEgDQFXqYuBVIAECjDkACFZIAgK7Qw8StQAIAGnUAEqiQBAB0hR4mbgUSANCoA5BAhSQAoCv0MHErkACARh2ABCokAQBdoYeJW4EE+gb06RbR4dNEB08Q7T2MABnUpw68NqbrPjOw0b8NBfrEDNEjrxP93bNEN/yYaNvzRF/+dX0eJKDFs+Y6sP1FXfeZAWZhzxtEGwX3hgDNhb3/JV34p98kYrCXVy/SwtIaTUwvOeHC9BJdmLHDMl2YccPkzDI5oblMkxlhqrlMU7Ptw/TsCkWhtULTgTDTWqHMMLdCzRxhdm6VojC/SrMpoTW/SsGwsEqtQJhbWCUnLK7RnBfmF9coEZbWaN4K/GyywuLSGqmwvEaLUVinxeU4LC2vUzCsrNNSSlheWadgWF2nZSusrF6krLC6epFUWLtIqylhbe0iJcL6RVqzwvr6JUqEi5do3QsXL16i1HDpEl30wqVLWjczC//n/2kF98CrRJMLvdXZPQf61+9pkHm7tn6Jzk8t07sftGj0/Sa9FQhvv9+kt0/E4Z0Ts+SEk7P0Jz98MEvv+mGsRe+acGysRcfGk+G98Ra9dyoOx0/NURROz9H7gXDi9BydOBOHk2fmyQln5+kDL4ydnaexc24YP7dAUTi/QKdSwumJBYrDIp2e0OHMhUUKhbOTi2SHc1NL5Ifz00tkB9WozizRhBWcRjTQWKpG0msoo8aQG8aMhs9t8FapOReHUMOmGjSv8ZpbWKMoBBqohcU1UsFqmBaX1ikKKY2N35iEGo1QA2E3AlzP7eDDz/8V/AZywzY9N6pZ4W5or349BZrNC9bMy2uXVAViMEePN3UIwMyAA2gX7hhmBhtAi1USwcxglxxo0d6stVsruhvKWrsXv54Bzf0CDtwasUY7enwmhpmhBtDQ0KprEmtn1tR11NA20AIxs8MKsdtfT4Bm85o1M8PMJi3DDKBhcsvYA0xu1+S2gWYtLf1rZohZ6ubXNdB/miS67d+0mc39TYEZQANoAB0Pptl96DSgV9aJbn2OaNtXH+yY6a6B5tdQ3KnngZmj72nNLFBH/WeY3LG5zYNjKQNiPFCGPrQZ5a/woFgIaBkoY5au+sdDdNlll9N9932tMNhdAc3amVsUHvE7erwJoM1oN0a53Vd9dTC5l5aXaXFxkZaXVxKvuPxR7iygmWBm6s+vulFB/fGPjxSCuiug+T0aD72zdj7C2hkaWr3CAtD1AXp1jV+NLSmYGeilpSVaXV1LQN3O5BYNzfQyU3/95X9VQLOmvvLKv8oNdVdA88wXnkTy9olZAG29iwbQ9QB6dW1NAcwg79+/n5555hl68803g1AXAZqZuvr70xHQDPW11340F9QdA80zXngaG88uYu0MDR1PMAHQ1QeaYV5eXqbp6Wn61a9+RTt27KDbbruNvvOd79Af/vAHBfXKymqkqYsAzUwxW3/230YcqG+++Za2UHcMNE845zmqPEMIQMcw86wxAF1toFdWNcznz5+nAwcO0Be/+EUF8+c+9zm64447FNRHjhxRZvjK6qoaYyoCNDPFbH3ob7Y4QLOmbvfrGGi287kPfX5qqQJAj9KD1zao0eCwg35sTQHF1E89bx5TP2WOOM9XXyaG+aWXXqJ77rmHbr75Znr88cfp6aefpvvvv5++8IUv0Le//W06duwYLSwsEEO9vn4xOL9b3kPbfWiemstsffimf0gA/alP3ZjJdMdAy5dEMiDWmcm9n25XEAlMst1BT8qcbn8eN//353Hz/67mcgNozOXWH4lkzuXmj0WMmc2amWG+6aabaM+ePQrec+fO0W9+8xu677776NOf/jTt3r2bTp06RfPz87S6upobaFaSzNcVn9+TALqdlu4a6FMTC51p6B9vNxpRILa3AFq/j8Zc7mGay724qEezuc/8pS99iW655RYFc6vVor1799JDDz1Er776Kv32t7+lnTt30ic+8Ql64IEHaGxsTJvfKysO1JF25tlilt5tBzRr/7TfgIB2NfPtz9hfWx2lb20C0ADa/Vx00B9nLC3p98w8mi0DYGxmv/vuu/SDH/yAbr31Vrrhhhvoq1/9Kv3yl7+kN954Q+3feOON9PDDD9M777yjR7/X1iKoOwU6y+weDNCvPkpXiam96VF6eeCfT8LkhsmdbXLzqykO/Grq61//uoL40KFD9MQTT9BnPvMZ2r59O9177720ZcsW+trXvkbPP/+8gpo19Te/+U31Oouv5/50u4kl7TT0FVf8RZqC7nw5WelDd2Ry20A3GuRq6ND30PtpizQAZrvlWe+baNWHfiER746fxN9FR99D/2SHY+5vevjFjEGxF2mrl/e256xvos++RbujAbV76Nmf3mPSvoeetb6Jjr6FxtTPUn4PvbS8ooDm98xsVh88eJB++MMf0u2330533nmneg/Nx7/3ve/R1q1bVT+a+9N8jMOZM2fUYNr6+nrXQGf1owejod9v0g+32n1mvc9gO84NeGDsX1z49Ei0jn/17qOxo4NnM+I9PKocHjDQ//HwZgdmO73EKPf/TU/zmkfe0o4OHKDtewLQVfs4Q/rQx48fpyeffFKBfNddd9HPf/5zunDhggL+j3/8I333u99VI91f+cpX6PXXX1fvqpV27lEfeiiBfuv9I/RPm2wAZP86+tZ/iZa2+trb9keeS/5993UGyh30lBrxtjT4nS+QeCx5JYJ3Bz3F3krGX6A7Im27mR48ZDyWOBpbXltZmvnuFyOvJa89Ig3CPfQv7L3EB/ruX+I9tOe9pApzuZdX2AXTkhrg+tGPfqRgvvvuu+mnP/2pejXFfWyex81TP48ePareRfNIN5vcbJpPTU3R8grP845fX3Xahx5SoLVLorfft6CNYDODYs+ka0itTa+jXa/N0rsZ2lnH20y7DrXoPQvcTQ+Pxu6HTgX60BnaWdLc/Tsf6M20+/eYWCKaWbZVANruQ/PkEdbMP/vZzxTADLHyVbZ+iXh2GP9nLc6DYZ/85CfpG9/4Rk/70EMOtIxwu2Bf/dBReqct0A1Sfem2QDeI+9K9BbpBqi/taOh76FnMFEs4Vawa0Lt27aJf/OIXNDc3p7Q2+xyzfYrxwBdPKOF+M7/K4ldX3Pfu1aBYSYBu0ssPiSndIB9o7i9HzgL9iSUW0Ff/82hkcvuOAjsFetMjo5HJ7TgITJjcAFq0sr2tAtA83XNhcZF48gi/V56YmCA2s/nLKhtmvc8eSlfVhJLx8XEVv9lsVtjk5lHuTY/SS46TQFdD3/4M96PtY9q8VlAz0K/toS3RoJjVh25spl2vxyPbxw49RnfIoNihx2iTZdY/bbx+/mfU1+Z+fKAP3dhMD/1Oe/5UQP/u+7QtOCgGoG2QZb8KQLMW5n60vI/mGWP8gYb2/pn0+snH+byY6myKr1kj3Pzqqjp9aO+1le6TyqBYgxqb9tDLZurny9EAmHXeQGmPcr/yzzJYFYgnQI+36Km7kufd/AXoOXr12+lphke5AbRAbG+rAjRDvcJQL68Qfwcdu/JNAs1ODTiwplaDYQXmcrd7Dz2EJnfaCDe/k5YRbrPluduv7aGrI80qQMoIt3kfze+hX38sHM/46Jb30P6rq60/CQyKmQ80Trxha3XJ24xww+R2FiqwIbb3qwS0+OiOYXb7z2xyC8z2tsjXViUEOna6D7/c8Mvtu/KtuqP9bmeKDaGGBtBYOUP75/Zh5v8AOvtrKwDtmdyyHE60DA4PjlnfQNtL4uB7aHwPLWa2vYXJjZUzYle+cOMbzeeGhtaO9ot8PgkNDQ2NxeqGaLE69KF9ryX+xBL+35XHEpjc+Hwy+/NJ29zmfZjcMLlhcmOxuujTyWpNLLHgxmsrvLby+9EY5cYoN0xus/C7v9g7/7cXe+d9LPjOnjt1GMSC7+hDow9NZy4sBgN7XbUDgF5Tiz+ws/rFJV6mxgQMiqW6LVInunJBVMDkfnJbgxqWc4Po4wx/YAyDYgpsAA2gs8lNOds7oO0vqmSudOz1E0BrV77Q0GsUef5cXKN5Lyws8ueNMczQ0Cngph3uBdAvPai/f/adBD65NXZDBKABNPvmjmBeWKM5D2aGG0BrUgfmJPAt5Wj/OvrWq+KxRG99J4EAGkAD6MsTK2ikKdoBAa0/n7zqwSPU7rVVEmjbmQGb6OYzSulD+59QXvMYvSIzxRwHBw1qXPMY/adxcoC53MsUTS5p6vnbk9YWa1vJ2lZ6i4kl1kDYW8rBwXX0T6yd2WtJhqN9H+h/371DOwY0g2JP8aDZNXvoFQW09st9x7PisWSUdt0pQGuPn8q32KkWvceOAe8C0BMzS8QhgnlmmS5YIAvUABpA0+jxZhx6BHRilFv5E9tBTzHQSjt7LoiMdmZXRJsam+kB9v6pgG5ZXj8x9RNAY+qnWiGv85UzOtPQDHTslzseFVdAj7XoqTvNMfbPLTCbbXTurhcU1Ph8UmtnaGgNM08yyVx9ci3W0jC5bQ1tfHEX70Ob/jOb2PIe2tbQph99bGyUdl2TBFu7IBqlB+TcXS/GWhrfQ8dmN0xuB2z/wwx8nMGmtwO0LIWznX5UpA+tlsXZQU8KzLwNAm360Mqxvnayz9pafIopk9uci1bPANAAGhqaqCOTW8EtjgL5nXM8MMavrVLfQxtngfFCdTLiHfeht9h+uRW0ehkccecr/Wfto3sHiStfjHJjlBsm9+FugNZ+xV42k0scV7pb90eL1iVHuWNn/OqVla2h/VdW/EpL+tH+K6uGBTNcEMXaGaPcjrnNfWqY3Mdn6OjxmXiEO2Byv2VM8Havrd7xP8zg/7bJLfvyHnqslb5yBpvdZoSbtxgUw6AYvrYyU1R6MfWToQbQ+B4a30MTwaeYaGbZQkPjayt8nEEDmvoJv9zwyw2/3NVZ28p6hQWTGyY3TG6Y3PSumNqyhckNkxsmN0zuaKQbE0viV1eYKea8usJrK7y2orFz804YP7cAN75w4ws3vngPDQcHcHAw9A4OMMqNUW6McmOUW2aNyUCYvcWgGAbFMCiGQTEMisFjiT39E99DTyzQkfdmVDj6np7DzfO4MZcbg2IzrRXi0FSDYbLVpnZzDiY3TG6Y3InVM+xVM3gfjvZj39zRqhm8egZWzkhzFKqP4+OMeTp5Zp5Onp2nD7wwdtbVzvwKC6+toKFlTSvZQkNDQ0NDw9G+8tGdpm7xcQb8csON7wqcBCqPn2x2d+6CSL+LxscZ+DgDH2fg4wx8nGGWl8WgmF64DmtbaSMcJjdMbpjcMLkJJjePcGOUm6ZnV3Qw75zl3bO9xXvoS3Tx4iXnwwwe6cYoN0a5McqNUW6McsuSOI6jfXj9VKY2FquLR7jhlxuj3JhYApOb1tYvOWH94iXyA0zuE7Pa2b6Y2fbW/spK9vG1Fb62wtdW+NoKX1vhayt8bUUY5VYj3Bjlxij3+kXH3Gbz2ze3+T9MbpjcdHpCux/i7RkzkcTfYmIJJpbY87oxsQQTSzCxBBNLYHLD5F6OzW0e6cbEksj0LrXJfXaiSe+PTcZhfJLeN+HE+CS1CyfHJ+nkKTtM0clTbvjg1BQ54fQUfZARxk5P0diZ9mH8zDRF4ew0jQfCqbPTlBnOTdPpHOHMuRmKwvkZOpMSzp6foWCYmKGzgXBuYoaccKFJ57xw/kKTEmGySeetMDHZpKxwYbJJKkw16UIUZunCVBwmp2YpGKZnaTIlTE3PUjDMzNKUFaZnWpQVZmZapEKzRTMpodlsUSLMtqhphdnZOUqE1hzNeqHVmqPUMDdHLS/Mzc1RMszT3JwJ8/M0b8Lk9JyaiXnF5/eoSSSXXdZHr5/j4+P05ptvIkAGqAM9qgPnzp0bHNDs5qXJfqMQIAPUgZ7UAR7k4k+TB6KhATQaMzTmva0DABqaoSeaAWD2FsxO5QmgATSArlAdANAVepidtuq4bji0ay+eA4AG0NDQFaoDALpCD7MXLTzSKLe2BtAAGhq6QnUAQFfoYUK7llu79uL5AWgADQ1doTpQWaBbc8ulq6hHHrueGpsfpyP9qGAv3EuNxvX06Ci0Wi8047CkUUmgGeaFhYXOgFYVvZELLAVgo0HXPXass7w8cAE0GpduG4bKAS0wLy4udgaZAN1o0PYXsirYAdreaFCjI6D1tX76ADpL3jiXB/ZKAS0wT01NUXdAX0/XbW5QY8eB9EbBmKwcr7iGBtB5KifiFG/EKgN0a25JmdkHDhygJ554omugH30sq495jB5VID+utDSALl7xAOvGyKwSQM/NLyuAGebrr7+e9u3b1z3Qo1qLBmGNBpTS4ujjbI7rcC/tN/3l/TvkmLU1lkBscnvXBy0F3ajEeWRZFF56jXtpf3QPdsVKphm8f6/vDzhtGQ52v/RA+zB/7GMf6xHQK6QHvWIYpeIqKBVkAaBHH6frGGQLQg2xnY6+LtiHVo2AFdek54AVyKPZMtD6o+ShuHLMGeU2MNvXjz5O23s04Ceyw3ZjgS810CGYewm0QOKAZ2DQx5JAK3htKJQ28+NlAZ18leSn6f+PIHHKpitOWlzdWNl5hcsUpQ2tnD6eMkSyKS3QaTD3FugV8oGIzWIGJgyqo03VwzbaL9LaYXjctOOW3LUU/DzjeM1WOJ9keVaomTC5xdy2IbfTxn4ZGrdSAp0Fc6+BbjpazwfRgysyZa3+cdSPts1wPx0NSy6gnfL4kHlAZ8VNAK3TUg2YKXOwIRgibVQGwPpdxtIB3Q7mngNtaT1XUzIAHtDmv2OiBwHoAuhEnjbUHtBZcVOAjiqgOm83QnY+2I/kFHy+g5NPqYDOA3PvgY7N0+Q7Zx9oH6i0B9sN0CaPRD99hVxrgvNOL4/WxNnmdZrFMKyVGeVaYZ7L4SRQYOYJI3lDRw84qLkMGM6oMAPjAy3wJyeb7N9hwxMGLQ2ghGUgpn3UJ4/LYo+uq/s3mtYxn0X7OvdzgLY76YXL2JFMh0yLVfkeSgT0Es3NFwsdPbgg0OYVllPhY4gcWLjyCnDB/jNfF4Ov3iObdHMDrQDRjYn9HjpRDgEpAtj07Tm/xH0m00s0DpIetkM74l0aoDuCExVvaCsenqdp2HtcRwF0jwWKiroxFRVyzSdXAA2gocUrVAcAdIUeJrRYPi1WZTkBaAANDV2hOgCgK/Qwq6x5cG/5rA8ADaChoStUBwB0hR4mtFg+LVZlOQFoAA0NXaE6AKAr9DCrrHlwb/msDwANoKGhK1QHBgr0yso6LS0jQAaoA72qAwMFmjPHDxKABHorgb2Hia74/B667LLLgyEtt0baiXbHOUMO+EECkEDvJQCgey9TpAgJDEwCAHpgokfGkEDvJQCgLZnOzs5a/7ALCZRPAgCaiBhkP5TvUaLEkMAAfYoNg/BtiMfHx2nv3sN0+PBhB+5hKCfKAAnklUAtNXQC5G2HaduVe+nw3sO0d9te2rvtMB0/fry8YB/cSY3GCO07maMaFImbI7leRDm5b4QaI/soT/F7kV+V0qgd0AKz0sgWyBMTEwpg3r7yyisR2BxPrunrgz+5j0bY0WAnFbsIpKG46lhywYCdB/sjAQDduZxrCfTbb7+tNDJrYhtYAZe3DDZrbNbcAnvnYi5+pa7UIzSSV9PaWYQgtc/b+6G4gWOqPI0G9QNqAG0/oGL7tQSa+8liWjPUDHgazAy0QF9MtN3EPkn7RhgevR3JZTtb+QWAtM66u6G4oWOky9LoA9EA2n1ERf7VGOjDSvNG5vVera1j2PeqATLW0n0HWgG1k9jC7ahyB4FMqRahuKFjAnQnXYCUrNMOd3TPaYnV7HitgRatLOY1a20ZHBMzexBAH9zZoEgTmr50umI8SDttp/6NnXQwCCTX7Jxxg9fra5PWgtHcdhlSC5svbghoJZNGg+L8k2nF52pGsXW7ANp6B83wchDQedt/oDU4MRMZpq4MnMWRWaXrwTS/7y3H88QNAK2B0lZDVH9CaUqj4WvyAnF9oHXe9qi9kYmdx8l9tLNo1yS6kersAOhhA1rB5IKjKjhrXq/eqYpuV2pzXse3ASAqEpdUGdqPcqelKY2K3XYUiWsDHboXsTTs9D3R1PZvbYFm0/r3v/99QhvbGpr7zvZI+MbXkhRtbLSbW4HTTGC2rP330EXihq7nO9dpxK/RMtKU/nZU4CJx43GDg/w+2rc01EMQc9tttDb++Qx/DrUEmk1phpmh5tlhMuhlm9wyOMaDZmKCb/jjFLPU7o/a+7Y2DkJuSugDXSQuJ+FfLzduNLfiNCtNH+gicWUg0Nx3Vr9Yaf0c8aT4ddjWDmh+qAIobxloHgxjwBloNf3THLNni/WjMqSZ1px30vTM0HoJIIvEzQDagKkhy0jTB9po9zCcSaskMrlNAxK+znoiJl40kGidqttuLYGWhyxgy0QT1thKa29zB8Yk/sZukxXbzc8HKD2+1ly2OVokbgbQtoYWaG2rQQqc0Mgm/1xxY5NbTf3MCXXUCEgZarqtNdD8zAVq3rKG7quJbVc6Bxb7RLyfGFgKVXZzLNH3LBzXbhC4DLpBcbSgAdc5ForHlxeI68OprRP7ldVB2hn1z1XiaiKOW45YbnXaqz3Q8rBtsHm/3z+tVZMj2U45QtBHAJtRaa7o6pgPpGhea/Q6La6fZmY/1YBu9fXTTeR8cX2gWQYCtR6US6YDmHVNAdAWMQK1dQi7kECpJACgS/W4UFhIIFsCADpbPjgLCZRKAgC6VI8LhYUEsiUAoLPlg7OQQKkkAKBL9bhQWEggWwIAOls+OAsJlEoCALpUjwuFhQSyJQCgs+WDs5BAqSQAoEv1uFBYSCBbAgA6Wz44CwmUSgIA2npcg5jDbWWPXUigawkAaO+LK8zn7rpOIYEBSqDWQAu8vFXuhqqytlXa11ahilYkbuh6HBsqCdQS6ATI1pI44oDf9lbC8fv+k++HQ04B2hWmCKTt4qrz1ieX5jNJ53PkduUp0Xn9mWabz1iH+H5qB7TALA4A2UMJOzYQP9y8jZzve0vl9PM56m+CB7QUjrpR+eY4Wbm5bMWA1mkVu6af0o7zAtCxLHLtcQvCYVA/BlpcDtkePQV02YrzfQZeYO9fmbXLnoEthSPuhXpGYHmA7t8z3picaqmhxaMnAz2Ua1spM1drRq2pCy6t2s6MtutSIG7vtRSAtkW+kfs1Bnp417ZS7ohEOyYc7vnVQUxj6ed2uxROukNBP2f938S3XBDFvruNg3/7HO/LvakEAuVPZBSIE2iIUsvj5GdiyRrUMlZh/H+HG7NA/k4ZkzJId8PkXNjzP7UG2jevh2NtK1154jqYAZhUxjhy7IzPd1CfN66Jl7tCHtxprTfF9dNUfrtM5phziKMGypTwrRaIE6/s4flNC8WV8niDi9ryGaGR0HF7lZJAmm4ZzfOx0xngsjwAGkvhuKtTmAqcgK+ALkl2E/xGSiemwLBBUId1XGlQwnHEaaALdFpcaTjse9Ka2L1etzG8Wkc8EBhO0y5j+N4KiKunUQH0UAGdoo2DkNmVyqsTCXO0QNxgXl76gb+q4jumdQyFaG0bKDkm4MZJ2jIoUG6jiZPpccp2mjqnsGktDYWUPS1/Oz2z71tE8Q31da+2QPPo9dCtbSXmnQOG9I0bZPdNQ1onqjk+0FmQ+nEzwYhyiHY0GG6/OAmLBsMBut29cuQi5c6KmwZ0wjrwgM5TRiMJu0ELNyqRyDZ0p5ZAc995GNe2SoIQP3t9zjYR07SH+N/uNK4MZImWisuQ2EuBKHkfAaDT+tV2Jib9ICCFGiJbo+oMVBnbAZ2njHZ5eV+Vy23g/Cgb+b92QLMwZTCMt8OztlWy0rkP3gc4Pb7WFjbQReKGB6vcsph/QaBNXlY/VMxrR0MHtGYyjyLlNnEDkIY0fT6g0/NPljU+kpZ2HGPj9moJtIhTwJaJJmyGc+B303KOt335mZbdrfRuzokBGnONo8FEQ/h9uiJxOVtJJwAIl0OXUzcy9msorZ25m2Br+BQwQmVSWVuNUSiOlM2/RzGRHSEmy8i3lwadLr9V9lD+ThmHa1meWgPND9YGd5BrW2mtalUkl2X9z1Qut77yWtBWP5tPqngWFJJWBIKJnxVXXWNAtNNX+1Y5BSIThxuXBBSclp23fQPe9epe7PP+tZxPZrkNwFaZnQbPyCI30Bw/s4zJ/OwGzmTXt03tgRZJ22D3TStL5tgWl4BqIKyGpXgKlbwCQFuPVaC2DmF3SCWQ6H4MaTn7XSwA3W+JI79CEmDT2LfAtUkf6FIUSrmakQF0NZ9rde7K7ntH/WKY2mkPGECnSQbHIYESSgBAl/ChociQQJoEAHSaZHAcEiihBAB0CR8aigwJpEkAQKdJBschgRJKAECX8KGhyJBAmgQAdJpkcBwSKKEEALT10DDl0xIGdkspAQDtfaCB6Z+lrMcotJFArYEWeHlbqaVwUL1rK4FaAp0AeRiXwummSqrpkjnnOheJ202ZcG1fJFA7oAXmYV8KJ/oGN+BgoG3NKAJpIG7we2Yr03bnrajY7bMEagm0eCgZ3qVwxKPGYNa2agdsu/N9rsPIzpJALYEe+qVwjL+tQa1t1Q7Yduet+oXdPkugxkAP71I42l2P/kRQwVPU7A6Y0an1KhC3HbDtzqfmhRMbLoFaAy39aVlpcjiWwmH3W5YbWOPPyv/IP64Zvk+rbte28nxTxxlFe0mgk77Hkn68AuWMUpQuxj46GfnvkkG9PGlbCdV8F0AP1coZXBt1xY8BTvGYyVGl8iBX4wkAAAjeSURBVMeR42N5PGLK9V7cJLAuJe55Uz7bivDXdpJ8rHL6ThFVmiP+WlM50naLVvt/AHrYgFYmsOuRwwUorrNpfrV0fNFwOn6RuGn5Sc7ueb8BkljxNpy3vk40eajMycYtThN7YQnUFuihXAonzfm80XCWgos0uQDhPN5Ev9iFJztuUZNbTGK3AYnzSMvbtTzcRkKubpe2xMNWJFBLoLnvPIxL4UQmdOQ7y/K3zcc8s3akIQ7v5XGarQ90sEFIiStO6B1H+W76Cj67LMrtdlxWp5ERczvtnkwrFUpTctXmuU7fSVsiYBtJoHZA853LYBhvh2cpnGzNmDRJ0zSfOLW3NWaRuKHro/qidhRgrrkQR1CNiTWolxgTiKPae1lAR/ESaUdnsGMkUEug5ekL2DLRZKBL4aSZ21JYA0asoVyTNYoWaUsb6CJxOaWMBiDznC6FC2d63naZ3WvsM+5+3njuVfX5V2ug+TEL1Lwd5FI4slRMmuLjsiYGl4zGiiEX7crmqQ10fDxX3Mjs9k16A6djbudY2ylUTlWkuIxhUHOkXR9Wc91p7YEWKdlg836/f7qf6I5uJ8pgwHCgFzNU+qh8Uh2LYYnSKRKXL/Ljcx5O5ioS7ZS8ZZuIY71ikzheWqlA2/G9a6L7wk4kAQAdiSLW1tYh7EICpZIAgC7V40JhIYFsCQDobPngLCRQKgkA6FI9LhQWEsiWAIDOlg/OQgKlkgCALtXjQmEhgWwJAOhs+eAsJFAqCQDoUj0uFBYSyJYAgM6WD85CAqWSAIAu1eNCYSGBbAkA6Gz54CwkUCoJAGjrcQ1iDreVPXYhga4lAKC9L67kI42uJYsEIIEBSKDWQAu8vMXaVgOofciy5xKoJdAJkIdkbSv1CaH/uaD6H/gUsudVYfAJJr733qAiheVcDRnXDmiBeRjXttIVLfBNtHyX7DgW6KC2K/9ew1txNxxo8W8WkOPBnQXlMqSyrCXQ4nJo2Na2SgVasavdAiUdDBQAe0grYYE76CJqllulDpIdUlnWEuhhXdsqG2hxIlhQk9h1dUgroV3EjdrvufYfUlnWGOjhW9uqHdDi5tfxCyYEqAoWu9J1XP6KA0Kvf55IJzMNnZECI3JzxPnFXYTkOV0e8UikzkdlSDZMPnRRel65EuXmonlx3Psvqp2NNRSV1Xa9ZPyq2ecaDXLKlFkWeWAbs6010NKfHpa1rdoCbTxuJsxu08eOK1XImZ9U+iRIqmrlTENDN0IjQqlVLyNgrXP6GC9x41Z6fTxuDDgZnfY+OmnSjNKz+7ymnFYWke+z1PsPXWOV29/l5+CkbwCN08+QZU45+nn26j+AHqKlcDoDOsVNrqmEyYoZAjp/GiEQpTKGzxltZ0PJF6jyuWUJA+1CT2JtRDeWo+wKMjcvKXPerSpblGe4/MmymdRDzyJvxgXjAegSAp3UFL67Xa4FATMzAJGqL6kVLpmGD51d3xKVXp1MppGWp592OD1Pk+cpe0dAm4bCNq3tRikkyzxlsQW2Afu1BXoY17Zqq6FDFcaYeA274ln7SfgDmqpAGmmQcd0Mn9tgoPOUPSS3DJjUfXj9YnWsHdB5ypKRby9O1RJo7jsP49pW7YAOng9pirSakRY37XggnTC0OmL43AYDnavsRtvaQAbuTR1SUCYbvVxA5ypLWsa9OV47oFlsMhjG27KsbSVO7+1unK4CKcCE6kdqhcufRhhaUxJ7ofoo/5S0VVncroIPTVpebryU9KP8zY7Rno7F4sfh/0GgdR7OyHlQljnLEsq3R8dqCbTITsCWiSaDXdtK3jP7g0DGlE1baVKNz4wQm9wu7KyV/LTSK5zW/u3TSINMs2C/3hEpp+TZM6BFbu3LLveYeEugBtqMVjblssFX98zdGEfDh+9L8sh+FgGLwTQ48XU6/WRZRa7hba2BZpEI1Lwd6NpWFpiJ/nD8lMNPkY+aCmFfa1dKuVAqHMdLnM+RxjACre4tR9m1DAwo1jiDkpkNq5cWi9+1CnRKqbL0rk/KGkBLfdywrQ027+MHCZRRArXX0PZDE6jtY9iHBMokAQBdpqeFskICbSQAoNsICKchgTJJAECX6WmhrJBAGwkA6DYCwmlIoEwSANBlelooKyTQRgIAuo2AcBoSKJME+g70c6NED7xaJhGhrJBAeSTAbH34pn+gyy67PBjS7qSRdqLd8dfGiLa/2C4WzkMCkEAnEmC2PvQ3W4IwM+Rpv46B/tMk0a3PpSWL45AAJNCNBJitP7/qxv4BzYW94cdEp1vdFBvXQgKQgC8BZurq70+nwrwhGpoLwXY+96XxgwQggd5JgJn66y//a/+Bhtndu4eIlCABkUA7c3vDNDQX4Mu/Jjp4QoqCLSQACXQjAWbpqn88lKmdNxRo1tK3/RvRyno3t4FrIQFIgBlilrIGwxjmj398JFVYHY9y2yninbQtDexDAp1JgMekrvzsgx1rZ861J0BzQo+8TsSzW/CDBCCB4hJgdv773z/XFuYsc5tz7RnQnBhDza0MzO/iDxRX1FMCzMr9L+WH+SMf+UimoHoKNOfE5jf3AzBQlil3nIQEFCPX/+9Z+su//UouzdxOO7NIew40J8oDZTz6ve15DTgmn6D2QgJaAswCKz1+NcWj2Zdf+dHcMF977UfbinFDgJZcD5/WJvi1e1vqBhhw6WtznwEBMqhDHeA6z3WfIeYZYDxppN1INmtjO1xxxV8IVpnbDQXaznnT/9hKH/rYZ+nDn9lFV3x+DwJkUJs6wHWe635RiG2gbZay9vsGNBfi5ptvcVodu8DYd1tkyAPy4Dpw5ZV/lcVv4lxfgebcd+3aBag9cwrwAt5QHfjUp25MANvuQN+BlgLdfff/AtgAG3UgUAfyDH4JR/52YEDbBWG4YY5DS4W0VB2OMcCf/ez/tJHoeH8ogO649LgQEoAEHAkAaEcc+AMJlFsCALrczw+lhwQcCQBoRxz4AwmUWwIAutzPD6WHBBwJAGhHHPgDCZRbAgC63M8PpYcEHAkAaEcc+AMJlFsC/x/0L1D9vXVYIQAAAABJRU5ErkJggg==;" vertex="1" parent="1">
          <mxGeometry x="870" y="-60" width="244" height="270" as="geometry" />
        </mxCell>
        <mxCell id="EXiGh36RY0hB33X0RfPo-15" value="" style="shape=image;verticalLabelPosition=bottom;labelBackgroundColor=#ffffff;verticalAlign=top;aspect=fixed;imageAspect=0;image=data:image/png,iVBORw0KGgoAAAANSUhEUgAAAPQAAAFhCAYAAABH84e6AAAgAElEQVR4Ae2d+9MmRZXnn38GdojBn5iY3RBmdAT0XUPkhwGUCFaQS4Or/TqErzboD+M4QyOC4aVZF4wOFliQcULdERpvzUx3LCM2EUSsAm1jN003b9+73/v91n02TmaeqpNZWc+1nktVfd+IfKueumRlncxPnZNZWec0CH+QACRQGQk0KnMnuBFIABIgAI1GAAlUSAIAukKViVuBBAA02gAkUCEJAOgKVSZuBRIA0GgDkECFJACgK1SZuBVIAECjDUACFZIAgK5QZeJWIAEAjTYACVRIAgC6QpWJW4EEADTaACRQIQkA6ApVJm4FEhgY0KcWiN44RbTvGNGTbyBBBvVpA7+dtG2fGej3X1+BPjZL9O3XiP72x0Q3/Iho20tEX/p1fSoS0KKuuQ1s/4Vt+8wAs7DrdaJ+wd0XoLmwD75iC//8m0QM9trGRVpe3aTzM6teujCzShdmdVqjC7N+mppdIy/NrdFUkzQ9t0bT863TzPw6JWlhnWYiaXZhnZqmxXWaayPNL25QkpY2aD4nLSxtUDQtb9BCJC0ub5CXVjZpMUhLK5uUSaubtKQS102ztLK6SSatbdJKkrZoZS1Nq2tbFE3rW7Sak9bWtyiaNrZoTaX1jYvULG1sXCSTNi/SRk7a3LxImbR1kTZV2tq6RJl08RJtBenixUuUmy5dootBunTJ6mZm4X/9P6vgdr5KNLVcrM4uHOhfv2tB5uXm1iU6N71Gh99foIPvzdEfI+nQe3N06Fia3jk2T146Pk9/CtP783Q4TJMLdNilI5MLdORENr17YoHePZmmoycXKUmnFum9SDp2apGOnU7T8dNL5KUzS/R+kCbPLNHkWT+dOLtMSTq3TCdz0qnzy5SmFTp13qbTF1Yols5MrZBOZ6dXKUznZlZJJ/NQnV2l8yp5D9HIw9I8JIMHZfIw5Adjkwef/8DboLnFNMUebOaBFjy8Fpc3KUmRB9TyyiaZpB5MK6tblKSch034MIk9NGIPCP0Q4HauUwg//zbwO8gd2/STg5YV7oYW9Vco0GxesGZe27xkGhCDefDonE0RmBlwAO3DncLMYANosUoSmBnskgMt2pu19sK67Yay1i7irzCguV/AiZ9GrNHePjqbwsxQA2hoaNM1SbUza+o6amgNtEDM7LBC7PWvEKDZvGbNzDCzScswA2iY3DL2AJPbN7k10KylpX/NDDFLvfz1DPSfpoju+FdrZnN/U2AG0AAaQKeDaboPnQf0+hbRrT8h2vaVh7tmumeg+TUUd+p5YObtd61mFqiT/jNM7tTc5sGxnAExHihDH9qN8ld4UCwGtAyUMUtX/8MBuuyyy2nHjgc6BrsnoFk78xOFR/zePjoHoN1oN0a5/Vd9dTC5V9fWaGVlhdbW1jOvuMJR7mZAM8HM1J9dfaOB+mMfG+sI6p6A5vdoPPTO2vkt1s7Q0OYVFoCuD9Abm/xqbNXAzECvrq7SxsZmBupWJrdoaKaXmfrLL/0fAzRr6quu+ou2oe4JaJ75wpNIDh2bB9DqXTSArgfQG5ubBmAGec+ePfTCCy/Qm2++GYW6E6CZqWv+x0wCNEP94Q//TVtQdw00z3jhaWw8u4i1MzR0OsEEQFcfaIZ5bW2NZmZm6Fe/+hWNj4/THXfcQd/5znfo97//vYF6fX0j0dSdAM1MMVv/6T+PeVDffPMtLaHuGmiecM5zVHmGEIBOYeZZYwC62kCvb1iYz507R3v37qXPf/7zBubPfOYzdPfddxuo33rrLWOGr29smDGmToBmppitKz56lwc0a+pWf10DzXY+96HPTa8CaGVuA2gfZn51Va1BMZ6vvkYM8yuvvEJf/OIX6eabb6YnnniCnn/+eXrwwQfps5/9LD322GN05MgRWl5eJoZ6a+tidH63vIfWfWiemsts/flNf58B+pOfvLEp010DLV8SyYBYpyb30/c0qNHgdC39038Ec7n/YxddY/Y1qLFtD+Zyn4/P4+a53XoeN6+H87j5t57HzeuYy51+RNLRXG7+WMSZ2ayZGeabbrqJdu3aZeA9e/Ys/eY3v6EdO3bQpz71KXrkkUfo5MmTtLS0RBsbG20DzUqS+bry9l0ZoFtp6Z6BPnl+uSsNDaD9OdzysQbeQ4/ue+iVFTuazX3mL3zhC3TLLbcYmBcWFujJJ5+kb37zm/Tqq6/S7373O5qYmKCPf/zjtHPnTpqcnLTm9/q6B3WinXm2mNK7rYBm7Z/3B6Dli6vIl1b89RW+trKfqtb9a6vVVfuemUezZQCMzezDhw/TD3/4Q7r11lvphhtuoK985Sv0y1/+kl5//XWzfuONN9Kjjz5K77zzjh393txMoO4W6GZmN4AG0OYzSnw+ab/Lzvt8kl9NceJXU1/96lcNxAcOHKCnnnqKPv3pT9P27dvp/vvvp7vuuoseeOABeumllwzUrKm/8Y1vmNdZfD73p1tNLGmloa+88gN5Crr7cLLShx6syb2H7pK+dbIcp+f42+jke+iX6e5kn+2n3/0v9tto+z30Qdr5Iem/j9Pz/zLu+vLj9KOIloaGhobm76FX19YN0Pyemc3qffv20dNPP0133nkn3XvvveY9NG//3ve+R/fcc4/pR3N/mrdxOn36tBlM29ra6hnoZv3o8mjo36qBMg9YBfSPBU4BNl1e8+hBygKd7m80AHSipeHgwPOOIg4OpA999OhRevbZZw3I9913H/385z+nCxcuGOD/8Ic/0He/+10z0v3lL3+ZXnvtNfOu2mjngvrQlQD63x+51mnSBt3149RjyXPbBOiXU+1978uJx5L9j16XaODnjMcSraEb1LjvF9ZrSUQ7ow+dunqqex96bZ1dMK2aAa5nnnnGwPy5z32OfvrTn5pXU9zH5nncPPXz7bffNu+ieaSbTW42zaenp2ltned5p6+vuu1DVwLoP/1zoH0/tIv2azdETbSzfT12He08wO6HNNDX0cMHnBsiAJ36coOGzmho3YfmySOsmX/2s58ZgBli46ts6xLx7DD+zVqcB8M+8YlP0Ne+9rVC+9DVAPr4PD27TZvIbl3Abgl0g7gv7QM9Ts9jUAyDYspRYTuDYg899BC9+OKLtLi4aLQ2m+TapxgPfPGEEu4386ssfnXFfe+iBsVGEuhXHk5N6DtfCCaWvJBq42seeTszsUSb36x9+ZjDCuhrvnUwMbm1s8BsHxpAi6PApP/MHlehoTMamqd7Lq+sEE8e4ffK58+fJzaz+csqDbNdZw+lG2ZCyYkTJ8zxc3Nz1Ta5//jq9+nqZHBrOz3jPH++c2wP3ZlsH6dnncdPhviuf3YeQNnU1oNk2/bQ4UnVh25cRw8dUF4/DzxOd0cHxQA0gPbdCOdpaNbC3I+W99E8Y4w/0LDeP7NeP3k77xdTnU3xTTXCza+uKtWHZo+fWkvbfq5vUl/zzbfpHQV07BjeZgbJJhdo/7dkAMzPx2hxAJ1MAcXUzy6nfm5epHWGem2d+Dvo1JVvFmh2asCJNbUZDOtgLner99AjaXKLj+5Dr34/nbetNbP4524KtBvh1u+hX3s8mp8Z4c6MckNDQ0O3r6Hl9ZXtM2sH/flAC9idfG1VbqDhaN9zuo+53KM7lxtAi5N9OAmEk8AkXBD8cvc69XO0TW5oaGjoIM5X1UPhAGjEtorGtcL30GkQvjLFtgLQABpAVyhYHYAG0AAaQHveS/K+nxza11bJayv0odGHRh+6I48lGBRzsaIRH9r6F8PEku4nlsirq3RSiT+Pm6d+yrtnvcR76GBiiRf0XX9lJeuJg4MFQsB3P+g7nARu0coIBXxHHxp9aPSh0YeuRh/afDIZuvIVrayX0NDGpS/c+G6aaC4cfWJlleNOuQQNnTeOZrf36lMsHRTTX1fJRxXj9KwzuQH0Cp2CX25ahIYefQ0tX1uF30M/ew8735+nd445pwbQ0DC5AfSIA/2j7TZqxqupc4NDx+YMxAyyJGhoaOiF5Q1o6MsuH2Wg36J//OsGXf3wW3SoxXvoLNChK19xErhgXfmGn09+6HHaL6+tDjxOf518otmgxocep/8LF0RwQdSGCyJ5XSVLvLZ6b46k32y9lVxL/8jauUOg//2RcXrot9rrJ4O5i/abQTHrteTuH4u3koP00L0CtPXXbf2KWd9iD98HoPE9NL6HNqNiPQ2KGfdD3QFt3kfr0W3jS2ycnmOgjXa+jh56TYBWS6OdxfMnA71g3fdCQ0NDQ0OTiY7HUHcVOaNHoEMngewk3wA9uUDP3etGypVvbnEUmOy772UAPbtqQIaGhobuXUO/Z19Vdd6Hdv1ncd3LmlpraPcu+sjkQXpIwt0osDNeP8XJPmtp+OWGX+71Lc/bpzgMlH6zXqIPrfvQ782RDSe7nZ7ppA9tnO2P07N5JncCtDO1Tdyq1AOoN5fb7YOjfaup4cbXamqBWC81yLIOoAOg//ieHemOBXzPfQ/tXPemoXBkxDvtQ9/FPrknNdDjxA4Cj4gr35O2//yuARpOAmFyw+QuwOROR7z/TTncT9z03rMn9z20338ep+e0yR2+suK+tXtlxUB7r6waCmaY3Km5DUf7GbNbtLJeQkNnNLSFutVrK/HLja+tVqKzxc5MrZg53LLEXG7M5baTszv839NrKwU3gF6GgwM4OICDg8N6YIzX3YAYL5M+tJjbMlPMONp3fWi8h8ZrqzW//7yGUe4u30NDQ3ta+eS5VEvD0T4c7SNyBjR00o9GHxp96A57z/Zw9KGX6PjpJTp+ZoneD9LkmSWaPOunE2eX0+gZSiNr7czr0NDQ0NDQ0NDQ0CscvznVzvBY0qGehoaGhp6ZX6ckLazTbE6aS+JardPcImJbwUkgnARG30EjFA5C4YR6GI728fkkPp/E55M9fj6J11Z4beVM7/lgUgn/RvTJVfN58pW37/LcDnHEDEmhZpbf0NDQ0NDQ0NDQ0OaVFV5bYVBsC6FwUt9i/C10i++h8XEGvH7C62dqasPkVvO5PQcHmMuNudyYyy1db5jcMLnXUnOb30fnvIPmd9N4D32JEH1SnO2H76D5d/ilFWaKYaYYZooZbYtRboxyY5Qbo9wwuWFyw+RO3RBdIg70LkkHepd1mNwwuU3USY48ieiTiG0lo9uyTEez/DWY3DC5YXLD5IbJDZMbJjdMbjWHWwLXYWJJ6n4IDg42CHO5ieDgAK+t8NoKr63w2uqo9J95idhWqbP9uTWaCtL03BqZNL9G0y4lzg0wsSQZ4eaRbhnZ1kuMcmOUG6PcyxvE87gxlxtzuUlCyOol5nKv0rmZVTrPCeFkaRVzudN3XvApBp9iMLn500l8PonPJ+HGN3EWCI8lRJcuEULhIBSODV4nQepkCUf7qSvfldUtStLaljGx2czWicPf6KTjQsu6jjop6+k76Ipp6DPn5+i9yak0nZii91w6dmKKWqXjJ6bo+Emdpun4ST+9f3KavHRqmt5vkiZPTdPk6dbpxOkZStKZGToRSSfPzFDTdHaGTrWRTp+dpSSdm6XTOenMuVmKpvOzdCaSzp6fJS9dmKOzQTp3YY4yaWqOzql0fmqOmqULU3Nk0vQcXUjSPF2YTtPU9DxF08w8TeWk6Zl5iqbZeZpWaWZ2gZql2dkFMmlugWZz0tzcAmXS/ALNqTQ/v0iZtLBI80FaWFik3LS4SAtBWlxcpGxaosVFl5aWaMmlqZnF4fkUO3HiBL355ptIkAHaQEFt4OzZs8MDmk2aOf6IHQkyQBsopA3w0DMPOg/F6yeAxsMMD/Ni2wCAhmYoRDMAzGLB7FaeABpAA+gKtQEAXaHK7PapjvNGQ7sWUQ8AGkBDQ1eoDQDoClVmEU945FFubQ2gATQ0dIXaAICuUGVCu5ZbuxZRfwAaQENDV6gNVBbohcU1NNQKNdQitFcd8qgk0Azz8vJyd0C/fD81Go1MuvbxI93lN8JQvfX49dRo3E97RriMdYCwyHusHNAC88rKSncAGqCvp+8fVP2xg0/QtQz5+N7u8hw6MHtpe6NB219W97SwTgDal0eRYA0rr0oBLTBPT09ToUAnjT8Afeigttsg40APq9Hhuu3WW+fHVQbohcVVY2bv3buXnnrqqcKBnnNaOtRy5WicALoc9dQ5wOF9VQLoxaU1AzDDfP3119Pu3bv7DrQxV697gt4Sc7yhtfcR+v51QT88Yq4neSxY4NK+e16/tvlxSX6qTNeG5VBdh7jJ3fwacwvZe6vi+EIISll+lx7oEOaPfOQjfQE6bPwWnuvpWoZam94CkwewgyQ4NsnDG5gSYAKoI/nuGeeHRnpckl9wnTn3wAiti/CexArRYwX+NVzZdP4Hn6DtFRwwLAvAYTlLDXQM5r4A7Ua+tSayMGitbM0lA4Bu8AK7A1JDlZeHAKivF8/XPijkuFb56WtzQwiBbn0Ne70wn7BR4XfvpnO3Miwt0HkwFwN0YC575rStrBAGWwE+YH6lOO2mNHc8D84/PDYvX/+4/PziIPrHt3MNd72IPPx7HV6Drns5Sgl0M5iLATqrecOGYmAINXFEC6fn+fDx9mgeRqMHx4q5HXk/bvrd7iGRn18bQLd5DS63NcPtQ0+sg/Q+AfMwZVE6oFvBPFSgXV813sgDSDsBOqcPHDacnoBu8xreNWUSjrI6vP3S3cByYPMXSgV0OzAPF2gHbai5uUFHtLcBMGa+Zo7NPgxi4PQGdHvXCK+bf01o6lBWg/hdGqAFZp4w0m7qSoCxmWIRDZPbkMV09bSWNXn16DGXzQLtj1TLgFgjfChEBuY4jz3jafcgt0yZPrmFzV4/HSWfa3mNvbTdu6/uHgJd1UukDpBP9qFZIqBXaXGps9RVhfcKtGl4DmDV542Z4QmA8hCQ4z1oVKWFx6l3ynyvSX6xxu9gzfS51WsvI6+m18jeV/iQ6krmsfJiW1dmemmArmJDaQogGnRXDbqK7aSTewLQQwQHQCvrY4j10Akwo34sgB5iQwLQALroBwSABtAwbYfYBgB0hYRfdGUiP2h8aGg8IKChK9QGAHSFKhMaGhoaQANoaOgKtQEAXaHKhIaGhgbQABoaukJtAEBXqDKhoaGhhwr0+voWra4hQQZoA0W1gaECzRfHHyQACRQrgSffILry9l102WWXR1Pe1Rp5O1pt5wtywh8kAAkULwEA3YZM5+fnSVIbh+MQSGBoEgDQOaIXgPOWOadhMyQwVAkA6Ij4BeL9+/fTzp07adu2bXT77beb5ZNPPknnz5+Hxo7IDZuGLwEAHdQBw8zAMsjsoyxMP/jBDxKYBfwgC/yEBIYmAQCtRC+A7tixIwMygx2Dmc/BHyQwKhIA0KomGM6nn36uI5jlIaCyGczqvglqNMZo9/HBXA5XKYcEALSrJwEzNLGbaWaGn1NhWroTSDs5thxtEaUsQAIAWgF96NChjHbOM7NFk7N5Lg+DnuujE0g7ObbngiGDskgAQLuaYihffPHFDNCigQVaXgrMrL1vuOEGAF2W1l6DcgJoBTS/poqZ3BpqDTOArgEhJbtFAK2APnr0aBRoBpdBDmHm7YMxuffRhDjiN8sJ2geTu2SoDaa4AJooMZm//vWv5wId09y8jSeasBleyF8M0uO7aYwhntiXXkK2YZQ7lQnWjARqD7T0jbuBmWePyfmFtKcI0PsmGtQY203h26nju8fw2qoQoVcrk1oDLTB2AzMPhvGoeGHamdtVBmhrao/FXjZnjq1Ww8TddCeB2gLdC8zcbz5x4kSx2jkGtDOttbWdVDOATkSBlVQCtQS6XZj5owwe+ebXWdxX5nUeOJPzUzEWtJaBFBq6IMnWJpvaAS0w5n18IYNfDLP+qkrOk2VfWkgG6OO0eywYEHMXNn1rDIr1pRrKnGktgY7NCBOQealhHmjlZoCWfnWDvH60OY6DxWMu90DrpwQXqyXQsRlhAvTQYObGEgM62c4Au8Sd6rxjS9DoUMT+SaCWQL/xxhvR981Dhbl/dYycaySBWgLN/eCwD80j19JnrlH941YrJoHaAc31JwNbPGoto9eyrWL1i9upmQRqCbSGWkDmJf4ggbJLoLZAl73iUH5IICYBAB2TCrZBAiWVAIAuacWh2JBATAIAOiYVbIMESioBAF3SikOxIYGYBAB0TCrBNoyEBwLBz5GVAIDOqRoNcWw95zRshgSGKgEAHRG/AMwTTxDbKiIgbBpZCQDooGoYZsS2CoSCn6WRAIBWVSWamed1y9dXepnndF9lgVVIYKgSANBK/Ax0zFUvQ50HszwEVDbdr/b6SaR4A404Fey+UPZM65RwgpTv0V6zxPl9kACAdkIVMLVGlvU8mMVXN59byF+PQBvoxsZorCfHB9btUejHDEAXUsN9zwRAOxEzlDFPJs1gZuAH42i/nXZg3RVN7LNLz8NJO6cnx8SBTnZjZaQlAKBd9TDQMU8mrIVFe8tSm+VDi20VNiuj3a1JbDV11pd3eEr8N4COy6UcWwG0qyeGlV9TiZmtlxpqDTMf03+gnaNAcT/UCPyLufIbp4FiJzdz/2uOz+bJkTms40Hl6khF7NAmd57zf4pe1z4gEvdJDfTD+/loANAK6NGLbeXA04Ncx3fTRMbxfqhV3XkCuNeCHGA6T9pHE8mxYV72ZA10nj8z7xg+TQbpkrzZFRo/MAC1VyUF/gDQyoNJNxE0+hvbKg5Xpv6VuS37MnC5HbnaVU5kuBsNUgyaPX5+9hi/n24fInpb/Fqxc5OLY6VHCdQeaOkXdwNz/2NbiWnczF1vjjZuYv5q6LLtpx2gWflybC2lac31dDnzwM0pb7Yg2NKFBGoNdC8wDya2la1Ra6bavm0GRjFrVR877a8Gge6ikIetpj2gxZwWTZ7Rxq3KJSeGl8fvniRQW6B7gXlgsa3CqjWmtR9JI6Mp1Tl2XztaU53UlsnNx2tNG3sIxLbp62C9HxKoJdDtwsx+unnke3ixrbJVbiBNBrQ0VNljycGZanV3fHJ+/jmhAo0+OKTvLksvu1Zl8w7Gj4IkUDugBebQL7d+TcXr2um+nKOXBcnfz8aAEWhUj6wAEqexvUP8HO2osgZYTGHvJD3KHVzD5RcF2j0w2MRPHxqqAK584b59E/oe1fFY7VkCtQQ6NiNMA61h7lnCnWQQAzrsGysQbd9aDUzFrhWF3prDuq+tsnVhdlTYHfMGKhgEc9eyZWgCqDxA9H14F4sVGtu6lUAtgY7NCBOghwZztzWI8yABJYFaAo3YVqoFYLVSEqgl0NwXDvvQiG1VqXZd25upHdBc0zK4hdhWtW33lb3xWgKtoRa4eYk/SKDsEqgt0GWvOJQfEohJAEDHpIJtkEBJJQCgS1pxKDYkEJMAgI5JBdsggZJKAEC3UXEYOGtDSDhkJCQAoHOqQUMcW885DZshgaFKAEBHxC8AIxRORDjYNNISANBB9TDMCIUTCAU/SyMBAK2qSjQzQuEooWC1VBIA0Kq6GOjQTa98hZXncF8eAiqbcq5mPt0s523UvdQA2rUAAVMA1ss8mBl+8dldSEPqFSr59lg7NGi3YL1eO3KduFOEyIHYVJgEALQTJQMdc3zQDGaGfnRC4ThPnN3GtgLQhUE1zIwAtAI65vhANLBocF5qs7z/kTPabR7WdVDXsa36AHS7JcdxxUkAQDtZMqijGQqnzco2QFp3RL4jwU7Ob+JKqM1scNhwJQCgnfwZ6NELhcOFc077lE+u0OkeH2V8e4mvLteXlp/ZJhb6FJugfRENnTwYpG/uyiDXt33kNBZWeL2wD53kp5wLGr9m4YnZAmNLmxIA0MrhQTfRM/obCsfBrAe5eo1tJXBqiGRbEFc6AVZdX7aNjY0RB7iTP7vd1/B2W+rEUM7NRtzI8RoqmWPZtgRqD7T0jbuBuf+hcNp0Vq/Mban5ECbZnolw4XbkA+lDmloMKag2i2xZwzLErsHn5pVJyoxl+xKoNdC9wDyYUDhibodQ6Qp2xyhtafZGzW4LnZjMOpdYREkDoNLO9vic62Wc+mfjX8Xzyx7nlQs/OpJAbYHuBeZBh8Kxvq/7HNuqWR/aa1IA2hPHiP2oJdDtwjxyoXAMdH2KbQWgRwzN7opTO6AF5tCNr54Zxuva4b6co5fdibvFWRGowjN8szVPW8pZoYmdf7y1AnzT3r+W5JmXR3itrCkdzy97nFwJy84lUEugYzPCNNAa5s5F2sMZGaB1zCnON4DJaeyw+6xLkBlwcud4/Wi3rREb5UYfWotz5NdrCXRsRpgAPTSYuanEgFbvn8N3tlarhqPNQZuLQZ8ArOJXZa7tNCeADgQ62j9rCTRC4Yx2o0TpupdALYHmvnDYh0YonO4bEc4cHQnUDmgWvQxuIRTO6DRElKQYCdQSaA21wM1L/EECZZdAbYEue8Wh/JBATAIAOiYVbIMESioBAF3SikOxIYGYBAB0TCrYBgmUVAIAuqQVh2JDAjEJAOiYVIJtGAkPBIKfIysBAJ1TNRri2HrOadgMCQxVAgA6In4BGLGtIsLBppGWAIAOqodhRmyrQCj4WRoJAGhVVaKZEdtKCQWrpZIAgFbVxUBrJ/rySSUv8yJoyENAZYNVSGBoEgDQTvQCpoZY1vNgZvglskYhNRj5JrmQfNvNZIjXN95MGi2+7W73Pmp8HIB2lc9AxzyZNIOZgR+l2Fbtt+Osy11zLoBuX4QjeiSAdhXDQMc8mYgGFg3OS22Wj05sq05a2OgB3UnpcWy+BAC0kw2DWurYVvl1HNkDoCNCqcQmAO2qkYEezdhWYTtzjgK1r7E8v1/qGHEKqH18Gx9lfIx4GWzb5I6UQfIIixvGseJ+cuQ6YR869RBqHz6Zsmaugw0sAQCtPJh0Ew6nv7GtIo103wQJnHava/AJUA42DXkmHlYPGlriYCXX41K4Muhr8ubYsQZmdk4YcRmsBsUs4HycGihz+fn3H5FRjTfVHmjpG3cDc/9jW7XXMlNtxsfnwOpllXNMRHN6pzWLQw1dd3UAAA9uSURBVBUJvZNxIewys7C2A7R/jLm7iQY1wgdHWMga/6410L3APJjYVvktM2s6iyYTczgLQ5pbt0Db8+Ia0l030dxNjo08OCzkcg95LoThlD+tw/habYHuBeZBx7bSVZeYogk48Uaugc8C2CXQES2cli0AutmxADoVW8FrtQS6XZhHLrZVDiShdvPaiPRZ1QMg1yyPgOblFYkwme6PA519mMQCCmQfSuaeIqZ103tNC1PbtdoBLTCHfrllVpgsdQQNOUcv+9JiWgEVBVpM7NRcDcuWhaNLDS2heCKgyQBY+twIAFeFstaD3yUIQc2W2WYQHqeyxWodR7kZytiMMAGZlxrmgbaSVkDLaHJKDdkGrkeDW8TDMjeUA1vL6+eMXEfKZS5j8mv4o/JuW1uj3JEHB4Bu3iJrqaFjM8IE6KHBzPWUNHYXc0q9R04Ydlpa3suySes3cqt9Zb9ZJierxqCvJfv1NnVtzkMOsTlkrxE1rWP3xBmZ60BDq9oobLWWQCO2VWHtp7uMDND5XYTuMsVZLIFaAs1md9iHRmyrwQGR9356cCWo7pVqBzRXpQxuIbZVfxs2dwV8U11Gs31zu7+lqFfutQRaQy1w8xJ/BUsg2ieHqV2wlL3sagu0JwX8gAQqIgEAXZGKxG1AAiwBAI12AAlUSAIAukKViVuBBAA02gAkUCEJAOg2KhMj4W0ICYeMhAQAdE41aIhj6zmnYTMkMFQJAOiI+AVgxLaKCAebRloCADqoHoYZsa0CoeBnaSQAoFVViWZGbCslFKyWSgIAWlUXA62d6MsnlbzMi6AhDwGVTferMlUy8h2wZIoPG0QSWMYkAKCdVARMDbGs58HM8EtkjZhwO94mQDcCpwAqIwCthIHVjAQAtBMJAx3zZNIMZga+H7GtJibGMn6rpeYAtEgCy5gEALSTCgMd82QiGlg0OC+1Wd6f2FbORVDE9AbQsWaMbSIBAK2AHqnYVs78Dr8njgMtjgKV66LgYWDcFPG2iAsjFoF1Y5SeH17Xiil0PYRPIQWkUVkCaFcTrHlHLbaVgVeHgsmLXNEyPI4CVoEuEI+NjaXxrRK4AycE8iBQpMfKNyoNu67lANDKg0k34XD6G9vKacQQIgVlXsNNNLI7wMIbQCpueYOHRsxvd9wysOXLdRCYVzhs75sEag+09I27gXkgsa0C0zsOlm0fVmOmZrMO9BYCbs/IceebcaifB27e+X1rr8i4hQRqDXQvMA8utpU/QBYDWkznJCxsYjanfdyegBZzO3Dtm7gKVhZEi/aG3X2WQG2B7gXmgce2ckCxaZsB2u0LmbKQFwS009jhNfrcNpF9FxKoJdDtwjxKsa0soGM0NhaEU40CLaPeRQEN07oLtoZySu2AFphDv9wyK0yWOoKGnKOXfakt018OB67kSgJpAHQkDE1igqvBrp5Mbi6C68uHA2D7JvLKK+XGcpASqCXQsRlhAjIvNcyDrIxYiBjv+g6qTMDzoI/L0BVrcrtSBNfJDbPjFRo/BimBWgIdmxEmQA8N5kHWOq5VWQnUEmjEtqpse679jdUSaO4Lh31oxLaqPQuVEEDtgOZak8EtxLaqRBvGTSgJ1BJoDbXAzUv8QQJll0BtgS57xaH8kEBMAgA6JhVsgwRKKgEAXdKKQ7EhgZgEAHRMKtgGCZRUAgC6pBWHYkMCMQkA6JhUgm0YCQ8Egp8jKwEAnVM1GuLYes5p2AwJDFUCADoifgEYsa0iwsGmkZYAgA6qh2FGbKtAKPhZGgkAaFVVopkR20oJZVRWm34rPiqFHH45ALSqAwZaO9GXTyp5mRdBQx4CKpvuV+V758B3V+hUoPsLlPhMAN1W5QFoJyYBU0Ms63kwM/wSWaMtabc6KNZoxalA3R16xWTTSp413A+gXaUz0DFPJs1gZuD7Edtq93G/JYo/sXC7f1TFfwHotioYQDsxMdAxTyaigUWD81Kb5f2JbRXUXdQRYHBM1X8C6LZqGEA7MTGoIxXbSldfBmjlMFD625loGtlj/L54/v6Mq2AuiyuDnwf7Dmx4YXQoicahHP5HuguJ00LpUjS0s8FIDC0ArVtE7jqAdqJhoEcttpXUWujwj50J+mCFIXMcrBry47tpIrHZW+yPwWO2xT2OJrwKnMkGvgNXNl0WCQQwxm6Jd5PXw4jlIds86EU6WGoJAGjlwaSbcDj9jW2V7z5XVyKvJxrP7LAQeVx5J7S3Xz80WBOPTUzQmHINbL2Upr6/o5rdFo7GGg3S5ckbF8jLI+9477bwg2oPtPSNu4G5P7GtlKlqzGltivot1jR+MbnNUuASczrv3Fb7Q1OaHwCcl/8giD1E9EMgLa27niLaAirllSNt/tE8YlaDnIZlIoFaA90LzIOLbZXUVbJiYfD7rjFANPAxSJruNwA54HjdmcbmHAOmhTTJ15nFitmkvEm/Wu30Hwbu0GZ5AGglz/zV2gLdC8wDj22l6y+n0ceATk4zMPgPgGQfr8T2q+swxAm4ArfZry2AJtpVBspaAZ2JeqlKCaCVMPJXawl0uzCPUmyrpAoVaMk2AUb3b9OdZi2qEdUx2f2igXc7c9sdLCDvTrW23ePM6nCQi3dGypy9njmQdnPsLgW+u6odTcegmIgjd1k7oAXm0C+3zAqTpY6gIefoZa5Ee9nRlhaymlA3equdue8tfdJ9NOFBEfZhW+23N2GhC0eiHeg8Qp2MmrubduDqsiWj3F55wkE8JTRnLXh5u20NAK0EFV+tJdCxGWECMi81zHGx9WlrW0CnGk/iM3Pjt1AroL3BslDruYeCPiYAztyhA9SDS0bUg1HrVCLZvMPz+di4hna5JAC7AUIuW7uySQtSy7VaAh2bESZADw3mWjY/3HTREqgl0IhtVXQzQn6jIoFaAs194bAPjdhWo9IkUY5eJFA7oFlYMriF2Fa9NB2cO4oSqCXQGmqBm5f4gwTKLoHaAl32ikP5IYGYBAB0TCrYBgmUVAIAuqQVh2JDAjEJAOiYVLANEiipBAB0GxWHgbM2hIRDRkICADqnGjTEsfWc07AZEhiqBAB0RPwCMELhRISDTSMtAQAdVA/DjFA4gVDwszQSANCqqkQzIxSOEgpWSyUBAK2qi4HWPrflCyxe5jncl4eAygarkMDQJACgnegFTA2xrOfBzPCLI/7iajD7PfEwPuz3v68u7u4kJ+3PTL7r9pfWvVG/yyHlqcoSQLuaZKBjjg+awczAFx8KR/nvcmU7vnuCQucg/W6AgwXJPsRyHSEknlj6fdflzx9AuzpkoGOOD0QDiwbnpTbLiwuFE7oJKn/jav8O8oFuPw8cyRIA0K4dMKjDDYXjTO2YK6DKt1UAXVQVA2gF9LBD4dh+pXaN26ya3QMg8Qsm/sTkHKfxk/2hKd98f9zkzp7jOwS01zbnGu+fQRlzH1b5QIflSPIWh4Tu/sRct8enwQrilwzKFZj02Wu0Wyci++EtAbRyeNBN9IxCQ+FIHChupPGWKMSY0DL6GPswEKgdeNqlbiexrcSJn27oApBXLgeGvk5yrvZCajaaMgt4fpPvEGiWj7qmQDw2NubJzW4PYIzchy87cWAYejv1Szyqv2oPtPSNu4G58FA4rpXoEeAYAGa/atD2NA2FXffY81pgq/2uUSug49dMQdXXioJk/Pn7IKZF0mVPt/KazUseVPI7gDTXL3n2PuP34V8/r/x+yUbzV62B7gXmvoTCCdpIArYHr9/40lOcVjZkiWkcNnw5utV+AUdAyrsm56eva/M3QHhlVtvVQ0JKI767Yw+vKNCZvLNlsHmH5Q5/Swn888NrylFlWNYW6F5g7lsonFiLcT6qk8YuJqPqG3vvb5WqTB4IjbD/bC/UbL/XqN01VdaqpD4MvGNkgW5TdnnlVzc9squ1BLpdmAceCifaTEJgrJaJwxXNIB67Sh8qju1Vph7QzWJOlVBDq9vUUkjWAXQiitYr/AThNKw/gTl04yuzwmSpHe7LOXo5uPKHQIe/2ytJq0Ya7veBdtfMmLpN+tCRY/08dbnzTOHQ9M/T/nkyCfPNO06XJe8a/jGj+qt2GpqhjM0IE5B5qWEeXMVx45M+a3pVaxYHfeHQDHeH75uQ41rFrmq1PwuSBJzTI+vS9/W35QMxfKDTSJtJFyYju/zyp7Uyumu1BDo2I0yAHg7M3ECsNvH6w8HrGa8ZxfqDiS0ZySvZl3Mtb38EaHPxbL4hGHxYqO2l3CMBtC2gfe2nxyHU/eeVX+5jlJe1BBqhcEa5SaJsvUiglkCz2R32oREKp5dmhHNHRQK1A5oFL4NbCIUzKs0Q5ShKArUEWkMtcPMSf5BA2SVQW6DLXnEoPyQQkwCAjkkF2yCBkkoAQJe04lBsSCAmgYED/ZODRDtfjRUF2yABSKBXCTBbf37T39Nll10eTXn5N/J2tNq+7xjRl37d6ijshwQggW4kwGxd8V//exRmhjzvr2ug/zRFdOtP8rLFdkgAEuhFAszWn1194+CA5sJ+9H8TTS33UmycCwlAAqEEmKkP/s/FXJj7oqG5EF/fT/TiO2Fx8BsSgAR6kQAz9V8e+OXggf7tJNH2X/RSdJwLCUACoQSYqSs+etfggeaC8MUZbPxBApBA7xLgwear/+FAU5j7ZnJz8TE41nslIgdIQCTQajCMYf7Yx8bk8Myy61FundPzbxJ9+zW9BeuQACTQqQSYoavu+HZL7bxjxwO5WRcCNOfOA2Q82QR/kAAk0LkEWCle/cCeljA3M7f5qoUBvb5F9OAr0NSdVyXOqLMEmBueFdYuzB/84AebiqswoOUq/KTZ9hLRm2dlC5aQACQQk8Abp4ju+Feiq257uC3N3Eo78zUKB5ozlYKyxsYIeKwqsa3OEpBp03/1rT82nQ3GAOvUSjuzTPsCtFTWr9+1r7X+8skto7V3vW5d//KXJEiQQZ3aALd9tlyZBX4t1WyetoZY1q+88gOCVdNlX4GWK3M/4a9uuZ+uvO0xuvL2XUiQQf3awG2P0RUfuY0uv+IDntYVYFsthaVWy4EALYX45CfzJ5u3uiHs980vyKMe8mhXMwtjAwWaL/p3f3d/V08oNOB6NGDUc1rPH/7w3winbS8HDrSU7Lbb/hvADgY90JjTxlxnWbQz+CUchcuhAa0LwnBfddVfAHAAXts2cPPNt2gkul4fCaC7Lj1OhAQgAU8CANoTB35AAuWWAIAud/2h9JCAJwEA7YkDPyCBcksAQJe7/lB6SMCTAID2xIEfkEC5JQCgy11/KD0k4EkAQHviwA9IoNwS+P9mrZ45vOrIqgAAAABJRU5ErkJggg==;" vertex="1" parent="1">
          <mxGeometry x="413" y="232" width="244" height="353" as="geometry" />
        </mxCell>
        <mxCell id="EXiGh36RY0hB33X0RfPo-16" value="WebbShopAPI" style="swimlane;fontStyle=0;childLayout=stackLayout;horizontal=1;startSize=26;fillColor=none;horizontalStack=0;resizeParent=1;resizeParentMax=0;resizeLast=0;collapsible=1;marginBottom=0;" vertex="1" parent="1">
          <mxGeometry x="-780" y="-630" width="200" height="960" as="geometry" />
        </mxCell>
        <mxCell id="EXiGh36RY0hB33X0RfPo-17" value="+ActivateUser()" style="text;strokeColor=none;fillColor=none;align=left;verticalAlign=top;spacingLeft=4;spacingRight=4;overflow=hidden;rotatable=0;points=[[0,0.5],[1,0.5]];portConstraint=eastwest;" vertex="1" parent="EXiGh36RY0hB33X0RfPo-16">
          <mxGeometry y="26" width="200" height="26" as="geometry" />
        </mxCell>
        <mxCell id="EXiGh36RY0hB33X0RfPo-18" value="+AddBook()" style="text;strokeColor=none;fillColor=none;align=left;verticalAlign=top;spacingLeft=4;spacingRight=4;overflow=hidden;rotatable=0;points=[[0,0.5],[1,0.5]];portConstraint=eastwest;" vertex="1" parent="EXiGh36RY0hB33X0RfPo-16">
          <mxGeometry y="52" width="200" height="28" as="geometry" />
        </mxCell>
        <mxCell id="EXiGh36RY0hB33X0RfPo-19" value="+AddBookToCategory()&#xa;&#xa;+AddCategory()&#xa;&#xa;+AddUser()&#xa;&#xa;+AdminMode()&#xa;&#xa;+BestCustomer()&#xa;&#xa;+BuyBook()&#xa;&#xa;+CheckAdminActivity()&#xa;&#xa;+CheckIfAdmin()&#xa;&#xa;+DeleteBook()&#xa;&#xa;+DeleteCategory()&#xa;&#xa;+Demote()&#xa;&#xa;+FindUser()&#xa;&#xa;+GetAuthors()&#xa;&#xa;+GetAvailableBooks()&#xa;&#xa;+GetBook()&#xa;&#xa;+GetBooks()&#xa;&#xa;+GetCategories(+1 overload)&#xa;&#xa;+GetCategory()&#xa;&#xa;+InactivateUser()&#xa;&#xa;+ListUsers()&#xa;&#xa;+Login()&#xa;&#xa;+Logout()&#xa;&#xa;+MenuPresenter()&#xa;&#xa;+MoneyEarned()&#xa;&#xa;+Ping()&#xa;&#xa;+Promote()&#xa;&#xa;+Register()&#xa;&#xa;+SetAmount()&#xa;&#xa;+SoldItems()&#xa;&#xa;+UpdateBook()&#xa;&#xa;+UpdateCategory()&#xa;&#xa;&#xa;&#xa;&#xa;&#xa;&#xa;" style="text;strokeColor=none;fillColor=none;align=left;verticalAlign=top;spacingLeft=4;spacingRight=4;overflow=hidden;rotatable=0;points=[[0,0.5],[1,0.5]];portConstraint=eastwest;" vertex="1" parent="EXiGh36RY0hB33X0RfPo-16">
          <mxGeometry y="80" width="200" height="880" as="geometry" />
        </mxCell>
        <mxCell id="EXiGh36RY0hB33X0RfPo-20" value="BookShopContext" style="swimlane;fontStyle=1;align=center;verticalAlign=top;childLayout=stackLayout;horizontal=1;startSize=26;horizontalStack=0;resizeParent=1;resizeParentMax=0;resizeLast=0;collapsible=1;marginBottom=0;" vertex="1" parent="1">
          <mxGeometry x="-200" y="-584" width="160" height="196" as="geometry" />
        </mxCell>
        <mxCell id="EXiGh36RY0hB33X0RfPo-21" value="-DatabaseName: string&#xa;&#xa;+BookCategories: DbSet&#xa;&#xa;+Books:DbSet&#xa;&#xa;+SoldBooks:DbSet&#xa;&#xa;+Users:DbSet" style="text;strokeColor=none;fillColor=none;align=left;verticalAlign=top;spacingLeft=4;spacingRight=4;overflow=hidden;rotatable=0;points=[[0,0.5],[1,0.5]];portConstraint=eastwest;" vertex="1" parent="EXiGh36RY0hB33X0RfPo-20">
          <mxGeometry y="26" width="160" height="134" as="geometry" />
        </mxCell>
        <mxCell id="EXiGh36RY0hB33X0RfPo-22" value="" style="line;strokeWidth=1;fillColor=none;align=left;verticalAlign=middle;spacingTop=-1;spacingLeft=3;spacingRight=3;rotatable=0;labelPosition=right;points=[];portConstraint=eastwest;" vertex="1" parent="EXiGh36RY0hB33X0RfPo-20">
          <mxGeometry y="160" width="160" height="8" as="geometry" />
        </mxCell>
        <mxCell id="EXiGh36RY0hB33X0RfPo-23" value="- OnConfiguring()" style="text;strokeColor=none;fillColor=none;align=left;verticalAlign=top;spacingLeft=4;spacingRight=4;overflow=hidden;rotatable=0;points=[[0,0.5],[1,0.5]];portConstraint=eastwest;" vertex="1" parent="EXiGh36RY0hB33X0RfPo-20">
          <mxGeometry y="168" width="160" height="28" as="geometry" />
        </mxCell>
      </root>
    </mxGraphModel>
  </diagram>
</mxfile>
